<?xml version="1.0" encoding="UTF-8"?><svg id="Layer_1" xmlns="http://www.w3.org/2000/svg" viewBox="0 0 78.13 74.3"><defs><style>.cls-1{fill:#333F48;}</style></defs><path class="cls-1" d="M61.1,31.03c-.97,1.47-1.14,3.33-.46,4.95,.6,1.43,.13,3.06-1.14,3.96-1.44,1.03-2.28,2.69-2.24,4.45,.04,1.55-.99,2.9-2.51,3.29-1.41,.36-2.6,1.27-3.32,2.51h0c-.15,.27-.28,.55-.39,.84-.53,1.46-1.98,2.35-3.54,2.17-1.76-.2-3.51,.47-4.68,1.8-1.03,1.17-2.71,1.48-4.09,.76-.47-.25-.97-.42-1.48-.52h-.01c-.68-.13-1.37-.13-2.04,0h0c-.51,.1-1.01,.27-1.48,.52-1.38,.72-3.06,.41-4.09-.76-1.03-1.17-2.51-1.83-4.06-1.83-.21,0-.42,.01-.63,.04-1.55,.18-3.01-.71-3.54-2.17-.1-.29-.24-.57-.39-.83h0c-.71-1.25-1.9-2.16-3.31-2.52-1.51-.39-2.54-1.74-2.51-3.29,.04-1.76-.79-3.42-2.24-4.45-1.27-.9-1.74-2.53-1.14-3.96,.68-1.63,.51-3.48-.46-4.95-.85-1.3-.7-2.98,.39-4.1,1.23-1.27,1.74-3.06,1.37-4.78-.32-1.52,.44-3.03,1.85-3.69,1.61-.75,2.74-2.23,3.02-3.97,.25-1.53,1.52-2.67,3.07-2.77,1.77-.12,3.37-1.1,4.27-2.62,.79-1.33,2.39-1.95,3.88-1.49,1.7,.52,3.54,.18,4.93-.91,1.23-.96,2.93-.96,4.16,0,1.39,1.09,3.24,1.44,4.93,.91,1.49-.46,3.09,.15,3.88,1.49,.9,1.52,2.5,2.5,4.27,2.62,1.56,.11,2.82,1.25,3.07,2.77,.28,1.74,1.41,3.22,3.02,3.97,1.41,.66,2.18,2.17,1.85,3.69-.37,1.72,.15,3.51,1.37,4.78,1.08,1.12,1.24,2.81,.38,4.1m-4.38,34.4l-6.12-1.86c-1.11-.34-2.3,.16-2.85,1.17l-3,5.6c-.16,.29-.58,.27-.71-.03l-5.17-12.35c1.96,.54,4.09-.06,5.48-1.64,.73-.83,1.81-1.25,2.91-1.12,1.97,.23,3.84-.62,4.96-2.14l4.96,11.86c.13,.31-.16,.61-.48,.52m-28.3,4.88c-.13,.3-.55,.32-.71,.03l-3-5.6c-.54-1.01-1.74-1.5-2.85-1.17l-6.12,1.86c-.32,.1-.6-.21-.48-.52l4.96-11.86c1.12,1.52,2.99,2.36,4.96,2.14,1.1-.13,2.19,.29,2.91,1.12,1.05,1.2,2.54,1.84,4.05,1.84,.48,0,.96-.07,1.43-.2l-5.17,12.36ZM62.8,32.13c1.37-2.08,1.12-4.79-.62-6.59-.77-.79-1.08-1.9-.85-2.98,.52-2.43-.7-4.87-2.98-5.92-1-.46-1.71-1.39-1.88-2.47-.4-2.45-2.43-4.29-4.94-4.46-1.1-.07-2.1-.68-2.66-1.63-1.27-2.14-3.83-3.13-6.23-2.39-1.06,.33-2.2,.11-3.07-.57-1.97-1.55-4.71-1.55-6.68,0-.87,.68-2.01,.89-3.07,.57-2.4-.74-4.96,.25-6.23,2.39-.56,.95-1.55,1.55-2.66,1.63-2.5,.17-4.54,2-4.94,4.46-.18,1.08-.88,2.01-1.88,2.47-2.27,1.06-3.5,3.49-2.98,5.92,.23,1.07-.09,2.18-.85,2.98-1.73,1.8-1.99,4.51-.62,6.59,.61,.92,.71,2.07,.29,3.08-.96,2.3-.21,4.91,1.83,6.36,.9,.64,1.42,1.67,1.39,2.77-.06,2.49,1.6,4.66,4.03,5.28,.72,.18,1.34,.59,1.79,1.16l-5.59,13.37c-.78,1.87,.99,3.8,2.94,3.21l6.12-1.86c.18-.05,.37,.02,.46,.19l3,5.6c.96,1.79,3.59,1.67,4.37-.2l5.83-13.93c.08,0,.15,0,.23,0l5.83,13.93c.78,1.87,3.41,1.99,4.37,.2l3-5.6c.09-.16,.28-.24,.46-.19l6.12,1.86c1.96,.59,3.73-1.34,2.94-3.21l-5.59-13.37c.45-.56,1.07-.97,1.79-1.16,2.43-.62,4.08-2.79,4.03-5.28-.03-1.09,.49-2.13,1.39-2.77,2.04-1.45,2.79-4.07,1.83-6.36-.42-1.01-.32-2.17,.29-3.08"/><path class="cls-1" d="M42.35,32.35c-.63,.49-.9,1.3-.68,2.07l2.15,7.45-6.49-4.33c-.33-.22-.72-.33-1.1-.33s-.76,.11-1.1,.33l-6.49,4.33,2.15-7.45c.22-.77-.04-1.58-.68-2.07l-6.16-4.78,7.82-.28c.8-.03,1.5-.53,1.77-1.28l2.68-7.28,2.68,7.28c.27,.75,.97,1.25,1.77,1.28l7.82,.28-6.16,4.78Zm8.21-5.44c-.26-.79-.96-1.31-1.8-1.34l-7.95-.28-2.73-7.4c-.29-.78-1.01-1.28-1.84-1.28s-1.56,.5-1.84,1.28l-2.73,7.4-7.95,.28c-.83,.03-1.54,.56-1.8,1.34-.26,.79,0,1.62,.66,2.13l6.27,4.86-2.19,7.58c-.23,.8,.06,1.62,.73,2.11,.68,.48,1.56,.5,2.25,.04l6.6-4.4,6.6,4.4c.69,.46,1.58,.45,2.25-.04,.67-.48,.96-1.31,.73-2.11l-2.19-7.58,6.27-4.86c.66-.51,.91-1.35,.66-2.13"/></svg>