<?xml version="1.0" encoding="UTF-8"?><svg id="Layer_1" xmlns="http://www.w3.org/2000/svg" viewBox="0 0 78.13 74.3"><defs><style>.cls-1{fill:#333F48;}</style></defs><path class="cls-1" d="M51.93,68.92v-2.16h3.24v-2.16h-3.24v-4.32h3.24v-2.16h-3.24v-4.32h3.24v-2.16h-3.24v-4.32h3.24v-2.16h-3.24v-4.32h3.24v-2.16h-3.24v-5.81l6.48,3.24v32.82h-6.48Zm-15.12-2.16h7.56v-2.16h-7.56v-4.32h7.56v-2.16h-7.56v-4.32h7.56v-2.16h-7.56v-4.32h7.56v-2.16h-7.56v-4.32h7.56v-2.16h-7.56v-4.32h7.56v-2.16h-7.56v-4.32h7.56v-2.16h-7.56v-3.97l12.96,3.7v43.47h-12.96v-2.16Zm-21.6,0h9.72v-2.16H15.2v-4.32h9.72v-2.16H15.2v-4.32h9.72v-2.16H15.2v-4.32h9.72v-2.16H15.2v-4.32h9.72v-2.16H15.2v-4.32h9.72v-2.16H15.2v-4.32h9.72v-2.16H15.2v-4.32h9.72v-2.16H15.2v-4.32h9.72v-2.16H15.2v-4.32h19.44v60.49H15.2v-2.16Zm49.69-8.64c0-1.76,.99-3.24,2.16-3.24s2.16,1.48,2.16,3.24c.03,1.03-.36,2.04-1.08,2.78v-1.7h-2.16v1.7c-.72-.74-1.12-1.74-1.08-2.78m3.24,10.8v-5.59c2.07-.87,3.37-2.96,3.24-5.21,0-2.98-1.94-5.4-4.32-5.4s-4.32,2.42-4.32,5.4c-.13,2.25,1.17,4.33,3.24,5.21v5.59h-5.4V35.43c0-.41-.23-.78-.6-.97l-8.04-4.02v-5.81c0-.48-.32-.91-.78-1.04l-14.34-4.1V7.35c0-.6-.48-1.08-1.08-1.08H14.12c-.6,0-1.08,.48-1.08,1.08v61.57h-4.32v2.16H73.53v-2.16h-5.4Z"/></svg>