<?xml version="1.0" encoding="UTF-8"?><svg id="Layer_1" xmlns="http://www.w3.org/2000/svg" viewBox="0 0 78.13 74.3"><defs><style>.cls-1{fill:#fff;}</style></defs><path class="cls-1" d="M7.96,70.1h12.58v-17.66H7.96v17.66Zm13.65,2.21H6.88c-.59,0-1.07-.5-1.07-1.11v-19.88c0-.61,.48-1.11,1.07-1.11h14.72c.59,0,1.07,.5,1.07,1.11v19.88c0,.61-.48,1.11-1.07,1.11"/><path class="cls-1" d="M22.68,70.1h12.58v-26.22h-12.58v26.22Zm13.65,2.21h-14.73c-.59,0-1.07-.5-1.07-1.11v-28.43c0-.61,.48-1.11,1.07-1.11h14.73c.59,0,1.07,.5,1.07,1.11v28.43c0,.61-.48,1.11-1.07,1.11"/><path class="cls-1" d="M37.4,70.1h12.58V34.9h-12.58v35.2Zm13.65,2.21h-14.72c-.59,0-1.07-.5-1.07-1.11V33.79c0-.61,.48-1.11,1.07-1.11h14.72c.59,0,1.07,.5,1.07,1.11v37.42c0,.61-.48,1.11-1.07,1.11"/><path class="cls-1" d="M65.78,55.5c-.59,0-1.07-.5-1.07-1.11v-3.24c0-1.47,2.14-1.47,2.14,0v3.24c0,.61-.48,1.11-1.07,1.11"/><path class="cls-1" d="M65.78,72.31h-14.72c-.59,0-1.07-.5-1.07-1.11V22.03h-6.36c-.95,0-1.43-1.19-.76-1.89l14.8-15.28c.42-.43,1.1-.43,1.51,0l14.81,15.28c.67,.7,.2,1.89-.76,1.89h-6.38v10.38c0,1.47-2.14,1.47-2.14,0v-11.48c0-.61,.48-1.1,1.07-1.1h4.86l-12.22-12.61-12.21,12.61h4.85c.59,0,1.07,.5,1.07,1.1v49.17h12.58v-7.95c0-1.48,2.14-1.48,2.14,0v9.06c0,.61-.48,1.11-1.07,1.11"/><path class="cls-1" d="M65.78,44.51c-.59,0-1.07-.49-1.07-1.11v-3.26c0-1.48,2.14-1.48,2.14,0v3.26c0,.61-.48,1.11-1.07,1.11"/></svg>