<?xml version="1.0" encoding="UTF-8"?><svg id="Layer_1" xmlns="http://www.w3.org/2000/svg" viewBox="0 0 78.13 74.3"><defs><style>.cls-1{fill:#333F48;}</style></defs><path class="cls-1" d="M63.95,42.04v-2.09c.58,0,1.05-.47,1.05-1.04v-6.25c0-.58-.47-1.04-1.05-1.04h-5.66l-.2-.78c-.46-1.79-1.18-3.51-2.14-5.09l-.42-.7,4.02-4c.4-.4,.4-1.06,0-1.46l-4.45-4.44c-.41-.39-1.06-.39-1.47,0l-4.02,4-.7-.42c-1.6-.95-3.32-1.67-5.12-2.13l-.79-.2v-5.64c0-.58-.47-1.04-1.05-1.04h-6.28c-.58,0-1.05,.47-1.05,1.04v5.63l-.79,.2c-1.8,.46-3.52,1.18-5.12,2.13l-.7,.42-4.02-4c-.41-.39-1.06-.39-1.47,0l-4.45,4.43c-.2,.19-.31,.46-.31,.73s.11,.54,.31,.73l4.02,4-.42,.7c-.95,1.59-1.67,3.3-2.14,5.09l-.2,.78h-5.66c-.58,0-1.05,.47-1.05,1.04v6.25c0,.58,.47,1.04,1.05,1.04v2.09c-1.74,0-3.14-1.4-3.14-3.13v-6.25c0-1.73,1.41-3.13,3.14-3.13h4.05c.43-1.44,1.02-2.83,1.74-4.15l-2.88-2.87c-.59-.59-.92-1.38-.92-2.21s.33-1.62,.92-2.21l4.45-4.43c1.24-1.18,3.19-1.18,4.43,0l2.88,2.87c1.32-.72,2.72-1.3,4.17-1.73v-4.04c0-1.73,1.41-3.13,3.14-3.13h6.28c1.73,0,3.14,1.4,3.14,3.13v4.04c1.45,.43,2.85,1.01,4.17,1.73l2.88-2.87c1.24-1.18,3.19-1.18,4.44,0l4.45,4.43c.59,.59,.92,1.38,.92,2.21s-.33,1.62-.92,2.21l-2.88,2.87c.73,1.32,1.31,2.71,1.74,4.15h4.05c1.73,0,3.14,1.4,3.14,3.13v6.25c0,1.73-1.41,3.13-3.14,3.13"/><path class="cls-1" d="M53.48,35.78h-2.09c0-6.91-5.63-12.51-12.57-12.51s-12.57,5.6-12.57,12.51h-2.09c0-8.06,6.56-14.6,14.66-14.6s14.66,6.54,14.66,14.6"/><path class="cls-1" d="M38.82,33.7c-2.31,0-4.19,1.87-4.19,4.17s1.88,4.17,4.19,4.17,4.19-1.87,4.19-4.17-1.88-4.17-4.19-4.17m0,10.43c-3.47,0-6.28-2.8-6.28-6.26s2.81-6.26,6.28-6.26,6.28,2.8,6.28,6.26c0,3.45-2.81,6.25-6.28,6.26"/><path class="cls-1" d="M56.62,37.87c-2.31,0-4.19,1.87-4.19,4.17s1.88,4.17,4.19,4.17,4.19-1.87,4.19-4.17-1.88-4.17-4.19-4.17m0,10.43c-3.47,0-6.28-2.8-6.28-6.26s2.81-6.26,6.28-6.26,6.28,2.8,6.28,6.26c0,3.45-2.81,6.25-6.28,6.26"/><path class="cls-1" d="M21.01,37.87c-2.31,0-4.19,1.87-4.19,4.17s1.88,4.17,4.19,4.17,4.19-1.87,4.19-4.17-1.88-4.17-4.19-4.17m0,10.43c-3.47,0-6.28-2.8-6.28-6.26s2.81-6.26,6.28-6.26,6.28,2.8,6.28,6.26c0,3.45-2.81,6.25-6.28,6.26"/><path class="cls-1" d="M66.11,50.97c-1.56-1.07-3.41-1.64-5.31-1.63h-8.38c-.51,0-1.02,.05-1.52,.14-.67-1.04-1.54-1.94-2.56-2.65-.15-.12-.31-.22-.48-.31-1.46-.88-3.15-1.35-4.86-1.35h-8.38c-3.2-.01-6.19,1.62-7.9,4.31-.5-.09-1.01-.13-1.52-.14h-8.38c-1.89,0-3.74,.56-5.3,1.63-2.58,1.75-4.12,4.65-4.12,7.75v4.17c0,2.85,1.67,5.43,4.26,6.62,.96,.45,2.01,.68,3.07,.67h10.47v-2.09H15.78v-11.47h-2.09v11.36c-.39-.08-.78-.21-1.14-.38-1.86-.85-3.04-2.7-3.05-4.73v-4.17c0-2.42,1.2-4.67,3.21-6.03,1.21-.83,2.65-1.27,4.12-1.27h8.38c.18,0,.36,.02,.54,.03-.35,.99-.54,2.04-.54,3.1v10.43c0,2.88,2.35,5.21,5.24,5.21h3.14v-16.68h-2.09v14.6h-1.05c-1.74,0-3.14-1.4-3.14-3.13v-10.43c0-4.03,3.28-7.3,7.33-7.3h8.38c1.35,0,2.67,.37,3.82,1.07,.11,.06,.21,.12,.31,.2,.98,.67,1.79,1.56,2.35,2.61,.56,1.05,.86,2.23,.86,3.42v10.43c0,1.73-1.41,3.13-3.14,3.13h-1.05v-14.6h-2.09v16.68h3.14c2.89,0,5.23-2.33,5.24-5.21v-10.43c0-1.05-.19-2.1-.54-3.1,.18-.01,.36-.03,.54-.03h8.38c1.47,0,2.91,.44,4.12,1.27,2,1.36,3.21,3.62,3.21,6.03v4.17c0,2.04-1.2,3.89-3.07,4.74-.36,.17-.74,.29-1.12,.37v-11.36h-2.09v11.47h-9.43v2.09h10.47c1.05,0,2.09-.22,3.05-.66,2.61-1.19,4.28-3.78,4.28-6.63v-4.17c0-3.1-1.54-6-4.12-7.75"/></svg>