<?xml version="1.0" encoding="UTF-8"?><svg id="Layer_1" xmlns="http://www.w3.org/2000/svg" viewBox="0 0 187.91 145.02"><defs><style>.cls-1{fill:#fff;}.cls-2{fill:#b09810;}</style></defs><g><g><polygon class="cls-1" points="169.34 91.29 169.34 94.33 174.86 92.44 174.86 89.47 169.34 91.29"/><polygon class="cls-1" points="108.87 115.95 108.87 118.99 114.39 117.1 114.39 114.13 108.87 115.95"/></g><g><polygon class="cls-1" points="78.79 36.48 82.82 40.5 82.82 47.5 75.29 39.98 78.79 36.48"/><rect class="cls-1" x="71.4" y="37.74" width="4.95" height="15.5" transform="translate(-10.53 65.56) rotate(-45)"/><polygon class="cls-1" points="75.89 54.44 72.38 57.94 61.44 46.99 61.43 46.98 64.4 44 64.93 43.48 75.89 54.44"/><polygon class="cls-1" points="70.67 59.65 67.17 63.15 56.22 52.21 56.21 52.2 59.71 48.7 59.72 48.71 70.67 59.65"/><polygon class="cls-1" points="62.02 61.44 58.52 64.94 51 57.42 50.99 57.41 54.5 53.91 54.51 53.92 62.02 61.44"/><rect class="cls-1" x="60.37" y="64.55" width="4.95" height="2.43" transform="translate(-28.09 63.7) rotate(-45)"/><rect class="cls-1" x="71.99" y="34.44" width="4.95" height="2.43" transform="translate(-3.4 63.1) rotate(-45)"/><polygon class="cls-1" points="56.88 73.44 52.86 77.47 45.86 77.47 53.38 69.94 56.88 73.44"/><polygon class="cls-1" points="44.14 75.75 40.64 73.1 51.59 64.8 55.1 67.45 44.14 75.75"/><polygon class="cls-1" points="38.92 70.54 35.42 67.04 46.37 56.09 46.38 56.08 49.35 59.06 49.88 59.58 38.92 70.54"/><polygon class="cls-1" points="33.71 65.32 30.21 61.82 41.15 50.87 41.16 50.86 44.66 54.36 44.65 54.37 33.71 65.32"/><polygon class="cls-1" points="31.92 56.67 28.42 53.17 35.93 45.65 35.94 45.64 39.45 49.15 39.44 49.16 31.92 56.67"/><rect class="cls-1" x="26.38" y="55.02" width="2.43" height="4.95" transform="translate(-32.57 36.35) rotate(-45)"/><rect class="cls-1" x="56.52" y="66.61" width="2.43" height="4.95" transform="translate(-31.94 61.06) rotate(-45)"/><polygon class="cls-1" points="20.02 51.56 16 47.54 16 40.54 23.52 48.06 20.02 51.56"/><rect class="cls-1" x="22.47" y="34.8" width="4.95" height="15.49" transform="translate(-22.78 30.1) rotate(-45)"/><polygon class="cls-1" points="22.93 33.6 26.43 30.1 37.38 41.05 37.39 41.06 34.41 44.03 33.89 44.56 22.93 33.6"/><polygon class="cls-1" points="28.15 28.38 31.65 24.88 42.6 35.83 42.61 35.84 39.1 39.34 39.1 39.33 28.15 28.38"/><polygon class="cls-1" points="36.8 26.6 40.3 23.1 47.81 30.61 47.82 30.62 44.32 34.12 44.31 34.11 36.8 26.6"/><rect class="cls-1" x="33.5" y="21.06" width="4.95" height="2.43" transform="translate(-5.21 31.96) rotate(-45)"/><rect class="cls-1" x="21.87" y="51.17" width="4.95" height="2.43" transform="translate(-29.91 32.56) rotate(-45)"/><polygon class="cls-1" points="41.8 14.59 45.82 10.57 52.83 10.57 45.3 18.09 41.8 14.59"/><rect class="cls-1" x="43.07" y="17.04" width="15.5" height="4.95" transform="translate(1.09 41.65) rotate(-45)"/><polygon class="cls-1" points="59.76 17.5 63.26 21 52.31 31.95 52.3 31.96 49.33 28.98 48.8 28.46 59.76 17.5"/><polygon class="cls-1" points="64.98 22.72 68.48 26.22 57.53 37.16 57.52 37.17 54.02 33.67 54.03 33.67 64.98 22.72"/><polygon class="cls-1" points="66.76 31.37 70.26 34.87 62.75 42.38 62.74 42.39 59.24 38.89 59.24 38.88 66.76 31.37"/><rect class="cls-1" x="69.87" y="28.07" width="2.43" height="4.95" transform="translate(-.78 59.21) rotate(-45)"/><rect class="cls-1" x="39.87" y="16.53" width="2.43" height="4.95" transform="translate(-1.41 34.62) rotate(-45)"/><rect class="cls-2" x="43.72" y="38.49" width="11.31" height="11.31" transform="translate(-16.75 47.84) rotate(-45)"/></g><g><path class="cls-1" d="M32.81,111.45c-3.56-6.32-7.31-11.79-11.26-16.41v16.41h-5.55v-25.05h4.58c1.35,1.34,3.21,3.55,5.58,6.63,1.59,2.08,3.52,4.8,5.79,8.15v-14.78h5.6v25.05h-4.73Z"/><path class="cls-1" d="M43.29,105.18c1.86,1.01,4.03,1.52,6.5,1.52,1.42,0,2.46-.23,3.1-.7,.52-.39,.78-.99,.78-1.77s-.37-1.44-1.1-1.96c-.69-.49-1.96-1.06-3.82-1.69-2.11-.79-3.6-1.56-4.46-2.3-1.42-1.24-2.13-2.84-2.13-4.79,0-2.2,.8-3.96,2.41-5.28,1.56-1.28,3.71-1.92,6.44-1.92s5.07,.55,7.1,1.65l-1.56,4.27c-1.66-.87-3.39-1.31-5.2-1.31-2.42,0-3.63,.73-3.63,2.18,0,.77,.4,1.42,1.2,1.92,.42,.3,1.41,.72,2.96,1.27,2.72,1.03,4.57,2.01,5.55,2.94,1.21,1.17,1.82,2.86,1.82,5.07s-.78,4.02-2.35,5.22c-1.62,1.24-3.99,1.86-7.12,1.86-1.87,0-3.58-.22-5.13-.67-1.21-.35-2.18-.74-2.89-1.16l1.52-4.31Z"/><path class="cls-1" d="M68.86,106.81c.96,.1,1.91,.15,2.87,.15,3.69,0,5.53-1.12,5.53-3.36,0-2.1-1.64-3.15-4.92-3.15h-3.49v6.36Zm2.7-10.58c1.69,0,2.91-.22,3.65-.66,.73-.44,1.1-1.14,1.1-2.11s-.38-1.65-1.14-2.07c-.72-.41-1.83-.61-3.34-.61-1.41,0-2.4,.04-2.98,.11v5.34h2.7Zm-8.09-9.29c2.27-.42,4.76-.63,7.48-.63,3.39,0,5.96,.49,7.71,1.48,2,1.15,3,2.97,3,5.45,0,1.97-.94,3.52-2.83,4.65,2.69,1,4.03,2.94,4.03,5.83,0,5.18-3.74,7.77-11.21,7.77-3.18,0-5.91-.24-8.17-.72v-23.82Z"/><path class="cls-1" d="M174.65,95.38v9.95c0,1.87-.54,3.35-1.62,4.44-.64,.64-1.51,1.09-2.62,1.37-.83,.21-1.85,.31-3.06,.31h-5.39c-.86,0-1.57-.08-2.13-.23-.61-.17-1.23-.48-1.88-.93-1.14,.62-2.55,.93-4.22,.93s-3.46-.55-5.17-1.65c-1.61,1.26-3.34,1.88-5.2,1.88h-3c-.78,0-1.6-.21-2.47-.63-.67,.28-1.16,.45-1.46,.5-.44,.09-.96,.13-1.56,.13h-5.37c-2.01,0-3.57-.31-4.67-.93-1.1,.62-2.66,.93-4.67,.93h-15.29c-1.18,0-2.19-.1-3.04-.31-1.09-.27-2.03-.73-2.83-1.4-.87-.73-1.5-1.74-1.9-3.02-.34-1.1-.51-2.32-.51-3.67,0-2.62,.61-4.83,1.84-6.63l4.06,1.73c-.97,1.7-1.46,3.2-1.46,4.5s.36,2.2,1.08,2.76c.62,.51,1.62,.76,3.02,.76h16.07c.58,0,.91-.39,.99-1.16v-7.83l5.28-1.82v9.61c.09,.8,.41,1.21,.99,1.21h6.38c.65,0,1.01-.44,1.1-1.33v-7.66l5.11-1.82v11.32c.89,.19,1.63,.26,2.24,.19,.86-.07,1.51-.41,1.94-1.04,.42-.67,.63-1.84,.63-3.48v-5.17l5.16-1.82v7.24c0,1.36-.14,2.55-.4,3.55,.84,.47,1.63,.7,2.37,.7,1,.03,1.72-.31,2.18-1.01,.44-.65,.65-1.81,.65-3.48v-5.17l5.13-1.82v8.96c0,.53,.04,.93,.13,1.18,.16,.45,.45,.67,.88,.67h6.42c.44,0,.73-.22,.89-.67,.08-.25,.13-.65,.13-1.18v-7.12l5.26-1.82Z"/></g></g><g><path class="cls-2" d="M120.34,136.27l.07-.11c1.23-.37,2.09-.94,2.09-1.25-.03-.33-.36-1.07-.7-1.66l.88-.98h.1c.44,.79,.67,1.72,.67,2.32,0,.48-.16,.95-.35,1.24-.34,.5-1.07,1.03-2.14,1.31l-.61-.88Z"/><g><path class="cls-2" d="M168.31,133.6c-.34-.35-.64-.66-.95-.86,.29-.07,.61-.13,.94-.13,.29,0,.62,.05,.95,.15-.31,.35-.63,.63-.94,.84m-7.4,.43c-.4-.19-.62-.44-.62-.73,0-.35,.34-.69,.62-.69,.26,0,.59,.33,.59,.66,0,.31-.23,.57-.59,.75m13.01-5.22l-1.14,.3v4.35c0,.34-.03,.56-.07,.72-.2,.1-.51,.12-.78,.12h-.79c-.78,0-1.46-.03-2-.18,.37-.33,.73-.67,1.15-1l.27-1.01-.03-.12c-.58-.34-1.33-.5-2.05-.5s-1.45,.16-1.98,.42l-.38,1.06,.03,.1c.45,.22,.9,.57,1.3,.97-.55,.19-1.15,.26-1.9,.26h-3.07c-.13,0-.25,0-.37,0,.24-.33,.36-.72,.36-1.17,0-.73-.62-1.65-1.46-1.65-.9,0-1.7,.99-1.7,1.94,0,.31,.12,.61,.31,.88h-32.88c-.72,0-.98-.19-.98-.85v-4.58l-.1-.06-1.13,.3v4.43c0,1.4,.65,1.98,1.94,1.98h32.65c.62,0,1.21-.1,1.72-.3,.45,.19,.96,.3,1.49,.3h2.95c1.37,0,2.24-.29,2.93-.71,.67,.44,1.54,.71,2.65,.71h.79c1.46,0,2.34-.42,2.34-2.11v-4.54l-.08-.06Z"/><polygon class="cls-2" points="175.2 135.52 175.2 129.11 176.34 128.81 176.44 128.86 176.41 135.34 175.28 135.58 175.2 135.52"/><path class="cls-2" d="M98.8,133.81c-.15,.03-.31,.04-.48,.04-.35,0-.78-.14-.87-.4,.12-.3,.68-.58,1.35-.74v1.1Zm20.35-2.02h-.1l-.98,.77c.32,.64,.6,1.29,.55,1.65-.15,.06-.59,.08-.94,.08h-16.73c-.75,0-.93-.16-.93-.67v-2.9l-.09-.03-1.13,.44v.44c-1.54,.5-2.35,1.39-2.35,2.2,0,.75,.67,1.25,1.74,1.25,.31,0,.6-.05,.91-.16,.32,.45,.86,.64,1.57,.64h16.76c.98,0,1.42-.12,1.74-.43,.35-.34,.52-.79,.52-1.3,0-.45-.23-1.3-.55-1.98"/><path class="cls-2" d="M120.34,136.27l.07-.11c1.23-.37,2.09-.94,2.09-1.25-.03-.33-.36-1.07-.7-1.66l.88-.98h.1c.44,.79,.67,1.72,.67,2.32,0,.48-.16,.95-.35,1.24-.34,.5-1.07,1.03-2.14,1.31l-.61-.88Z"/><polygon class="cls-2" points="98.97 128.44 98.53 129.09 97.58 128.44 96.95 129.35 97.96 130.05 98.39 129.38 99.35 130.05 99.98 129.12 98.97 128.44"/><polygon class="cls-2" points="119.13 136.21 118.69 136.87 117.73 136.21 117.11 137.12 118.11 137.82 118.56 137.15 119.51 137.82 120.13 136.89 119.13 136.21"/><polygon class="cls-2" points="161.38 129.06 160.93 129.71 159.98 129.06 159.36 129.97 160.37 130.66 160.8 129.99 161.76 130.66 162.38 129.74 161.38 129.06"/></g><polygon class="cls-2" points="25.7 134.5 25.7 135.62 21.5 135.62 21.5 129.4 25.65 129.4 25.65 130.5 22.86 130.5 22.86 131.9 25.27 131.9 25.12 133 22.86 133 22.86 134.5 25.7 134.5"/><path class="cls-2" d="M31.39,133.03l-.8-2.37-.78,2.37h1.57Zm2.31,2.5v.08h-1.45l-.5-1.49h-2.3l-.49,1.49h-1.43v-.08l2.24-6.14h1.7l2.24,6.14Z"/><polygon class="cls-2" points="40 134.44 40 135.62 35.82 135.62 35.82 129.4 37.18 129.4 37.18 134.44 40 134.44"/><polygon class="cls-2" points="49.79 134.5 49.79 135.62 45.59 135.62 45.59 129.4 49.74 129.4 49.74 130.5 46.95 130.5 46.95 131.9 49.36 131.9 49.2 133 46.95 133 46.95 134.5 49.79 134.5"/><polygon class="cls-2" points="63.56 130.56 61.62 130.56 61.62 135.62 60.26 135.62 60.26 130.56 58.27 130.56 58.27 129.4 63.56 129.4 63.56 130.56"/><path class="cls-2" d="M68.09,133.03l-.8-2.37-.78,2.37h1.57Zm2.31,2.5v.08h-1.45l-.5-1.49h-2.3l-.49,1.49h-1.43v-.08l2.24-6.14h1.7l2.24,6.14Z"/><polygon class="cls-2" points="76.37 130.56 74.43 130.56 74.43 135.62 73.07 135.62 73.07 130.56 71.08 130.56 71.08 129.4 76.37 129.4 76.37 130.56"/><polygon class="cls-2" points="82.69 134.5 82.69 135.62 78.48 135.62 78.48 129.4 82.64 129.4 82.64 130.5 79.85 130.5 79.85 131.9 82.25 131.9 82.1 133 79.85 133 79.85 134.5 82.69 134.5"/><path class="cls-2" d="M51.69,135l.61-.95c.66,.42,1.25,.57,1.75,.57,.71,0,1.17-.22,1.17-.69,0-.41-.25-.58-1.22-.95l-.22-.09c-1.04-.4-1.8-.8-1.8-1.9,0-1.23,1.21-1.73,2.32-1.73,.68,0,1.49,.22,2.2,.7l-.62,.94c-.58-.34-1-.53-1.58-.53-.64,0-.93,.24-.93,.57s.21,.51,1.16,.85l.21,.08c.94,.35,1.89,.71,1.89,1.98s-1.1,1.9-2.49,1.9c-1.07,0-1.85-.31-2.45-.75"/><path class="cls-2" d="M15.79,132.32h.59c.72,0,1.2-.24,1.2-.95,0-.6-.4-.88-1.06-.88h-.73v1.83Zm3.57,3.21v.08h-1.51l-1.54-2.27h-.52v2.27h-1.36v-6.22h2.08c1.7,0,2.47,.85,2.47,1.94,0,.84-.42,1.53-1.29,1.83l1.67,2.37Z"/></g></svg>