<?xml version="1.0" encoding="utf-8"?>
<!-- Generator: Adobe Illustrator 26.3.1, SVG Export Plug-In . SVG Version: 6.00 Build 0)  -->
<svg version="1.1" id="Layer_1" xmlns="http://www.w3.org/2000/svg" xmlns:xlink="http://www.w3.org/1999/xlink" x="0px" y="0px"
	 viewBox="0 0 143.3 110.3" style="enable-background:new 0 0 143.3 110.3;" xml:space="preserve">
<style type="text/css">
	.st0{fill:#323E48;}
	.st1{fill:#FFFFFF;}
	.st2{fill:none;stroke:#FFFFFF;stroke-width:0.25;stroke-miterlimit:10;stroke-dasharray:3;}
	.st3{opacity:0.5;}
	.st4{fill-rule:evenodd;clip-rule:evenodd;fill:#5B6670;}
	.st5{fill:#B09700;}
	.st6{fill:#5B6670;}
</style>
<g id="XMLID_00000101826247327361948160000003785490028378480293_">
	<g id="XMLID_00000142166062637401168140000002607445437274520767_">
		<g id="XMLID_00000148626558593880276170000013506803210536607675_">
			<g id="XMLID_00000136401780014175721830000007894841518158552473_">
				<polygon id="XMLID_00000143612828820144610850000017163732796833098681_" class="st5" points="59.1,26.1 62.5,29.5 62.5,35.4 
					56.1,29 				"/>
				
					<rect id="XMLID_00000058580363714820699000000016045059680527551913_" x="52.8" y="27.1" transform="matrix(0.7071 -0.7071 0.7071 0.7071 -7.7487 48.6881)" class="st5" width="4.2" height="13.1"/>
				<polygon id="XMLID_00000019677218299173281260000002489183775851901108_" class="st5" points="56.6,41.3 53.6,44.3 44.3,35 
					44.3,35 46.9,32.4 47.3,32 				"/>
				<polygon id="XMLID_00000074400860350167045990000012686492939841913242_" class="st5" points="52.2,45.7 49.2,48.7 39.9,39.4 
					39.9,39.4 42.9,36.4 42.9,36.4 				"/>
				<polygon id="XMLID_00000121269597370571257420000010598402389568966813_" class="st5" points="44.8,47.2 41.9,50.2 35.5,43.8 
					35.5,43.8 38.5,40.8 38.5,40.8 				"/>
				
					<rect id="XMLID_00000178200181717714440460000016922924895751356566_" x="43.4" y="49.9" transform="matrix(0.7071 -0.7071 0.7071 0.7071 -22.6487 47.1085)" class="st5" width="4.2" height="2.1"/>
			</g>
			
				<rect id="XMLID_00000049180427896712863010000011744573289078906031_" x="53.3" y="24.3" transform="matrix(0.7071 -0.7071 0.7071 0.7071 -1.6995 46.6015)" class="st5" width="4.2" height="2.1"/>
		</g>
		<g id="XMLID_00000003097492181468706540000009330380725589730471_">
			<g id="XMLID_00000099641417005946283000000014779211429616211878_">
				<polygon id="XMLID_00000114055693624243415310000016857640927245073597_" class="st6" points="40.5,57.4 37.1,60.8 31.1,60.8 
					37.5,54.4 				"/>
				
					<rect id="XMLID_00000045595442257979401610000014260387480437002129_" x="26.3" y="51.1" transform="matrix(0.7071 -0.7071 0.7071 0.7071 -28.027 38.8103)" class="st6" width="13.1" height="4.2"/>
				<polygon id="XMLID_00000021121370034733510220000000119280402840051865_" class="st6" points="25.2,54.9 22.3,52 31.6,42.7 
					31.6,42.7 34.1,45.2 34.5,45.6 				"/>
				<polygon id="XMLID_00000083800539282780195700000003550370104688431030_" class="st6" points="20.8,50.5 17.9,47.5 27.1,38.3 
					27.1,38.3 30.1,41.2 30.1,41.2 				"/>
				<polygon id="XMLID_00000001630445755296288700000005256045925542265524_" class="st6" points="19.3,43.2 16.3,40.2 22.7,33.8 
					22.7,33.8 25.7,36.8 25.7,36.8 				"/>
				
					<rect id="XMLID_00000024706210482514996910000003002374129687897984_" x="14.6" y="41.8" transform="matrix(0.7071 -0.7071 0.7071 0.7071 -26.4473 23.9103)" class="st6" width="2.1" height="4.2"/>
			</g>
			
				<rect id="XMLID_00000012439408456170923000000001909334270751044031_" x="40.2" y="51.6" transform="matrix(0.7071 -0.7071 0.7071 0.7071 -25.9147 44.8701)" class="st6" width="2.1" height="4.2"/>
		</g>
		<g id="XMLID_00000084491527221859384980000001421156423063798924_">
			<g id="XMLID_00000121265206493546572000000015803378657237045894_">
				<polygon id="XMLID_00000015320270789668014730000018150629026280757430_" class="st5" points="9.2,38.8 5.8,35.4 5.8,29.5 
					12.2,35.9 				"/>
				
					<rect id="XMLID_00000037675762623562793510000013206575524746772107_" x="11.3" y="24.6" transform="matrix(0.7071 -0.7071 0.7071 0.7071 -18.1383 18.6037)" class="st5" width="4.2" height="13.1"/>
				<polygon id="XMLID_00000010298858641683468860000010667108721966525619_" class="st5" points="11.7,23.6 14.7,20.6 23.9,29.9 
					23.9,29.9 21.4,32.5 21,32.9 				"/>
				<polygon id="XMLID_00000034812212562092307500000014393375371054129338_" class="st5" points="16.1,19.2 19.1,16.2 28.4,25.5 
					28.4,25.5 25.4,28.5 25.4,28.5 				"/>
				<polygon id="XMLID_00000165225007057524243930000011090447892394742680_" class="st5" points="23.4,17.7 26.4,14.7 32.8,21.1 
					32.8,21.1 29.8,24.1 29.8,24 				"/>
				
					<rect id="XMLID_00000127009579582800889770000005955616872967614143_" x="20.6" y="13" transform="matrix(0.7071 -0.7071 0.7071 0.7071 -3.2383 20.1833)" class="st5" width="4.2" height="2.1"/>
			</g>
			
				<rect id="XMLID_00000134247115636109414140000015739187151887581093_" x="10.8" y="38.5" transform="matrix(0.7071 -0.7071 0.7071 0.7071 -24.1875 20.6904)" class="st5" width="4.2" height="2.1"/>
		</g>
		<g id="XMLID_00000155140539111040287460000000476863861358502588_">
			<g id="XMLID_00000096771543214833070520000008395911211210634627_">
				<polygon id="XMLID_00000023998336996570592010000018283249588433709995_" class="st6" points="27.7,7.5 31.1,4.1 37,4.1 
					30.7,10.5 				"/>
				
					<rect id="XMLID_00000117656828744758260030000006714786509871818392_" x="28.8" y="9.6" transform="matrix(0.7071 -0.7071 0.7071 0.7071 2.1064 28.4004)" class="st6" width="13.1" height="4.2"/>
				<polygon id="XMLID_00000077322013055966055130000009598354282028394643_" class="st6" points="42.9,10 45.9,12.9 36.6,22.2 
					36.6,22.2 34.1,19.7 33.6,19.2 				"/>
				<polygon id="XMLID_00000019679535268491073470000009793316311717879732_" class="st6" points="47.3,14.4 50.3,17.3 41,26.6 
					41,26.6 38.1,23.7 38.1,23.7 				"/>
				<polygon id="XMLID_00000031169623614535269170000010665103396765158042_" class="st6" points="48.9,21.7 51.8,24.7 45.5,31.1 
					45.4,31.1 42.5,28.1 42.5,28.1 				"/>
				
					<rect id="XMLID_00000072240016664741999120000000999944358729278340_" x="51.5" y="18.9" transform="matrix(0.7071 -0.7071 0.7071 0.7071 0.5268 43.3004)" class="st6" width="2.1" height="4.2"/>
			</g>
			
				<rect id="XMLID_00000173842800615039651050000000406688205987819161_" x="26.1" y="9.1" transform="matrix(0.7071 -0.7071 0.7071 0.7071 -6.978824e-03 22.4393)" class="st6" width="2.1" height="4.2"/>
		</g>
		
			<rect id="XMLID_00000171709903079927610430000005127688082119271560_" x="29.3" y="27.8" transform="matrix(0.7071 -0.7071 0.7071 0.7071 -13.0253 33.6561)" class="st5" width="9.6" height="9.6"/>
	</g>
	<g id="XMLID_00000067214080724037822460000000874042676023852458_">
		<path id="XMLID_00000130642962678369874510000015578113182457062055_" class="st5" d="M9.9,104L9.9,104L8.7,104l-1.3-1.9H7v1.9
			H5.8v-5.2h1.7c1.4,0,2,0.7,2,1.6c0,0.7-0.4,1.3-1.1,1.5L9.9,104z M7,101.3h0.5c0.6,0,1-0.2,1-0.8c0-0.5-0.3-0.7-0.9-0.7H7V101.3z"
			/>
		<path id="XMLID_00000155109868216995492530000007902811020813228453_" class="st5" d="M15.2,103.1v0.9h-3.5v-5.2h3.4v0.9h-2.3v1.2
			h2l-0.1,0.9h-1.9v1.2H15.2z"/>
		<path id="XMLID_00000098921346283652234860000015839427945432152474_" class="st5" d="M21.8,104L21.8,104l-1.2,0.1l-0.4-1.2h-1.9
			l-0.4,1.2h-1.2V104l1.9-5.1H20L21.8,104z M19.9,101.9l-0.7-2l-0.6,2H19.9z"/>
		<path id="XMLID_00000170259911861569774230000015682643588151947948_" class="st5" d="M27.1,103.1v1h-3.5v-5.2h1.1v4.2H27.1z"/>
		<path id="XMLID_00000176010790302855626600000013214543345632665523_" class="st5" d="M35.2,103.1v0.9h-3.5v-5.2h3.4v0.9h-2.3v1.2
			h2l-0.1,0.9h-1.9v1.2H35.2z"/>
		<path id="XMLID_00000149361851258943670690000010127587157022676660_" class="st5" d="M36.7,103.5l0.5-0.8c0.5,0.4,1,0.5,1.4,0.5
			c0.6,0,1-0.2,1-0.6c0-0.3-0.2-0.5-1-0.8l-0.2-0.1c-0.9-0.3-1.5-0.7-1.5-1.6c0-1,1-1.4,1.9-1.4c0.6,0,1.2,0.2,1.8,0.6l-0.5,0.8
			c-0.5-0.3-0.8-0.4-1.3-0.4c-0.5,0-0.8,0.2-0.8,0.5c0,0.3,0.2,0.4,1,0.7l0.2,0.1c0.8,0.3,1.6,0.6,1.6,1.6c0,1.1-0.9,1.6-2.1,1.6
			C37.9,104.1,37.2,103.9,36.7,103.5z"/>
		<path id="XMLID_00000147209309367661410560000008985968841699411350_" class="st5" d="M46.6,99.8H45v4.2h-1.1v-4.2h-1.6v-1h4.4
			V99.8z"/>
		<path id="XMLID_00000148629727165881242660000002071409452504012211_" class="st5" d="M52.3,104L52.3,104l-1.2,0.1l-0.4-1.2h-1.9
			l-0.4,1.2h-1.2V104l1.9-5.1h1.4L52.3,104z M50.3,101.9l-0.7-2l-0.6,2H50.3z"/>
		<path id="XMLID_00000109733247726944346840000003460109834797365175_" class="st5" d="M57.2,99.8h-1.6v4.2h-1.1v-4.2h-1.6v-1h4.4
			V99.8z"/>
		<path id="XMLID_00000053503861914077706980000004359364773961696431_" class="st5" d="M62.5,103.1v0.9H59v-5.2h3.4v0.9h-2.3v1.2h2
			l-0.1,0.9h-1.9v1.2H62.5z"/>
	</g>
	<g id="XMLID_00000101786093250105829960000011621923464017658769_">
		<path id="XMLID_00000022527306352295600350000004081034364962261387_" class="st5" d="M76,98.1l-0.4,0.5l-0.8-0.5l-0.5,0.8
			l0.8,0.6l0.4-0.6l0.8,0.6l0.5-0.8L76,98.1z"/>
		<path id="XMLID_00000023973128556642590080000010886329988970772898_" class="st5" d="M92.7,100.9L92.7,100.9l-0.9,0.6
			c0.3,0.5,0.5,1.1,0.5,1.4c-0.1,0-0.5,0.1-0.8,0.1H77.6c0,0,0,0,0,0c-0.6,0-0.8-0.1-0.8-0.6V100l-0.1,0l-0.9,0.4v0.4
			c-1.3,0.4-1.9,1.2-1.9,1.8c0,0.6,0.6,1,1.4,1c0.3,0,0.5,0,0.8-0.1c0.3,0.4,0.7,0.5,1.3,0.5h13.9c0.8,0,1.2-0.1,1.4-0.4
			c0.3-0.3,0.4-0.7,0.4-1.1C93.1,102.1,93,101.4,92.7,100.9z M75.8,102.5c-0.1,0-0.3,0-0.4,0c-0.3,0-0.6-0.1-0.7-0.3
			c0.1-0.2,0.6-0.5,1.1-0.6V102.5z"/>
		<path id="XMLID_00000038389988487431929080000005241969390515008946_" class="st5" d="M92.7,104.5l-0.4,0.5l-0.8-0.5l-0.5,0.8
			l0.8,0.6l0.4-0.6l0.8,0.6l0.5-0.8L92.7,104.5z"/>
		<path id="XMLID_00000114768297518893821210000009277910967177040271_" class="st5" d="M93.7,104.6L93.7,104.6
			c1.1-0.4,1.8-0.9,1.8-1.1c0-0.3-0.3-0.9-0.6-1.4l0.7-0.8h0.1c0.4,0.7,0.6,1.4,0.6,1.9c0,0.4-0.1,0.8-0.3,1
			c-0.3,0.4-0.9,0.9-1.8,1.1L93.7,104.6z"/>
		<path id="XMLID_00000109721361846741319150000005236922642057882767_" class="st5" d="M138.1,98.4l-0.9,0.2v3.6
			c0,0.3,0,0.5-0.1,0.6c-0.2,0.1-0.4,0.1-0.6,0.1h-0.7c-0.6,0-1.2,0-1.7-0.2c0.3-0.3,0.6-0.6,1-0.8l0.2-0.8l0-0.1
			c-0.5-0.3-1.1-0.4-1.7-0.4s-1.2,0.1-1.6,0.3l-0.3,0.9l0,0.1c0.4,0.2,0.7,0.5,1.1,0.8c-0.5,0.2-1,0.2-1.6,0.2h-2.5
			c-0.1,0-0.2,0-0.3,0c0.2-0.3,0.3-0.6,0.3-1c0-0.6-0.5-1.4-1.2-1.4c-0.7,0-1.4,0.8-1.4,1.6c0,0.3,0.1,0.5,0.3,0.7H99
			c-0.6,0-0.8-0.2-0.8-0.7v-3.8l-0.1,0l-0.9,0.2v3.7c0,1.2,0.5,1.6,1.6,1.6h27.1c0.5,0,1-0.1,1.4-0.2c0.4,0.2,0.8,0.2,1.2,0.2h2.4
			c1.1,0,1.9-0.2,2.4-0.6c0.6,0.4,1.3,0.6,2.2,0.6c0,0,0,0,0,0h0.6c1.2,0,1.9-0.3,1.9-1.7L138.1,98.4L138.1,98.4z M127.3,102.7
			c-0.3-0.2-0.5-0.4-0.5-0.6c0-0.3,0.3-0.6,0.5-0.6c0.2,0,0.5,0.3,0.5,0.5C127.8,102.3,127.6,102.6,127.3,102.7z M133.5,102.4
			c-0.3-0.3-0.5-0.5-0.8-0.7c0.2-0.1,0.5-0.1,0.8-0.1c0.2,0,0.5,0,0.8,0.1C134,102,133.7,102.2,133.5,102.4z"/>
		<path id="XMLID_00000011712750809673980040000015985514426929492903_" class="st5" d="M127.7,98.6l-0.4,0.5l-0.8-0.5l-0.5,0.8
			l0.8,0.6l0.4-0.6l0.8,0.6l0.5-0.8L127.7,98.6z"/>
		<path id="XMLID_00000031900041999128579520000013931944566844413064_" class="st5" d="M139.2,103.9v-5.3l0.9-0.2l0.1,0l0,5.4
			L139.2,103.9L139.2,103.9z"/>
	</g>
	<path id="XMLID_00000118356631582553169210000005190386164512717498_" class="st5" d="M20.1,89.7c-3-5.4-6.2-10-9.5-13.9v13.9H5.8
		V68.4h3.9c1.1,1.1,2.7,3,4.7,5.6c1.3,1.8,3,4.1,4.9,6.9V68.4h4.7v21.2H20.1z"/>
	<path id="XMLID_00000151525871102636107370000010384946187844925825_" class="st5" d="M28.9,84.3c1.6,0.9,3.4,1.3,5.5,1.3
		c1.2,0,2.1-0.2,2.6-0.6c0.4-0.3,0.7-0.8,0.7-1.5c0-0.7-0.3-1.2-0.9-1.7c-0.6-0.4-1.7-0.9-3.2-1.4c-1.8-0.7-3.1-1.3-3.8-2
		c-1.2-1.1-1.8-2.4-1.8-4.1c0-1.9,0.7-3.4,2-4.5c1.3-1.1,3.1-1.6,5.5-1.6c2.3,0,4.3,0.5,6,1.4l-1.3,3.6c-1.4-0.7-2.9-1.1-4.4-1.1
		c-2.1,0-3.1,0.6-3.1,1.8c0,0.7,0.3,1.2,1,1.6c0.4,0.3,1.2,0.6,2.5,1.1c2.3,0.9,3.9,1.7,4.7,2.5c1,1,1.5,2.4,1.5,4.3
		c0,1.9-0.7,3.4-2,4.4c-1.4,1.1-3.4,1.6-6,1.6c-1.6,0-3-0.2-4.4-0.6c-1-0.3-1.8-0.6-2.5-1L28.9,84.3z"/>
	<path id="XMLID_00000000199810905384196000000015842762289309890738_" class="st5" d="M46.1,68.9c1.9-0.4,4-0.5,6.3-0.5
		c2.9,0,5.1,0.4,6.5,1.3c1.7,1,2.5,2.5,2.5,4.6c0,1.7-0.8,3-2.4,3.9c2.3,0.8,3.4,2.5,3.4,4.9c0,4.4-3.2,6.6-9.5,6.6
		c-2.7,0-5-0.2-6.9-0.6V68.9z M52.9,76.7c1.4,0,2.5-0.2,3.1-0.6c0.6-0.4,0.9-1,0.9-1.8c0-0.8-0.3-1.4-1-1.8
		c-0.6-0.3-1.6-0.5-2.8-0.5c-1.2,0-2,0-2.5,0.1v4.5H52.9z M50.6,85.7c0.8,0.1,1.6,0.1,2.4,0.1c3.1,0,4.7-0.9,4.7-2.8
		c0-1.8-1.4-2.7-4.2-2.7h-3V85.7z"/>
	<path id="XMLID_00000064348558363082103950000011614124374936081808_" class="st5" d="M140.4,76v8.4c0,1.6-0.5,2.8-1.4,3.8
		c-0.5,0.5-1.3,0.9-2.2,1.2c-0.7,0.2-1.6,0.3-2.6,0.3h-4.6c-0.7,0-1.3-0.1-1.8-0.2c-0.5-0.1-1-0.4-1.6-0.8c-1,0.5-2.2,0.8-3.6,0.8
		c-1.5,0-2.9-0.5-4.4-1.4c-1.4,1.1-2.8,1.6-4.4,1.6h-2.5c-0.7,0-1.4-0.2-2.1-0.5c-0.6,0.2-1,0.4-1.2,0.4c-0.4,0.1-0.8,0.1-1.3,0.1
		h-4.6c-1.7,0-3-0.3-4-0.8c-0.9,0.5-2.3,0.8-4,0.8h-13c-1,0-1.9-0.1-2.6-0.3c-0.9-0.2-1.7-0.6-2.4-1.2c-0.7-0.6-1.3-1.5-1.6-2.6
		c-0.3-0.9-0.4-2-0.4-3.1c0-2.2,0.5-4.1,1.6-5.6l3.4,1.5c-0.8,1.4-1.2,2.7-1.2,3.8c0,1.1,0.3,1.9,0.9,2.3c0.5,0.4,1.4,0.6,2.6,0.6
		H95c0.5,0,0.8-0.3,0.8-1v-6.6l4.5-1.5v8.2c0.1,0.7,0.4,1,0.8,1h5.4c0.5,0,0.9-0.4,0.9-1.1v-6.5l4.3-1.5v9.6
		c0.8,0.2,1.4,0.2,1.9,0.2c0.7-0.1,1.3-0.4,1.6-0.9c0.4-0.6,0.5-1.6,0.5-3v-4.4l4.4-1.5v6.1c0,1.2-0.1,2.2-0.3,3
		c0.7,0.4,1.4,0.6,2,0.6c0.8,0,1.5-0.3,1.8-0.9c0.4-0.5,0.6-1.5,0.6-3v-4.4l4.4-1.5v7.6c0,0.5,0,0.8,0.1,1c0.1,0.4,0.4,0.6,0.7,0.6
		h5.4c0.4,0,0.6-0.2,0.8-0.6c0.1-0.2,0.1-0.6,0.1-1v-6L140.4,76z"/>
	<path id="XMLID_00000007427295136021642960000004148532056152616886_" class="st5" d="M135.7,72.4V75l4.7-1.6v-2.5L135.7,72.4z"/>
	<path id="XMLID_00000059268906439270333320000016734588900670968459_" class="st5" d="M84.4,93.3v2.6l4.7-1.6v-2.5L84.4,93.3z"/>
</g>
</svg>
