<?xml version="1.0" encoding="utf-8"?>
<!-- Generator: Adobe Illustrator 26.3.1, SVG Export Plug-In . SVG Version: 6.00 Build 0)  -->
<svg version="1.1" id="Layer_1" xmlns="http://www.w3.org/2000/svg" xmlns:xlink="http://www.w3.org/1999/xlink" x="0px" y="0px"
	 viewBox="0 0 187.9 145" style="enable-background:new 0 0 187.9 145;" xml:space="preserve">
<style type="text/css">
	
		.st0{clip-path:url(#XMLID_00000176750405429899286100000004305960665191002508_);fill:none;stroke:#DADADA;stroke-width:2;stroke-miterlimit:10;}
	.st1{clip-path:url(#XMLID_00000176750405429899286100000004305960665191002508_);}
	
		.st2{clip-path:url(#XMLID_00000058583129379081033720000006572308556292368534_);fill:none;stroke:#DADADA;stroke-width:2;stroke-miterlimit:10;}
	
		.st3{clip-path:url(#XMLID_00000155861068249599604760000001724717857590218414_);fill:none;stroke:#DADADA;stroke-width:2;stroke-miterlimit:10;}
	
		.st4{clip-path:url(#XMLID_00000088854532507523981690000007865754476601222539_);fill:none;stroke:#DADADA;stroke-width:2;stroke-miterlimit:10;}
	.st5{clip-path:url(#XMLID_00000178196214013433683780000004863423651993372079_);}
	.st6{clip-path:url(#XMLID_00000145035658612647895450000017535154191566167682_);fill:#323E48;}
	.st7{clip-path:url(#XMLID_00000145035658612647895450000017535154191566167682_);}
	.st8{clip-path:url(#XMLID_00000095320957294512283550000011362596007623020169_);fill:#B09810;}
	
		.st9{clip-path:url(#XMLID_00000145035658612647895450000017535154191566167682_);fill:none;stroke:#5C6771;stroke-width:2;stroke-miterlimit:10;}
	
		.st10{clip-path:url(#XMLID_00000116943305869459932370000009451326348680973246_);fill:none;stroke:#5C6771;stroke-width:2;stroke-miterlimit:10;}
	
		.st11{clip-path:url(#XMLID_00000051347930626380623210000010164379701505155982_);fill:none;stroke:#5C6771;stroke-width:2;stroke-miterlimit:10;}
	
		.st12{clip-path:url(#XMLID_00000029756391850101611090000017525139863242270646_);fill:none;stroke:#5C6771;stroke-width:2;stroke-miterlimit:10;}
	
		.st13{clip-path:url(#XMLID_00000029756391850101611090000017525139863242270646_);fill:none;stroke:#B09810;stroke-width:2;stroke-miterlimit:10;}
	.st14{clip-path:url(#XMLID_00000068653666669072924820000006016134888749559936_);}
	.st15{clip-path:url(#XMLID_00000071522585132711740030000007307103285431643009_);fill:#B09810;}
	.st16{clip-path:url(#XMLID_00000111176381489101114060000014726460680283653007_);fill:#B09810;}
	.st17{clip-path:url(#XMLID_00000111176381489101114060000014726460680283653007_);fill:none;stroke:#B09810;stroke-width:0.5;}
	.st18{clip-path:url(#XMLID_00000111176381489101114060000014726460680283653007_);fill:#323E48;}
	.st19{clip-path:url(#XMLID_00000032623880243757050340000002646437745357160585_);}
	.st20{clip-path:url(#XMLID_00000068653666669072924820000006016134888749559936_);fill:#B09810;}
	.st21{clip-path:url(#XMLID_00000068653666669072924820000006016134888749559936_);fill:#FFFFFF;}
	.st22{clip-path:url(#XMLID_00000068653666669072924820000006016134888749559936_);fill:#5C6771;}
	.st23{clip-path:url(#XMLID_00000084511688149791927100000000670158756082285220_);fill:#DADADA;}
	.st24{clip-path:url(#XMLID_00000068653666669072924820000006016134888749559936_);fill:#DADADA;}
	.st25{clip-path:url(#XMLID_00000068653666669072924820000006016134888749559936_);fill:none;stroke:#B09810;stroke-width:0.5;}
	.st26{clip-path:url(#XMLID_00000085966472890671924090000009547243781865519009_);}
	.st27{clip-path:url(#XMLID_00000168814467529287493960000011335600660230870968_);}
	.st28{clip-path:url(#XMLID_00000103984902300869435960000007342680683621218193_);fill:#B09810;}
	.st29{clip-path:url(#XMLID_00000035494075561992090730000009920930524787340931_);fill:#B09810;}
	.st30{clip-path:url(#XMLID_00000035494075561992090730000009920930524787340931_);fill:none;stroke:#B09810;stroke-width:0.5;}
	.st31{clip-path:url(#XMLID_00000035494075561992090730000009920930524787340931_);fill:#323E48;}
	.st32{clip-path:url(#XMLID_00000157999128970041539950000010955895939081173398_);}
	.st33{clip-path:url(#XMLID_00000168814467529287493960000011335600660230870968_);fill:#B09810;}
	.st34{clip-path:url(#XMLID_00000168814467529287493960000011335600660230870968_);fill:#FFFFFF;}
	.st35{clip-path:url(#XMLID_00000168814467529287493960000011335600660230870968_);fill:#5C6771;}
	.st36{clip-path:url(#XMLID_00000168814467529287493960000011335600660230870968_);fill:none;stroke:#B09810;stroke-width:0.5;}
	.st37{clip-path:url(#XMLID_00000008845212406657559760000006304791811458284479_);fill:#FFFFFF;}
	
		.st38{clip-path:url(#XMLID_00000008845212406657559760000006304791811458284479_);fill:none;stroke:#B09810;stroke-width:0.25;stroke-miterlimit:10;}
	
		.st39{clip-path:url(#XMLID_00000008845212406657559760000006304791811458284479_);fill:none;stroke:#5C6771;stroke-width:0.75;stroke-miterlimit:10;}
	.st40{clip-path:url(#XMLID_00000007423197610015078340000016172014551354591163_);}
	.st41{clip-path:url(#XMLID_00000119092400995915599880000010155601004384393373_);fill:#B09810;}
	.st42{clip-path:url(#XMLID_00000131366771822890752160000015470104636566423179_);fill:#B09810;}
	.st43{clip-path:url(#XMLID_00000131366771822890752160000015470104636566423179_);fill:none;stroke:#B09810;stroke-width:0.5;}
	.st44{clip-path:url(#XMLID_00000131366771822890752160000015470104636566423179_);fill:#323E48;}
	.st45{clip-path:url(#XMLID_00000007423197610015078340000016172014551354591163_);fill:#5C6771;}
	.st46{clip-path:url(#XMLID_00000088099948666122465520000005170065579800082614_);}
	.st47{clip-path:url(#XMLID_00000007423197610015078340000016172014551354591163_);fill:#B09810;}
	.st48{clip-path:url(#XMLID_00000007423197610015078340000016172014551354591163_);fill:#FFFFFF;}
	.st49{clip-path:url(#XMLID_00000140013318048463443870000005662378861191125648_);fill:#DADADA;}
	.st50{clip-path:url(#XMLID_00000007423197610015078340000016172014551354591163_);fill:none;stroke:#B09810;stroke-width:0.5;}
	.st51{clip-path:url(#XMLID_00000101806143553429683470000012891586084280619661_);}
	.st52{clip-path:url(#XMLID_00000132806778651936430370000004381065538398400129_);}
	.st53{clip-path:url(#XMLID_00000000204257732316178540000000058702340744995735_);fill:#B09810;}
	.st54{clip-path:url(#XMLID_00000066504388914043178980000014269429575295674764_);fill:#B09810;}
	.st55{clip-path:url(#XMLID_00000066504388914043178980000014269429575295674764_);fill:none;stroke:#B09810;stroke-width:0.5;}
	.st56{clip-path:url(#XMLID_00000066504388914043178980000014269429575295674764_);fill:#323E48;}
	.st57{clip-path:url(#XMLID_00000173873715919334741770000012400120989940936832_);}
	.st58{clip-path:url(#XMLID_00000132806778651936430370000004381065538398400129_);fill:#B09810;}
	.st59{clip-path:url(#XMLID_00000132806778651936430370000004381065538398400129_);fill:#FFFFFF;}
	.st60{clip-path:url(#XMLID_00000047040728419448740190000005472991964342130833_);}
	.st61{clip-path:url(#XMLID_00000108281026427634627760000002676017525407165616_);}
	.st62{clip-path:url(#XMLID_00000121963141231976643220000011958691435526380706_);}
	.st63{clip-path:url(#XMLID_00000119819412431120256890000007154226126968426888_);}
	.st64{clip-path:url(#XMLID_00000110466954156219306850000013653372326142613408_);}
	.st65{clip-path:url(#XMLID_00000014629172462492422360000002011500050045014695_);}
	.st66{clip-path:url(#XMLID_00000178892780470998420400000010558449125875022765_);fill:#B09810;}
	.st67{clip-path:url(#XMLID_00000034074329017513385540000013080200769882754193_);fill:#B09810;}
	.st68{clip-path:url(#XMLID_00000034074329017513385540000013080200769882754193_);fill:none;stroke:#B09810;stroke-width:0.5;}
	.st69{clip-path:url(#XMLID_00000034074329017513385540000013080200769882754193_);fill:#323E48;}
	.st70{clip-path:url(#XMLID_00000156581189703107576680000001801589521750518163_);}
	.st71{clip-path:url(#XMLID_00000096781736615993585000000003759519008671946161_);}
	.st72{clip-path:url(#XMLID_00000042723035228790687640000002788261290817691807_);}
	.st73{clip-path:url(#XMLID_00000142134915088585819650000000249692064881497016_);}
	.st74{clip-path:url(#XMLID_00000080891850525543638440000004573937312211656369_);}
	.st75{clip-path:url(#XMLID_00000033369142819330536890000004084537850409375149_);}
	.st76{clip-path:url(#XMLID_00000075867711433634680540000003724107030480664979_);}
	.st77{clip-path:url(#XMLID_00000165229901550145299830000014199164040855333035_);}
	.st78{clip-path:url(#XMLID_00000177468886310208097100000007347904879473054340_);fill:#FFFFFF;}
	.st79{clip-path:url(#XMLID_00000177468886310208097100000007347904879473054340_);fill:#B09810;}
	.st80{clip-path:url(#XMLID_00000177468886310208097100000007347904879473054340_);}
	.st81{clip-path:url(#XMLID_00000012454526317638774690000009362030021508083372_);fill:#B09810;}
	.st82{clip-path:url(#XMLID_00000058572386296799420890000011533110842426929331_);fill:#B09810;}
	.st83{clip-path:url(#XMLID_00000030482125015171279760000007512275994123082624_);fill:#B09810;}
	.st84{clip-path:url(#XMLID_00000043425432923993752170000010353096867469971113_);fill:#B09810;}
	.st85{clip-path:url(#XMLID_00000075844510117343786850000016637993990564473751_);fill:#FFFFFF;}
	
		.st86{clip-path:url(#XMLID_00000022547076375530227740000017796030175989351326_);fill:none;stroke:#5C6771;stroke-width:2;stroke-miterlimit:10;}
	
		.st87{clip-path:url(#XMLID_00000177468886310208097100000007347904879473054340_);fill:none;stroke:#5C6771;stroke-width:2;stroke-miterlimit:10;}
	
		.st88{clip-path:url(#XMLID_00000037658765766168998060000013278998908894741381_);fill:none;stroke:#5C6771;stroke-width:2;stroke-miterlimit:10;}
	
		.st89{clip-path:url(#XMLID_00000049212786205365683910000012215174525285319065_);fill:none;stroke:#B09810;stroke-width:2;stroke-miterlimit:10;}
	.st90{fill:#DADADA;}
	.st91{clip-path:url(#XMLID_00000084525004686266917190000006875230358569450401_);}
	.st92{fill:#B09810;}
	.st93{fill:#FFFFFF;}
	.st94{clip-path:url(#XMLID_00000099652782556066683410000004022990373048993195_);fill:#323E48;}
	.st95{clip-path:url(#XMLID_00000150095951958021148180000007582738523759048887_);}
	.st96{fill:none;stroke:#5C6771;stroke-width:0.75;stroke-miterlimit:10;}
	.st97{fill:none;stroke:#B09810;stroke-width:0.25;stroke-miterlimit:10;}
	.st98{clip-path:url(#XMLID_00000147218977759993804060000014012058375789591168_);}
	.st99{clip-path:url(#XMLID_00000119087724155324683370000013583983180948817802_);}
	.st100{clip-path:url(#XMLID_00000163066361813419044240000013328208136517401512_);}
	.st101{clip-path:url(#XMLID_00000182497863886639572880000000294620896227272598_);}
	.st102{clip-path:url(#XMLID_00000064354744148699014640000015714273015966433470_);}
	.st103{clip-path:url(#XMLID_00000159469904214867118260000006748095583645879434_);}
	.st104{clip-path:url(#XMLID_00000121979117566783443970000015489134419012101041_);}
	.st105{clip-path:url(#XMLID_00000062874950633522284310000017672277253381026488_);}
	.st106{clip-path:url(#XMLID_00000099624111334958597480000014014509731641749387_);}
	.st107{clip-path:url(#XMLID_00000071529405216614617160000016955251371220189314_);}
	.st108{clip-path:url(#XMLID_00000109732473130393416980000011137588468828705468_);}
	.st109{clip-path:url(#XMLID_00000158748332583520367540000010009282563458279307_);}
	.st110{clip-path:url(#XMLID_00000181797452859579910670000012021095452144995006_);}
	.st111{clip-path:url(#XMLID_00000174583701600254433830000018383419490656825759_);}
	.st112{clip-path:url(#XMLID_00000059280190059771565140000012076712447752572815_);fill:#B09810;}
	.st113{clip-path:url(#XMLID_00000096061701341095423260000001120583374728949653_);fill:#B09810;}
	.st114{clip-path:url(#XMLID_00000054982209127360738510000007060231465184643254_);fill:#B09810;}
	.st115{clip-path:url(#XMLID_00000093161487609803479680000009319148111541923235_);fill:#B09810;}
</style>
<g id="XMLID_00000052814319988211090660000007871116869849356725_">
	<g id="XMLID_00000081610463370453425890000000451510009521197206_">
		<g id="XMLID_00000029756671302088133340000014236162204878437563_">
			<polygon id="XMLID_00000034786155117339297690000004222312294585030040_" class="st93" points="169.3,91.3 169.3,94.3 
				174.9,92.4 174.9,89.5 			"/>
			<polygon id="XMLID_00000119826892189119925350000014620473809597785253_" class="st93" points="108.9,115.9 108.9,119 
				114.4,117.1 114.4,114.1 			"/>
		</g>
		<g id="XMLID_00000149343683800553034190000001818888203830593720_">
			<polygon id="XMLID_00000130619464388021422990000007771198209617567411_" class="st93" points="78.8,36.5 82.8,40.5 82.8,47.5 
				75.3,40 			"/>
			
				<rect id="XMLID_00000060727842859942538430000007272355803320775087_" x="71.4" y="37.7" transform="matrix(0.7071 -0.7071 0.7071 0.7071 -10.5309 65.5602)" class="st93" width="5" height="15.5"/>
			<polygon id="XMLID_00000128474800530348023060000016450638674196520355_" class="st93" points="75.9,54.4 72.4,57.9 61.4,47 
				61.4,47 64.4,44 64.9,43.5 			"/>
			<polygon id="XMLID_00000066517220480951496250000016274214544281865629_" class="st93" points="70.7,59.7 67.2,63.2 56.2,52.2 
				56.2,52.2 59.7,48.7 59.7,48.7 			"/>
			<polygon id="XMLID_00000178901223228794096770000006773620705940711833_" class="st93" points="62,61.4 58.5,64.9 51,57.4 
				51,57.4 54.5,53.9 54.5,53.9 			"/>
			
				<rect id="XMLID_00000101069054663806365260000010405859133722737029_" x="60.4" y="64.5" transform="matrix(0.7071 -0.7071 0.7071 0.7071 -28.094 63.6983)" class="st93" width="5" height="2.4"/>
			
				<rect id="XMLID_00000059992426757395689020000014920575464774234009_" x="72" y="34.4" transform="matrix(0.7071 -0.7071 0.7071 0.7071 -3.4005 63.1008)" class="st93" width="5" height="2.4"/>
			<polygon id="XMLID_00000021818631440988895530000010710722473606566574_" class="st93" points="56.9,73.4 52.9,77.5 45.9,77.5 
				53.4,69.9 			"/>
			<polygon id="XMLID_00000140734705604265769410000013078604984249755800_" class="st93" points="44.1,75.8 40.6,73.1 51.6,64.8 
				55.1,67.4 			"/>
			<polygon id="XMLID_00000073684519853727794310000011221741893104909732_" class="st93" points="38.9,70.5 35.4,67 46.4,56.1 
				46.4,56.1 49.4,59.1 49.9,59.6 			"/>
			<polygon id="XMLID_00000003062952942727219430000017648980470846701711_" class="st93" points="33.7,65.3 30.2,61.8 41.2,50.9 
				41.2,50.9 44.7,54.4 44.7,54.4 			"/>
			<polygon id="XMLID_00000106132472855188694940000015807163521764547495_" class="st93" points="31.9,56.7 28.4,53.2 35.9,45.7 
				35.9,45.6 39.4,49.1 39.4,49.2 			"/>
			
				<rect id="XMLID_00000067955210030387723020000015698813959749145756_" x="26.4" y="55" transform="matrix(0.7071 -0.7071 0.7071 0.7071 -32.5716 36.3538)" class="st93" width="2.4" height="5"/>
			
				<rect id="XMLID_00000000912512254131528350000002614414312222718142_" x="56.5" y="66.6" transform="matrix(0.7071 -0.7071 0.7071 0.7071 -31.9438 61.0597)" class="st93" width="2.4" height="5"/>
			<polygon id="XMLID_00000166653163597630274450000012498052021613614506_" class="st93" points="20,51.6 16,47.5 16,40.5 
				23.5,48.1 			"/>
			
				<rect id="XMLID_00000141420931576043873250000008586249616192351391_" x="22.5" y="34.8" transform="matrix(0.7071 -0.7071 0.7071 0.7071 -22.7776 30.0989)" class="st93" width="5" height="15.5"/>
			<polygon id="XMLID_00000019671397290720661920000004044113630200613795_" class="st93" points="22.9,33.6 26.4,30.1 37.4,41 
				37.4,41.1 34.4,44 33.9,44.6 			"/>
			<polygon id="XMLID_00000041255476710736399830000005282021264039415426_" class="st93" points="28.1,28.4 31.6,24.9 42.6,35.8 
				42.6,35.8 39.1,39.3 39.1,39.3 			"/>
			<polygon id="XMLID_00000018942795878604375900000001180434738636191673_" class="st93" points="36.8,26.6 40.3,23.1 47.8,30.6 
				47.8,30.6 44.3,34.1 44.3,34.1 			"/>
			
				<rect id="XMLID_00000005959970995555836090000002752491218392807088_" x="33.5" y="21.1" transform="matrix(0.7071 -0.7071 0.7071 0.7071 -5.2145 31.961)" class="st93" width="5" height="2.4"/>
			
				<rect id="XMLID_00000061435658584933221760000003636443291650636203_" x="21.9" y="51.2" transform="matrix(0.7071 -0.7071 0.7071 0.7071 -29.9081 32.5587)" class="st93" width="5" height="2.4"/>
			<polygon id="XMLID_00000023281931852624470080000001380551420960030893_" class="st93" points="41.8,14.6 45.8,10.6 52.8,10.6 
				45.3,18.1 			"/>
			
				<rect id="XMLID_00000003796641926237174430000001896112796456876731_" x="43.1" y="17" transform="matrix(0.7071 -0.7071 0.7071 0.7071 1.0852 41.6464)" class="st93" width="15.5" height="5"/>
			<polygon id="XMLID_00000000903679918206435480000009403757335538170008_" class="st93" points="59.8,17.5 63.3,21 52.3,32 
				52.3,32 49.3,29 48.8,28.5 			"/>
			<polygon id="XMLID_00000164473336633171010680000000761935215220834718_" class="st93" points="65,22.7 68.5,26.2 57.5,37.2 
				57.5,37.2 54,33.7 54,33.7 			"/>
			<polygon id="XMLID_00000097498275316833348310000008711515436864309655_" class="st93" points="66.8,31.4 70.3,34.9 62.7,42.4 
				62.7,42.4 59.2,38.9 59.2,38.9 			"/>
			
				<rect id="XMLID_00000016064125397074528430000000945702530568253825_" x="69.9" y="28.1" transform="matrix(0.7071 -0.7071 0.7071 0.7071 -0.7766 59.2097)" class="st93" width="2.4" height="5"/>
			
				<rect id="XMLID_00000054252976384506660050000009920141089625459386_" x="39.9" y="16.5" transform="matrix(0.7071 -0.7071 0.7071 0.7071 -1.4057 34.62)" class="st93" width="2.4" height="5"/>
			
				<rect id="XMLID_00000111182949168475456480000007737032411101072768_" x="43.7" y="38.5" transform="matrix(0.7071 -0.7071 0.7071 0.7071 -16.7507 47.8418)" class="st92" width="11.3" height="11.3"/>
		</g>
		<g id="XMLID_00000028291002296651050890000013148627053632352910_">
			<path id="XMLID_00000129199058639491406880000016015754807782042266_" class="st93" d="M32.8,111.5c-3.6-6.3-7.3-11.8-11.3-16.4
				v16.4H16v-25h4.6c1.4,1.3,3.2,3.5,5.6,6.6c1.6,2.1,3.5,4.8,5.8,8.2V86.4h5.6v25H32.8z"/>
			<path id="XMLID_00000031892718595934166320000016995803453034788748_" class="st93" d="M43.3,105.2c1.9,1,4,1.5,6.5,1.5
				c1.4,0,2.5-0.2,3.1-0.7c0.5-0.4,0.8-1,0.8-1.8c0-0.8-0.4-1.4-1.1-2c-0.7-0.5-2-1.1-3.8-1.7c-2.1-0.8-3.6-1.6-4.5-2.3
				c-1.4-1.2-2.1-2.8-2.1-4.8c0-2.2,0.8-4,2.4-5.3c1.6-1.3,3.7-1.9,6.4-1.9c2.7,0,5.1,0.5,7.1,1.6l-1.6,4.3
				c-1.7-0.9-3.4-1.3-5.2-1.3c-2.4,0-3.6,0.7-3.6,2.2c0,0.8,0.4,1.4,1.2,1.9c0.4,0.3,1.4,0.7,3,1.3c2.7,1,4.6,2,5.6,2.9
				c1.2,1.2,1.8,2.9,1.8,5.1c0,2.3-0.8,4-2.3,5.2c-1.6,1.2-4,1.9-7.1,1.9c-1.9,0-3.6-0.2-5.1-0.7c-1.2-0.4-2.2-0.7-2.9-1.2
				L43.3,105.2z"/>
			<path id="XMLID_00000183959360344611120340000008898898985627156664_" class="st93" d="M68.9,106.8c1,0.1,1.9,0.1,2.9,0.1
				c3.7,0,5.5-1.1,5.5-3.4c0-2.1-1.6-3.1-4.9-3.1h-3.5V106.8z M71.6,96.2c1.7,0,2.9-0.2,3.7-0.7c0.7-0.4,1.1-1.1,1.1-2.1
				c0-1-0.4-1.6-1.1-2.1c-0.7-0.4-1.8-0.6-3.3-0.6c-1.4,0-2.4,0-3,0.1v5.3H71.6z M63.5,86.9c2.3-0.4,4.8-0.6,7.5-0.6
				c3.4,0,6,0.5,7.7,1.5c2,1.2,3,3,3,5.4c0,2-0.9,3.5-2.8,4.6c2.7,1,4,2.9,4,5.8c0,5.2-3.7,7.8-11.2,7.8c-3.2,0-5.9-0.2-8.2-0.7
				V86.9z"/>
			<path id="XMLID_00000030486694047267453960000012761401325964551608_" class="st93" d="M174.6,95.4v9.9c0,1.9-0.5,3.4-1.6,4.4
				c-0.6,0.6-1.5,1.1-2.6,1.4c-0.8,0.2-1.9,0.3-3.1,0.3H162c-0.9,0-1.6-0.1-2.1-0.2c-0.6-0.2-1.2-0.5-1.9-0.9
				c-1.1,0.6-2.5,0.9-4.2,0.9c-1.7,0-3.5-0.5-5.2-1.6c-1.6,1.3-3.3,1.9-5.2,1.9h-3c-0.8,0-1.6-0.2-2.5-0.6c-0.7,0.3-1.2,0.5-1.5,0.5
				c-0.4,0.1-1,0.1-1.6,0.1h-5.4c-2,0-3.6-0.3-4.7-0.9c-1.1,0.6-2.7,0.9-4.7,0.9h-15.3c-1.2,0-2.2-0.1-3-0.3c-1.1-0.3-2-0.7-2.8-1.4
				c-0.9-0.7-1.5-1.7-1.9-3c-0.3-1.1-0.5-2.3-0.5-3.7c0-2.6,0.6-4.8,1.8-6.6l4.1,1.7c-1,1.7-1.5,3.2-1.5,4.5c0,1.3,0.4,2.2,1.1,2.8
				c0.6,0.5,1.6,0.8,3,0.8h16.1c0.6,0,0.9-0.4,1-1.2v-7.8l5.3-1.8v9.6c0.1,0.8,0.4,1.2,1,1.2h6.4c0.6,0,1-0.4,1.1-1.3v-7.7l5.1-1.8
				v11.3c0.9,0.2,1.6,0.3,2.2,0.2c0.9-0.1,1.5-0.4,1.9-1c0.4-0.7,0.6-1.8,0.6-3.5v-5.2l5.2-1.8v7.2c0,1.4-0.1,2.5-0.4,3.5
				c0.8,0.5,1.6,0.7,2.4,0.7c1,0,1.7-0.3,2.2-1c0.4-0.6,0.7-1.8,0.7-3.5v-5.2l5.1-1.8v9c0,0.5,0,0.9,0.1,1.2
				c0.2,0.5,0.4,0.7,0.9,0.7h6.4c0.4,0,0.7-0.2,0.9-0.7c0.1-0.3,0.1-0.6,0.1-1.2v-7.1L174.6,95.4z"/>
		</g>
	</g>
</g>
<g id="XMLID_00000157284567352430370320000004502110533425259962_">
	<path id="XMLID_00000011739788619048735700000011073360575598217391_" class="st92" d="M120.3,136.3l0.1-0.1
		c1.2-0.4,2.1-0.9,2.1-1.2c0-0.3-0.4-1.1-0.7-1.7l0.9-1h0.1c0.4,0.8,0.7,1.7,0.7,2.3c0,0.5-0.2,0.9-0.4,1.2c-0.3,0.5-1.1,1-2.1,1.3
		L120.3,136.3z"/>
	<g id="XMLID_00000111176885368151905620000004026292418300023710_">
		<path id="XMLID_00000018918002240519665000000011606060702308036245_" class="st92" d="M168.3,133.6c-0.3-0.3-0.6-0.7-1-0.9
			c0.3-0.1,0.6-0.1,0.9-0.1c0.3,0,0.6,0.1,0.9,0.1C168.9,133.1,168.6,133.4,168.3,133.6 M160.9,134c-0.4-0.2-0.6-0.4-0.6-0.7
			c0-0.3,0.3-0.7,0.6-0.7c0.3,0,0.6,0.3,0.6,0.7C161.5,133.6,161.3,133.8,160.9,134 M173.9,128.8l-1.1,0.3v4.4c0,0.3,0,0.6-0.1,0.7
			c-0.2,0.1-0.5,0.1-0.8,0.1h-0.8c-0.8,0-1.5,0-2-0.2c0.4-0.3,0.7-0.7,1.2-1l0.3-1l0-0.1c-0.6-0.3-1.3-0.5-2.1-0.5
			c-0.7,0-1.4,0.2-2,0.4l-0.4,1.1l0,0.1c0.5,0.2,0.9,0.6,1.3,1c-0.5,0.2-1.2,0.3-1.9,0.3h-3.1c-0.1,0-0.3,0-0.4,0
			c0.2-0.3,0.4-0.7,0.4-1.2c0-0.7-0.6-1.6-1.5-1.6c-0.9,0-1.7,1-1.7,1.9c0,0.3,0.1,0.6,0.3,0.9h-32.9c-0.7,0-1-0.2-1-0.8v-4.6
			l-0.1-0.1l-1.1,0.3v4.4c0,1.4,0.6,2,1.9,2h32.6c0.6,0,1.2-0.1,1.7-0.3c0.5,0.2,1,0.3,1.5,0.3h3c1.4,0,2.2-0.3,2.9-0.7
			c0.7,0.4,1.5,0.7,2.7,0.7h0h0.8c1.5,0,2.3-0.4,2.3-2.1L173.9,128.8L173.9,128.8z"/>
		<polygon id="XMLID_00000080900677840849059950000015889778411865616558_" class="st92" points="175.2,135.5 175.2,129.1 
			176.3,128.8 176.4,128.9 176.4,135.3 175.3,135.6 		"/>
		<path id="XMLID_00000183240390652525245310000015573967680144531598_" class="st92" d="M98.8,133.8c-0.1,0-0.3,0-0.5,0
			c-0.4,0-0.8-0.1-0.9-0.4c0.1-0.3,0.7-0.6,1.4-0.7V133.8z M119.2,131.8h-0.1l-1,0.8c0.3,0.6,0.6,1.3,0.5,1.7
			c-0.1,0.1-0.6,0.1-0.9,0.1H101h0c-0.7,0-0.9-0.2-0.9-0.7v-2.9l-0.1,0l-1.1,0.4v0.4c-1.5,0.5-2.4,1.4-2.4,2.2
			c0,0.7,0.7,1.2,1.7,1.2c0.3,0,0.6,0,0.9-0.2c0.3,0.5,0.9,0.6,1.6,0.6h16.8c1,0,1.4-0.1,1.7-0.4c0.3-0.3,0.5-0.8,0.5-1.3
			C119.7,133.3,119.5,132.5,119.2,131.8"/>
		<path id="XMLID_00000141427444043421381370000003763759665584047293_" class="st92" d="M120.3,136.3l0.1-0.1
			c1.2-0.4,2.1-0.9,2.1-1.2c0-0.3-0.4-1.1-0.7-1.7l0.9-1h0.1c0.4,0.8,0.7,1.7,0.7,2.3c0,0.5-0.2,0.9-0.4,1.2c-0.3,0.5-1.1,1-2.1,1.3
			L120.3,136.3z"/>
		<polygon id="XMLID_00000026877988774858542180000008191332356193558176_" class="st92" points="99,128.4 98.5,129.1 97.6,128.4 
			97,129.3 98,130 98.4,129.4 99.3,130 100,129.1 		"/>
		<polygon id="XMLID_00000129189012526627842720000012037419181028518329_" class="st92" points="119.1,136.2 118.7,136.9 
			117.7,136.2 117.1,137.1 118.1,137.8 118.6,137.2 119.5,137.8 120.1,136.9 		"/>
		<polygon id="XMLID_00000006702460222875103290000001782662309615455872_" class="st92" points="161.4,129.1 160.9,129.7 
			160,129.1 159.4,130 160.4,130.7 160.8,130 161.8,130.7 162.4,129.7 		"/>
	</g>
	<polygon id="XMLID_00000004547419912152017590000008764817752372832954_" class="st92" points="25.7,134.5 25.7,135.6 21.5,135.6 
		21.5,129.4 25.7,129.4 25.7,130.5 22.9,130.5 22.9,131.9 25.3,131.9 25.1,133 22.9,133 22.9,134.5 	"/>
	<path id="XMLID_00000053523802415600448300000011789741596653744532_" class="st92" d="M31.4,133l-0.8-2.4l-0.8,2.4H31.4z
		 M33.7,135.5L33.7,135.5l-1.4,0.1l-0.5-1.5h-2.3l-0.5,1.5h-1.4v-0.1l2.2-6.1h1.7L33.7,135.5z"/>
	<polygon id="XMLID_00000062880353657131863710000005215651746586768266_" class="st92" points="40,134.4 40,135.6 35.8,135.6 
		35.8,129.4 37.2,129.4 37.2,134.4 	"/>
	<polygon id="XMLID_00000087393462648796690420000001790715635636291992_" class="st92" points="49.8,134.5 49.8,135.6 45.6,135.6 
		45.6,129.4 49.7,129.4 49.7,130.5 46.9,130.5 46.9,131.9 49.4,131.9 49.2,133 46.9,133 46.9,134.5 	"/>
	<polygon id="XMLID_00000179619752973125956330000001076530039288084397_" class="st92" points="63.6,130.6 61.6,130.6 61.6,135.6 
		60.3,135.6 60.3,130.6 58.3,130.6 58.3,129.4 63.6,129.4 	"/>
	<path id="XMLID_00000098220195669128295940000013229108083440976573_" class="st92" d="M68.1,133l-0.8-2.4l-0.8,2.4H68.1z
		 M70.4,135.5L70.4,135.5l-1.4,0.1l-0.5-1.5h-2.3l-0.5,1.5h-1.4v-0.1l2.2-6.1h1.7L70.4,135.5z"/>
	<polygon id="XMLID_00000150103849254984478730000012371546964292841387_" class="st92" points="76.4,130.6 74.4,130.6 74.4,135.6 
		73.1,135.6 73.1,130.6 71.1,130.6 71.1,129.4 76.4,129.4 	"/>
	<polygon id="XMLID_00000049938042618700393910000018392268257538760871_" class="st92" points="82.7,134.5 82.7,135.6 78.5,135.6 
		78.5,129.4 82.6,129.4 82.6,130.5 79.8,130.5 79.8,131.9 82.3,131.9 82.1,133 79.8,133 79.8,134.5 	"/>
	<path id="XMLID_00000145020818716606310470000010228686005124312704_" class="st92" d="M51.7,135l0.6-0.9c0.7,0.4,1.2,0.6,1.7,0.6
		c0.7,0,1.2-0.2,1.2-0.7c0-0.4-0.2-0.6-1.2-0.9l-0.2-0.1c-1-0.4-1.8-0.8-1.8-1.9c0-1.2,1.2-1.7,2.3-1.7c0.7,0,1.5,0.2,2.2,0.7
		l-0.6,0.9c-0.6-0.3-1-0.5-1.6-0.5c-0.6,0-0.9,0.2-0.9,0.6c0,0.3,0.2,0.5,1.2,0.9l0.2,0.1c0.9,0.3,1.9,0.7,1.9,2
		c0,1.3-1.1,1.9-2.5,1.9C53.1,135.8,52.3,135.4,51.7,135"/>
	<path id="XMLID_00000078028354050239865500000000586519807030545284_" class="st92" d="M15.8,132.3h0.6c0.7,0,1.2-0.2,1.2-0.9
		c0-0.6-0.4-0.9-1.1-0.9h-0.7V132.3z M19.4,135.5L19.4,135.5l-1.5,0.1l-1.5-2.3h-0.5v2.3h-1.4v-6.2h2.1c1.7,0,2.5,0.9,2.5,1.9
		c0,0.8-0.4,1.5-1.3,1.8L19.4,135.5z"/>
</g>
</svg>
