<?xml version="1.0" encoding="UTF-8"?><svg id="Layer_1" xmlns="http://www.w3.org/2000/svg" viewBox="0 0 90.38 94.21"><defs><style>.cls-1{fill:#AF9800;}.cls-2{fill:none;stroke:#fff;stroke-miterlimit:10;stroke-width:.9px;}</style></defs><path class="cls-1" d="M45.4,22.04c.84,0,1.52-.68,1.52-1.52v-6.78c0-.84-.68-1.52-1.52-1.52s-1.52,.68-1.52,1.52v6.78c0,.84,.68,1.52,1.52,1.52"/><path class="cls-2" d="M45.4,22.04c.84,0,1.52-.68,1.52-1.52v-6.78c0-.84-.68-1.52-1.52-1.52s-1.52,.68-1.52,1.52v6.78c0,.84,.68,1.52,1.52,1.52Z"/><path class="cls-1" d="M80.41,69.46l-16.29,16.27c-.38,.38-.89,.59-1.44,.59s-1.05-.21-1.44-.59l-2.69-2.68c-.38-.38-.59-.89-.59-1.43s.21-1.05,.59-1.43l16.29-16.27c.38-.38,.89-.59,1.44-.59s1.05,.21,1.44,.59l2.69,2.68c.38,.38,.59,.89,.59,1.44s-.21,1.05-.59,1.43m-25.52-1.88c-.59-.59-1.56-.59-2.15,0l-1.35,1.35c-1.29,1.29-3.61,1.12-5.87,.97-2.44-.17-4.97-.34-6.61,1.33l-5.6,5.59-14-13.98,4.96-4.95c.82,.5,1.76,.77,2.75,.77,1.41,0,2.74-.55,3.73-1.54,1-.99,1.54-2.32,1.54-3.73v-.04h.04c1.41,0,2.73-.54,3.73-1.53,1-.99,1.54-2.32,1.54-3.73v-.04h.04c1.41,0,2.73-.54,3.73-1.54,1.04-1.04,1.55-2.4,1.54-3.77h.04c1.41,0,2.74-.55,3.73-1.54,.99-.99,1.54-2.32,1.54-3.73,0-.99-.27-1.93-.77-2.75l4.34-4.34c.32-.32,.72-.53,1.14-.61,.05,0,.09-.01,.14-.02,.67-.09,1.38,.11,1.89,.62,.87,.87,.87,2.29,0,3.16l-1.32,1.32h-.01l-1.52,1.53c-.59,.59-.59,1.56,0,2.15,.59,.59,1.56,.59,2.15,0l1.33-1.33h0l.2-.2c.87-.86,2.28-.86,3.15,0,.42,.42,.65,.98,.65,1.57s-.23,1.16-.65,1.58l-1.33,1.33h0l-1.52,1.52c-.59,.59-.6,1.56,0,2.15,.59,.6,1.56,.6,2.15,0l1.53-1.52c.42-.42,.98-.65,1.58-.65s1.16,.23,1.58,.65c.42,.42,.65,.98,.65,1.57s-.23,1.16-.65,1.58l-2.65,2.65c-.59,.59-.59,1.56,0,2.15,.3,.3,.69,.45,1.07,.45s.78-.15,1.08-.45l1.3-1.3s.02-.01,.02-.02c.42-.42,.98-.65,1.58-.65s1.16,.23,1.58,.65c.87,.87,.87,2.28,0,3.15l-1.32,1.32h0l-2.1,2.1c-.59,.59-.59,1.56,0,2.15,.3,.3,.69,.45,1.08,.45s.78-.15,1.08-.45l1.03-1.02,4.92,4.91-14,13.99-5.02-5.01c.35-.23,.68-.49,1-.8l1.35-1.35c.59-.59,.59-1.56,0-2.15m-30.98-17.28c.42-.42,.98-.65,1.58-.65s1.16,.23,1.58,.65l1.53,1.52c.42,.42,.65,.98,.65,1.57s-.23,1.16-.65,1.58c-.42,.42-.98,.65-1.58,.65s-1.16-.23-1.58-.65l-.19-.19h0v-.02l-1.33-1.31c-.87-.87-.87-2.29,0-3.15m2.65-7.97c.42-.42,.98-.65,1.58-.65s1.15,.23,1.57,.64l4.2,4.2c.42,.42,.65,.98,.65,1.57s-.23,1.16-.65,1.58c-.42,.42-.98,.65-1.58,.65s-1.16-.23-1.58-.65l-1.52-1.52h0l-2.66-2.66c-.42-.42-.65-.98-.65-1.58s.23-1.16,.65-1.58m3.98-6.63c.42-.42,.98-.65,1.58-.65s1.16,.23,1.58,.65l5.52,5.51c.87,.87,.87,2.29,0,3.16-.42,.42-.98,.65-1.58,.65s-1.16-.23-1.58-.65l-4.19-4.19-.02-.02-1.31-1.31c-.42-.42-.65-.98-.65-1.58,0-.6,.23-1.15,.65-1.57m3.97-6.63c.77-.77,1.97-.86,2.84-.27,.49,2.07,2.26,3.94,3.05,4.7,.59,.56,2.47,2.25,4.38,2.71,.26,.37,.4,.81,.4,1.27,0,.6-.23,1.16-.65,1.58-.42,.42-.98,.65-1.58,.65s-1.16-.23-1.58-.65h0l-6.86-6.84c-.42-.42-.65-.98-.65-1.58s.23-1.16,.65-1.58m7.71-1.24l6.59,1.25-3.95,3.95c-.61-.29-1.45-.84-2.37-1.72-1.26-1.2-2.15-2.59-2.24-3.46h0c0-.06,0-.11,0-.15,.2-.05,.73-.1,1.96,.13m40.34,36.61l-2.69-2.68c-.96-.95-2.23-1.48-3.59-1.48-.87,0-1.7,.22-2.44,.62l-5.06-5.06,.25-.25c2.05-2.06,2.05-5.4,0-7.45-.73-.74-1.65-1.23-2.65-1.43,.14-.47,.21-.97,.21-1.48,0-1.41-.55-2.74-1.54-3.73-.73-.74-1.65-1.22-2.65-1.43,.14-.47,.21-.97,.21-1.48,0-1.41-.55-2.74-1.54-3.73-.75-.75-1.67-1.23-2.64-1.43,.52-1.79,.08-3.8-1.33-5.21-1.17-1.17-2.76-1.67-4.29-1.5l-10.03-1.9c-1.53-.29-3.44-.48-4.64,.62-.08,.07-.15,.15-.23,.24-1.87-.68-4.05-.28-5.55,1.22-.99,.99-1.54,2.32-1.54,3.73,0,.51,.07,1,.21,1.48-1,.21-1.91,.69-2.64,1.43-.99,.99-1.54,2.31-1.54,3.72,0,.51,.07,1.01,.21,1.48-1,.21-1.91,.69-2.64,1.43-1,.99-1.54,2.32-1.54,3.73,0,1.08,.32,2.11,.92,2.98-.76,.26-1.45,.68-2.03,1.26-2.05,2.05-2.06,5.39,0,7.45l.25,.24-5.06,5.05c-1.88-.88-4.2-.55-5.75,1l-2.69,2.68c-.96,.95-1.48,2.23-1.48,3.59s.53,2.63,1.48,3.59l3.35,3.35c.59,.59,1.56,.59,2.15,0,.59-.59,.59-1.56,0-2.15l-3.35-3.35c-.38-.38-.59-.89-.59-1.44s.21-1.05,.59-1.43l2.69-2.68c.67-.67,1.7-.77,2.48-.3,.05,.08,.12,.16,.19,.23,.13,.13,.28,.23,.44,.3l15.41,15.39c.07,.16,.17,.31,.31,.44,.13,.13,.27,.23,.43,.3,.33,.37,.51,.84,.51,1.34,0,.54-.21,1.05-.59,1.44l-2.68,2.68c-.79,.79-2.08,.79-2.87,0l-3.35-3.35c-.59-.59-1.56-.59-2.15,0-.59,.59-.59,1.56,0,2.15l3.36,3.36c.99,.98,2.29,1.47,3.58,1.47s2.6-.49,3.59-1.48l2.69-2.68c.96-.95,1.48-2.23,1.48-3.59,0-.97-.27-1.89-.77-2.69l5.7-5.69,.02-.02c.65-.68,2.47-.55,4.22-.43,1.25,.09,2.64,.18,4,.03l6.24,6.23c-.4,.74-.62,1.57-.62,2.44,0,1.36,.53,2.63,1.48,3.58l2.69,2.68c.96,.96,2.23,1.48,3.59,1.48s2.63-.52,3.58-1.48l16.29-16.27c.96-.96,1.48-2.23,1.48-3.59s-.53-2.63-1.48-3.59"/><path class="cls-2" d="M80.41,69.46l-16.29,16.27c-.38,.38-.89,.59-1.44,.59s-1.05-.21-1.44-.59l-2.69-2.68c-.38-.38-.59-.89-.59-1.43s.21-1.05,.59-1.43l16.29-16.27c.38-.38,.89-.59,1.44-.59s1.05,.21,1.44,.59l2.69,2.68c.38,.38,.59,.89,.59,1.44s-.21,1.05-.59,1.43Zm-25.52-1.88c-.59-.59-1.56-.59-2.15,0l-1.35,1.35c-1.29,1.29-3.61,1.12-5.87,.97-2.44-.17-4.97-.34-6.61,1.33l-5.6,5.59-14-13.98,4.96-4.95c.82,.5,1.76,.77,2.75,.77,1.41,0,2.74-.55,3.73-1.54,1-.99,1.54-2.32,1.54-3.73v-.04h.04c1.41,0,2.73-.54,3.73-1.53,1-.99,1.54-2.32,1.54-3.73v-.04h.04c1.41,0,2.73-.54,3.73-1.54,1.04-1.04,1.55-2.4,1.54-3.77h.04c1.41,0,2.74-.55,3.73-1.54,.99-.99,1.54-2.32,1.54-3.73,0-.99-.27-1.93-.77-2.75l4.34-4.34c.32-.32,.72-.53,1.14-.61,.05,0,.09-.01,.14-.02,.67-.09,1.38,.11,1.89,.62,.87,.87,.87,2.29,0,3.16l-1.32,1.32h-.01l-1.52,1.53c-.59,.59-.59,1.56,0,2.15,.59,.59,1.56,.59,2.15,0l1.33-1.33h0l.2-.2c.87-.86,2.28-.86,3.15,0,.42,.42,.65,.98,.65,1.57s-.23,1.16-.65,1.58l-1.33,1.33h0l-1.52,1.52c-.59,.59-.6,1.56,0,2.15,.59,.6,1.56,.6,2.15,0l1.53-1.52c.42-.42,.98-.65,1.58-.65s1.16,.23,1.58,.65c.42,.42,.65,.98,.65,1.57s-.23,1.16-.65,1.58l-2.65,2.65c-.59,.59-.59,1.56,0,2.15,.3,.3,.69,.45,1.07,.45s.78-.15,1.08-.45l1.3-1.3s.02-.01,.02-.02c.42-.42,.98-.65,1.58-.65s1.16,.23,1.58,.65c.87,.87,.87,2.28,0,3.15l-1.32,1.32h0l-2.1,2.1c-.59,.59-.59,1.56,0,2.15,.3,.3,.69,.45,1.08,.45s.78-.15,1.08-.45l1.03-1.02,4.92,4.91-14,13.99-5.02-5.01c.35-.23,.68-.49,1-.8l1.35-1.35c.59-.59,.59-1.56,0-2.15Zm-30.98-17.28c.42-.42,.98-.65,1.58-.65s1.16,.23,1.58,.65l1.53,1.52c.42,.42,.65,.98,.65,1.57s-.23,1.16-.65,1.58c-.42,.42-.98,.65-1.58,.65s-1.16-.23-1.58-.65l-.19-.19h0v-.02l-1.33-1.31c-.87-.87-.87-2.29,0-3.15Zm2.65-7.97c.42-.42,.98-.65,1.58-.65s1.15,.23,1.57,.64l4.2,4.2c.42,.42,.65,.98,.65,1.57s-.23,1.16-.65,1.58c-.42,.42-.98,.65-1.58,.65s-1.16-.23-1.58-.65l-1.52-1.52h0l-2.66-2.66c-.42-.42-.65-.98-.65-1.58s.23-1.16,.65-1.58Zm3.98-6.63c.42-.42,.98-.65,1.58-.65s1.16,.23,1.58,.65l5.52,5.51c.87,.87,.87,2.29,0,3.16-.42,.42-.98,.65-1.58,.65s-1.16-.23-1.58-.65l-4.19-4.19-.02-.02-1.31-1.31c-.42-.42-.65-.98-.65-1.58,0-.6,.23-1.15,.65-1.57Zm3.97-6.63c.77-.77,1.97-.86,2.84-.27,.49,2.07,2.26,3.94,3.05,4.7,.59,.56,2.47,2.25,4.38,2.71,.26,.37,.4,.81,.4,1.27,0,.6-.23,1.16-.65,1.58-.42,.42-.98,.65-1.58,.65s-1.16-.23-1.58-.65h0l-6.86-6.84c-.42-.42-.65-.98-.65-1.58s.23-1.16,.65-1.58Zm7.71-1.24l6.59,1.25-3.95,3.95c-.61-.29-1.45-.84-2.37-1.72-1.26-1.2-2.15-2.59-2.24-3.46h0c0-.06,0-.11,0-.15,.2-.05,.73-.1,1.96,.13Zm40.34,36.61l-2.69-2.68c-.96-.95-2.23-1.48-3.59-1.48-.87,0-1.7,.22-2.44,.62l-5.06-5.06,.25-.25c2.05-2.06,2.05-5.4,0-7.45-.73-.74-1.65-1.23-2.65-1.43,.14-.47,.21-.97,.21-1.48,0-1.41-.55-2.74-1.54-3.73-.73-.74-1.65-1.22-2.65-1.43,.14-.47,.21-.97,.21-1.48,0-1.41-.55-2.74-1.54-3.73-.75-.75-1.67-1.23-2.64-1.43,.52-1.79,.08-3.8-1.33-5.21-1.17-1.17-2.76-1.67-4.29-1.5l-10.03-1.9c-1.53-.29-3.44-.48-4.64,.62-.08,.07-.15,.15-.23,.24-1.87-.68-4.05-.28-5.55,1.22-.99,.99-1.54,2.32-1.54,3.73,0,.51,.07,1,.21,1.48-1,.21-1.91,.69-2.64,1.43-.99,.99-1.54,2.31-1.54,3.72,0,.51,.07,1.01,.21,1.48-1,.21-1.91,.69-2.64,1.43-1,.99-1.54,2.32-1.54,3.73,0,1.08,.32,2.11,.92,2.98-.76,.26-1.45,.68-2.03,1.26-2.05,2.05-2.06,5.39,0,7.45l.25,.24-5.06,5.05c-1.88-.88-4.2-.55-5.75,1l-2.69,2.68c-.96,.95-1.48,2.23-1.48,3.59s.53,2.63,1.48,3.59l3.35,3.35c.59,.59,1.56,.59,2.15,0,.59-.59,.59-1.56,0-2.15l-3.35-3.35c-.38-.38-.59-.89-.59-1.44s.21-1.05,.59-1.43l2.69-2.68c.67-.67,1.7-.77,2.48-.3,.05,.08,.12,.16,.19,.23,.13,.13,.28,.23,.44,.3l15.41,15.39c.07,.16,.17,.31,.31,.44,.13,.13,.27,.23,.43,.3,.33,.37,.51,.84,.51,1.34,0,.54-.21,1.05-.59,1.44l-2.68,2.68c-.79,.79-2.08,.79-2.87,0l-3.35-3.35c-.59-.59-1.56-.59-2.15,0-.59,.59-.59,1.56,0,2.15l3.36,3.36c.99,.98,2.29,1.47,3.58,1.47s2.6-.49,3.59-1.48l2.69-2.68c.96-.95,1.48-2.23,1.48-3.59,0-.97-.27-1.89-.77-2.69l5.7-5.69,.02-.02c.65-.68,2.47-.55,4.22-.43,1.25,.09,2.64,.18,4,.03l6.24,6.23c-.4,.74-.62,1.57-.62,2.44,0,1.36,.53,2.63,1.48,3.58l2.69,2.68c.96,.96,2.23,1.48,3.59,1.48s2.63-.52,3.58-1.48l16.29-16.27c.96-.96,1.48-2.23,1.48-3.59s-.53-2.63-1.48-3.59Z"/><path class="cls-1" d="M25.21,20.76c.3,.3,.68,.44,1.07,.44s.78-.15,1.08-.45c.59-.59,.59-1.56,0-2.15l-5.54-5.53c-.59-.59-1.56-.59-2.15,0-.59,.59-.59,1.56,0,2.15l5.54,5.53Z"/><path class="cls-2" d="M25.21,20.76c.3,.3,.68,.44,1.07,.44s.78-.15,1.08-.45c.59-.59,.59-1.56,0-2.15l-5.54-5.53c-.59-.59-1.56-.59-2.15,0-.59,.59-.59,1.56,0,2.15l5.54,5.53Z"/><path class="cls-1" d="M64.51,21.2c.39,0,.78-.15,1.07-.44l5.54-5.53c.59-.59,.59-1.56,0-2.15-.59-.59-1.56-.59-2.15,0l-5.54,5.53c-.59,.59-.59,1.56,0,2.15,.3,.3,.68,.45,1.08,.45"/><path class="cls-2" d="M64.51,21.2c.39,0,.78-.15,1.07-.44l5.54-5.53c.59-.59,.59-1.56,0-2.15-.59-.59-1.56-.59-2.15,0l-5.54,5.53c-.59,.59-.59,1.56,0,2.15,.3,.3,.68,.45,1.08,.45Z"/><path class="cls-1" d="M16.37,77.61c-.59,.6-.58,1.56,.02,2.15h0c.3,.29,.68,.44,1.06,.44s.79-.15,1.08-.46c.59-.6,.58-1.56-.02-2.15-.6-.59-1.56-.58-2.15,.02"/><path class="cls-2" d="M16.37,77.61c-.59,.6-.58,1.56,.02,2.15h0c.3,.29,.68,.44,1.06,.44s.79-.15,1.08-.46c.59-.6,.58-1.56-.02-2.15-.6-.59-1.56-.58-2.15,.02Z"/><path class="cls-1" d="M58.6,65.39c.23,0,.47-.05,.69-.16,.75-.38,1.05-1.29,.67-2.04-.38-.75-1.29-1.05-2.04-.67h0c-.75,.38-1.05,1.29-.67,2.04,.27,.53,.8,.83,1.36,.83"/><path class="cls-2" d="M58.6,65.39c.23,0,.47-.05,.69-.16,.75-.38,1.05-1.29,.67-2.04-.38-.75-1.29-1.05-2.04-.67h0c-.75,.38-1.05,1.29-.67,2.04,.27,.53,.8,.83,1.36,.83Z"/></svg>