<?xml version="1.0" encoding="UTF-8"?><svg id="Layer_1" xmlns="http://www.w3.org/2000/svg" viewBox="0 0 90.38 94.21"><defs><style>.cls-1,.cls-2{fill:#AF9800;}.cls-2,.cls-3{stroke:#fff;stroke-miterlimit:10;}.cls-3{fill:none;stroke-width:.25px;}</style></defs><path class="cls-2" d="M37.76,71.63l-.2,.95,.19-.95c-.54-.1-1.06,.24-1.17,.76-.11,.53,.24,1.03,.78,1.14h.02c.06,.01,.12,.02,.19,.02,.47,0,.88-.32,.98-.79,.1-.53-.25-1.03-.79-1.13"/><path class="cls-3" d="M37.76,71.63l-.2,.95,.19-.95c-.54-.1-1.06,.24-1.17,.76-.11,.53,.24,1.03,.78,1.14h.02c.06,.01,.12,.02,.19,.02,.47,0,.88-.32,.98-.79,.1-.53-.25-1.03-.79-1.13Z"/><path class="cls-2" d="M45.37,71.94l.1,.96-.1-.96c-.55,.06-.94,.53-.89,1.06,.05,.5,.48,.87,.99,.87,.04,0,.07,0,.1,0h.03c.54-.07,.93-.54,.87-1.07-.06-.53-.55-.91-1.1-.85"/><path class="cls-3" d="M45.37,71.94l.1,.96-.1-.96c-.55,.06-.94,.53-.89,1.06,.05,.5,.48,.87,.99,.87,.04,0,.07,0,.1,0h.03c.54-.07,.93-.54,.87-1.07-.06-.53-.55-.91-1.1-.85Z"/><path class="cls-2" d="M41.56,72.06h-.01c-.55-.02-1.01,.39-1.03,.92-.02,.53,.41,.99,.96,1.01,.01,0,.03,0,.05,0,.53,0,.97-.4,.99-.92,.02-.53-.4-.99-.95-1.01"/><path class="cls-3" d="M41.56,72.06h-.01c-.55-.02-1.01,.39-1.03,.92-.02,.53,.41,.99,.96,1.01,.01,0,.03,0,.05,0,.53,0,.97-.4,.99-.92,.02-.53-.4-.99-.95-1.01Z"/><path class="cls-2" d="M34.09,70.65h-.01c-.52-.18-1.08,.08-1.27,.58-.19,.5,.09,1.06,.61,1.24,.11,.04,.22,.06,.34,.06,.41,0,.79-.25,.94-.64,.19-.5-.08-1.06-.6-1.24"/><path class="cls-3" d="M34.09,70.65h-.01c-.52-.18-1.08,.08-1.27,.58-.19,.5,.09,1.06,.61,1.24,.11,.04,.22,.06,.34,.06,.41,0,.79-.25,.94-.64,.19-.5-.08-1.06-.6-1.24Z"/><path class="cls-2" d="M49.12,71.27l.24,.94-.25-.94c-.53,.13-.85,.66-.71,1.18,.11,.44,.52,.73,.96,.73,.08,0,.17,0,.25-.03h.03c.53-.15,.84-.67,.7-1.19-.14-.51-.68-.82-1.21-.69"/><path class="cls-3" d="M49.12,71.27l.24,.94-.25-.94c-.53,.13-.85,.66-.71,1.18,.11,.44,.52,.73,.96,.73,.08,0,.17,0,.25-.03h.03c.53-.15,.84-.67,.7-1.19-.14-.51-.68-.82-1.21-.69Z"/><path class="cls-2" d="M52.71,70.04l.39,.89-.4-.89c-.5,.21-.73,.78-.51,1.27,.16,.36,.53,.58,.91,.58,.13,0,.27-.03,.4-.08h.02c.5-.23,.72-.8,.5-1.28-.22-.49-.81-.71-1.31-.49"/><path class="cls-3" d="M52.71,70.04l.39,.89-.4-.89c-.5,.21-.73,.78-.51,1.27,.16,.36,.53,.58,.91,.58,.13,0,.27-.03,.4-.08h.02c.5-.23,.72-.8,.5-1.28-.22-.49-.81-.71-1.31-.49Z"/><path class="cls-2" d="M30.29,25.92c.16,0,.32-.04,.47-.11,.49-.25,.67-.84,.41-1.31-.26-.47-.86-.65-1.35-.4h-.01c-.49,.26-.66,.84-.4,1.31,.18,.33,.52,.51,.88,.51"/><path class="cls-3" d="M30.29,25.92c.16,0,.32-.04,.47-.11,.49-.25,.67-.84,.41-1.31-.26-.47-.86-.65-1.35-.4h-.01c-.49,.26-.66,.84-.4,1.31,.18,.33,.52,.51,.88,.51Z"/><path class="cls-2" d="M18.79,36.73c.15,.08,.31,.11,.46,.11,.36,0,.7-.19,.88-.52l.02-.03c.24-.48,.04-1.06-.45-1.3-.49-.23-1.08-.04-1.33,.43-.25,.47-.07,1.06,.42,1.3"/><path class="cls-3" d="M18.79,36.73c.15,.08,.31,.11,.46,.11,.36,0,.7-.19,.88-.52l.02-.03c.24-.48,.04-1.06-.45-1.3-.49-.23-1.08-.04-1.33,.43-.25,.47-.07,1.06,.42,1.3Z"/><path class="cls-2" d="M17.39,40.38c.11,.04,.21,.05,.32,.05,.41,0,.8-.25,.94-.66v-.04c.17-.51-.12-1.05-.65-1.21-.52-.16-1.07,.12-1.24,.63-.18,.51,.1,1.05,.62,1.22"/><path class="cls-3" d="M17.39,40.38c.11,.04,.21,.05,.32,.05,.41,0,.8-.25,.94-.66v-.04c.17-.51-.12-1.05-.65-1.21-.52-.16-1.07,.12-1.24,.63-.18,.51,.1,1.05,.62,1.22Z"/><path class="cls-2" d="M20.75,33.35c.18,.12,.38,.19,.58,.19,.31,0,.61-.14,.8-.4v-.02c.33-.43,.23-1.04-.22-1.35-.44-.31-1.07-.21-1.39,.22l.8,.57-.8-.57c-.32,.43-.22,1.04,.22,1.35"/><path class="cls-3" d="M20.75,33.35c.18,.12,.38,.19,.58,.19,.31,0,.61-.14,.8-.4v-.02c.33-.43,.23-1.04-.22-1.35-.44-.31-1.07-.21-1.39,.22l.8,.57-.8-.57c-.32,.43-.22,1.04,.22,1.35Z"/><path class="cls-2" d="M26.92,28.01c.21,0,.42-.06,.6-.2,.44-.32,.54-.92,.21-1.35-.32-.43-.95-.52-1.39-.21l-.03,.02c-.44,.32-.52,.93-.19,1.36,.2,.25,.49,.38,.79,.38"/><path class="cls-3" d="M26.92,28.01c.21,0,.42-.06,.6-.2,.44-.32,.54-.92,.21-1.35-.32-.43-.95-.52-1.39-.21l-.03,.02c-.44,.32-.52,.93-.19,1.36,.2,.25,.49,.38,.79,.38Z"/><path class="cls-2" d="M16.5,55.05c.13,.42,.52,.68,.95,.68,.1,0,.2-.01,.29-.04,.52-.16,.82-.69,.66-1.2-.15-.51-.69-.81-1.22-.67-.53,.14-.84,.67-.7,1.19v.04"/><path class="cls-3" d="M16.5,55.05c.13,.42,.52,.68,.95,.68,.1,0,.2-.01,.29-.04,.52-.16,.82-.69,.66-1.2-.15-.51-.69-.81-1.22-.67-.53,.14-.84,.67-.7,1.19v.04Z"/><path class="cls-2" d="M23.91,30.57c.26,0,.52-.1,.71-.29,.39-.38,.39-.99,0-1.37-.39-.38-1.02-.38-1.41,0l-.02,.02c-.38,.38-.38,.99,.01,1.37,.19,.18,.45,.28,.7,.28"/><path class="cls-3" d="M23.91,30.57c.26,0,.52-.1,.71-.29,.39-.38,.39-.99,0-1.37-.39-.38-1.02-.38-1.41,0l-.02,.02c-.38,.38-.38,.99,.01,1.37,.19,.18,.45,.28,.7,.28Z"/><path class="cls-2" d="M17.6,50.83c-.07-.53-.56-.9-1.1-.84-.54,.06-.93,.55-.87,1.08v.04c.08,.48,.5,.83,.99,.83,.05,0,.1,0,.15-.01,.54-.08,.92-.57,.84-1.09"/><path class="cls-3" d="M17.6,50.83c-.07-.53-.56-.9-1.1-.84-.54,.06-.93,.55-.87,1.08v.04c.08,.48,.5,.83,.99,.83,.05,0,.1,0,.15-.01,.54-.08,.92-.57,.84-1.09Z"/><path class="cls-2" d="M16.35,48.06h.03c.54,0,.98-.41,.99-.94v-.04c0-.54-.44-.97-.99-.97s-.99,.43-.99,.96c-.01,.53,.42,.98,.96,.99"/><path class="cls-3" d="M16.35,48.06h.03c.54,0,.98-.41,.99-.94v-.04c0-.54-.44-.97-.99-.97s-.99,.43-.99,.96c-.01,.53,.42,.98,.96,.99Z"/><path class="cls-2" d="M16.57,44.18c.06,.01,.12,.02,.18,.02,.47,0,.89-.33,.98-.8,0-.01,0-.03,0-.04,.08-.53-.29-1.02-.84-1.1-.54-.08-1.04,.28-1.13,.8-.1,.53,.26,1.03,.8,1.12"/><path class="cls-3" d="M16.57,44.18c.06,.01,.12,.02,.18,.02,.47,0,.89-.33,.98-.8,0-.01,0-.03,0-.04,.08-.53-.29-1.02-.84-1.1-.54-.08-1.04,.28-1.13,.8-.1,.53,.26,1.03,.8,1.12Z"/><path class="cls-2" d="M63.48,33.65c.19,.27,.5,.42,.82,.42,.19,0,.39-.06,.56-.17,.45-.3,.57-.9,.26-1.35l-.83,.54,.82-.54c-.31-.44-.93-.56-1.38-.26-.46,.3-.57,.9-.27,1.35v.02Z"/><path class="cls-3" d="M63.48,33.65c.19,.27,.5,.42,.82,.42,.19,0,.39-.06,.56-.17,.45-.3,.57-.9,.26-1.35l-.83,.54,.82-.54c-.31-.44-.93-.56-1.38-.26-.46,.3-.57,.9-.27,1.35v.02Z"/><path class="cls-2" d="M68.55,43.39c-.55,.06-.94,.54-.88,1.07v.04c.08,.48,.5,.83,.99,.83,.05,0,.09,0,.14,0,.54-.08,.91-.56,.85-1.08-.06-.53-.56-.91-1.1-.85"/><path class="cls-3" d="M68.55,43.39c-.55,.06-.94,.54-.88,1.07v.04c.08,.48,.5,.83,.99,.83,.05,0,.09,0,.14,0,.54-.08,.91-.56,.85-1.08-.06-.53-.56-.91-1.1-.85Z"/><path class="cls-2" d="M66.88,40.66h0c.13,.43,.52,.71,.95,.71,.09,0,.19-.01,.28-.04,.53-.15,.83-.69,.67-1.2h0c-.15-.53-.71-.82-1.24-.67-.53,.15-.83,.69-.67,1.2"/><path class="cls-3" d="M66.88,40.66h0c.13,.43,.52,.71,.95,.71,.09,0,.19-.01,.28-.04,.53-.15,.83-.69,.67-1.2h0c-.15-.53-.71-.82-1.24-.67-.53,.15-.83,.69-.67,1.2Z"/><path class="cls-2" d="M65.47,37.04c.17,.34,.53,.54,.9,.54,.15,0,.3-.03,.44-.1,.49-.24,.7-.81,.45-1.29l-.9,.41,.9-.41c-.23-.48-.82-.69-1.32-.47s-.71,.8-.48,1.29l.02,.03Z"/><path class="cls-3" d="M65.47,37.04c.17,.34,.53,.54,.9,.54,.15,0,.3-.03,.44-.1,.49-.24,.7-.81,.45-1.29l-.9,.41,.9-.41c-.23-.48-.82-.69-1.32-.47s-.71,.8-.48,1.29l.02,.03Z"/><path class="cls-2" d="M60.97,30.63c.19,.19,.45,.29,.71,.29s.5-.09,.7-.28c.39-.37,.4-.98,.02-1.36-.37-.39-1-.41-1.4-.05-.4,.36-.43,.98-.06,1.37l.03,.03Z"/><path class="cls-3" d="M60.97,30.63c.19,.19,.45,.29,.71,.29s.5-.09,.7-.28c.39-.37,.4-.98,.02-1.36-.37-.39-1-.41-1.4-.05-.4,.36-.43,.98-.06,1.37l.03,.03Z"/><path class="cls-2" d="M68.88,47.43c-.55-.01-1,.4-1.02,.94-.02,.53,.39,.98,.94,1.01,.02,0,.04,0,.06,0,.52,0,.96-.4,.99-.91v-.04c.02-.53-.42-.98-.96-.99"/><path class="cls-3" d="M68.88,47.43c-.55-.01-1,.4-1.02,.94-.02,.53,.39,.98,.94,1.01,.02,0,.04,0,.06,0,.52,0,.96-.4,.99-.91v-.04c.02-.53-.42-.98-.96-.99Z"/><path class="cls-2" d="M54.61,25.88h.02c.15,.09,.31,.12,.46,.12,.35,0,.7-.18,.88-.51,.26-.47,.08-1.06-.4-1.31l-.48,.85,.48-.85c-.48-.26-1.09-.09-1.35,.38-.26,.47-.09,1.06,.39,1.31"/><path class="cls-3" d="M54.61,25.88h.02c.15,.09,.31,.12,.46,.12,.35,0,.7-.18,.88-.51,.26-.47,.08-1.06-.4-1.31l-.48,.85,.48-.85c-.48-.26-1.09-.09-1.35,.38-.26,.47-.09,1.06,.39,1.31Z"/><path class="cls-2" d="M57.98,28h.02c.18,.14,.39,.21,.6,.21,.3,0,.6-.13,.79-.38,.33-.43,.25-1.03-.19-1.36h0c-.44-.33-1.06-.25-1.39,.17-.33,.42-.25,1.03,.18,1.36"/><path class="cls-3" d="M57.98,28h.02c.18,.14,.39,.21,.6,.21,.3,0,.6-.13,.79-.38,.33-.43,.25-1.03-.19-1.36h0c-.44-.33-1.06-.25-1.39,.17-.33,.42-.25,1.03,.18,1.36Z"/><path class="cls-2" d="M75.73,63.61l-13.14,12.81s-.05,.03-.08,.03-.06-.01-.08-.03l-4.67-4.55s-.04-.12,0-.16l.75-.73h0l7.62-7.44,4.76-4.64s.11-.04,.16,0l4.67,4.55s.05,.11,0,.16m-23.34-11.63c0,.76-.63,1.37-1.4,1.37s-1.4-.62-1.4-1.37v-10.8c0-.54-.44-.97-.99-.97s-.99,.43-.99,.97v16.1c0,.76-.63,1.37-1.4,1.37-.69,0-1.27-.5-1.38-1.14v-16.34c0-.53-.44-.97-.99-.97-.18,0-.34,.04-.49,.12-.32,.16-.53,.48-.53,.86v16.1c0,.12,0,.24,.02,.36v1.95c0,.76-.63,1.37-1.4,1.37s-1.4-.61-1.4-1.37v-18.44c0-.53-.45-.97-1-.97s-.99,.43-.99,.97v16.12c0,.76-.63,1.37-1.4,1.37s-1.4-.62-1.4-1.37v-18c0-.54-.45-.97-.99-.97s-.99,.43-.99,.97v3.33c-.08,.03-.16,.06-.24,.11-1.29-.47-2.2-1.68-2.2-3.1v-6.24c0-.95,.38-1.84,1.07-2.52l2.01-1.96c1.13-1.1,1.75-2.57,1.75-4.13v-.43h2c.55,0,1-.43,1-.97s-.45-.97-1-.97h-4.14c-.06,0-.11-.05-.11-.11v-6.44c0-.06,.05-.11,.11-.11h18.57c.06,0,.11,.05,.11,.11v6.44c0,.06-.05,.11-.11,.11h-9.76c-.55,0-.99,.43-.99,.97s.45,.97,.99,.97h7.71v.81c0,1.42,.53,2.79,1.49,3.85,.59,.65,.91,1.48,.91,2.35v20.61Zm-15.81,13.63c-.63,.61-1.46,.98-2.34,1.03-1.45,.09-2.82,.7-3.85,1.7l-.59,.57-.53-.51s-.01-.01-.02-.02l-9.62-9.38,.31-.3c1.13-1.1,1.75-2.57,1.75-4.13v-2.76c0-.95,.38-1.84,1.07-2.51l4.53-4.41c.64-.62,1.49-.97,2.4-.97,.58,0,1.14,.14,1.63,.41l-2.55,2.49c-.39,.38-.39,.99,0,1.37,.19,.19,.45,.28,.7,.28s.51-.1,.7-.28l3.05-2.97v12.08c0,1.82,1.52,3.31,3.39,3.31,.53,0,1.03-.12,1.47-.33,.2,.96,.83,1.77,1.69,2.23l-3.2,3.12Zm31.99-13.15h-.02l-.18-.04,.2,.04Zm8.56,9.62l-4.67-4.55c-.4-.39-.92-.6-1.49-.6s-1.09,.21-1.49,.6l-.11,.11-.31-.3c-.38-.37-.67-.8-.87-1.27-.02-.06-.04-.12-.07-.18-.15-.42-.23-.86-.23-1.32v-1.29c.09,.05,.19,.08,.3,.1,.06,0,.11,.01,.17,.01,.47,0,.89-.33,.98-.79,.11-.52-.24-1.03-.78-1.14-.24-.05-.47,0-.67,.1-.06-1.38-.64-2.66-1.64-3.64l-4.53-4.42c-1.02-.99-2.37-1.54-3.8-1.54-1.11,0-2.17,.33-3.07,.93l-.48-.47v-11.07c0-1.34-.5-2.62-1.4-3.62-.64-.71-1-1.63-1-2.58v-.81h.07c1.16,0,2.1-.92,2.1-2.05v-6.44c0-1.13-.94-2.05-2.1-2.05h-18.57c-1.16,0-2.1,.92-2.1,2.05v6.44c0,1.13,.94,2.05,2.1,2.05h.15v.43c0,1.04-.42,2.02-1.17,2.76l-2.01,1.95c-1.06,1.04-1.65,2.42-1.65,3.88v6.24c0,.85,.21,1.65,.58,2.36-1.32,.07-2.55,.61-3.49,1.53l-4.53,4.42c-1.06,1.04-1.65,2.42-1.65,3.88v2.76c0,1.04-.42,2.02-1.17,2.76l-.3,.3h0l-.11-.1c-.4-.39-.93-.6-1.49-.6s-1.09,.21-1.49,.6l-4.67,4.55c-.82,.8-.82,2.1,0,2.89l1.6,1.56c.39,.38,1.02,.38,1.41,0,.39-.38,.39-.99,0-1.37l-1.6-1.56s-.04-.11,0-.16l4.67-4.55s.11-.04,.16,0l.81,.79h0l11.08,10.8,1.24,1.21s.04,.12,0,.16l-4.67,4.55s-.11,.04-.16,0l-8.72-8.5c-.39-.38-1.02-.38-1.41,0-.39,.38-.39,.99,0,1.37l8.72,8.5c.4,.39,.93,.6,1.49,.6s1.09-.21,1.49-.6l4.67-4.55c.82-.8,.82-2.1,0-2.89l-.05-.05,.59-.57c.69-.67,1.6-1.07,2.57-1.13,1.37-.09,2.65-.65,3.62-1.6l4.29-4.18c1.24-.32,2.2-1.3,2.46-2.52,.44,.2,.93,.32,1.45,.32,1.87,0,3.39-1.48,3.39-3.31v-2.3c.43,.19,.9,.3,1.4,.3,1.87,0,3.39-1.48,3.39-3.31v-6.79l3.06,2.99c.19,.19,.45,.29,.7,.29s.51-.09,.7-.28c.39-.38,.39-.99,0-1.37l-2.55-2.49c.49-.26,1.05-.41,1.63-.41,.91,0,1.76,.34,2.4,.97l4.53,4.41c.69,.67,1.07,1.57,1.07,2.51v2.76c0,1.56,.62,3.03,1.75,4.13l.31,.3-1.44,1.41-8.72,8.51-.49-.47h-.02l-.09-.1c-1.03-1-2.4-1.61-3.85-1.7-.88-.06-1.72-.42-2.34-1.04l-3.27-3.16c-.39-.38-1.02-.38-1.41,0-.39,.38-.39,.99,0,1.37l3.26,3.16c.97,.94,2.25,1.51,3.62,1.6,.97,.06,1.88,.46,2.57,1.13l.05,.05s.05,.06,.08,.08l.46,.45-.05,.05c-.82,.8-.82,2.1,0,2.89l4.67,4.55c.4,.39,.92,.6,1.49,.6s1.09-.21,1.49-.6l13.14-12.81c.82-.8,.82-2.1,0-2.89"/><path class="cls-3" d="M75.73,63.61l-13.14,12.81s-.05,.03-.08,.03-.06-.01-.08-.03l-4.67-4.55s-.04-.12,0-.16l.75-.73h0l7.62-7.44,4.76-4.64s.11-.04,.16,0l4.67,4.55s.05,.11,0,.16Zm-23.34-11.63c0,.76-.63,1.37-1.4,1.37s-1.4-.62-1.4-1.37v-10.8c0-.54-.44-.97-.99-.97s-.99,.43-.99,.97v16.1c0,.76-.63,1.37-1.4,1.37-.69,0-1.27-.5-1.38-1.14v-16.34c0-.53-.44-.97-.99-.97-.18,0-.34,.04-.49,.12-.32,.16-.53,.48-.53,.86v16.1c0,.12,0,.24,.02,.36v1.95c0,.76-.63,1.37-1.4,1.37s-1.4-.61-1.4-1.37v-18.44c0-.53-.45-.97-1-.97s-.99,.43-.99,.97v16.12c0,.76-.63,1.37-1.4,1.37s-1.4-.62-1.4-1.37v-18c0-.54-.45-.97-.99-.97s-.99,.43-.99,.97v3.33c-.08,.03-.16,.06-.24,.11-1.29-.47-2.2-1.68-2.2-3.1v-6.24c0-.95,.38-1.84,1.07-2.52l2.01-1.96c1.13-1.1,1.75-2.57,1.75-4.13v-.43h2c.55,0,1-.43,1-.97s-.45-.97-1-.97h-4.14c-.06,0-.11-.05-.11-.11v-6.44c0-.06,.05-.11,.11-.11h18.57c.06,0,.11,.05,.11,.11v6.44c0,.06-.05,.11-.11,.11h-9.76c-.55,0-.99,.43-.99,.97s.45,.97,.99,.97h7.71v.81c0,1.42,.53,2.79,1.49,3.85,.59,.65,.91,1.48,.91,2.35v20.61Zm-15.81,13.63c-.63,.61-1.46,.98-2.34,1.03-1.45,.09-2.82,.7-3.85,1.7l-.59,.57-.53-.51s-.01-.01-.02-.02l-9.62-9.38,.31-.3c1.13-1.1,1.75-2.57,1.75-4.13v-2.76c0-.95,.38-1.84,1.07-2.51l4.53-4.41c.64-.62,1.49-.97,2.4-.97,.58,0,1.14,.14,1.63,.41l-2.55,2.49c-.39,.38-.39,.99,0,1.37,.19,.19,.45,.28,.7,.28s.51-.1,.7-.28l3.05-2.97v12.08c0,1.82,1.52,3.31,3.39,3.31,.53,0,1.03-.12,1.47-.33,.2,.96,.83,1.77,1.69,2.23l-3.2,3.12Zm31.99-13.15h-.02l-.18-.04,.2,.04Zm8.56,9.62l-4.67-4.55c-.4-.39-.92-.6-1.49-.6s-1.09,.21-1.49,.6l-.11,.11-.31-.3c-.38-.37-.67-.8-.87-1.27-.02-.06-.04-.12-.07-.18-.15-.42-.23-.86-.23-1.32v-1.29c.09,.05,.19,.08,.3,.1,.06,0,.11,.01,.17,.01,.47,0,.89-.33,.98-.79,.11-.52-.24-1.03-.78-1.14-.24-.05-.47,0-.67,.1-.06-1.38-.64-2.66-1.64-3.64l-4.53-4.42c-1.02-.99-2.37-1.54-3.8-1.54-1.11,0-2.17,.33-3.07,.93l-.48-.47v-11.07c0-1.34-.5-2.62-1.4-3.62-.64-.71-1-1.63-1-2.58v-.81h.07c1.16,0,2.1-.92,2.1-2.05v-6.44c0-1.13-.94-2.05-2.1-2.05h-18.57c-1.16,0-2.1,.92-2.1,2.05v6.44c0,1.13,.94,2.05,2.1,2.05h.15v.43c0,1.04-.42,2.02-1.17,2.76l-2.01,1.95c-1.06,1.04-1.65,2.42-1.65,3.88v6.24c0,.85,.21,1.65,.58,2.36-1.32,.07-2.55,.61-3.49,1.53l-4.53,4.42c-1.06,1.04-1.65,2.42-1.65,3.88v2.76c0,1.04-.42,2.02-1.17,2.76l-.3,.3h0l-.11-.1c-.4-.39-.93-.6-1.49-.6s-1.09,.21-1.49,.6l-4.67,4.55c-.82,.8-.82,2.1,0,2.89l1.6,1.56c.39,.38,1.02,.38,1.41,0,.39-.38,.39-.99,0-1.37l-1.6-1.56s-.04-.11,0-.16l4.67-4.55s.11-.04,.16,0l.81,.79h0l11.08,10.8,1.24,1.21s.04,.12,0,.16l-4.67,4.55s-.11,.04-.16,0l-8.72-8.5c-.39-.38-1.02-.38-1.41,0-.39,.38-.39,.99,0,1.37l8.72,8.5c.4,.39,.93,.6,1.49,.6s1.09-.21,1.49-.6l4.67-4.55c.82-.8,.82-2.1,0-2.89l-.05-.05,.59-.57c.69-.67,1.6-1.07,2.57-1.13,1.37-.09,2.65-.65,3.62-1.6l4.29-4.18c1.24-.32,2.2-1.3,2.46-2.52,.44,.2,.93,.32,1.45,.32,1.87,0,3.39-1.48,3.39-3.31v-2.3c.43,.19,.9,.3,1.4,.3,1.87,0,3.39-1.48,3.39-3.31v-6.79l3.06,2.99c.19,.19,.45,.29,.7,.29s.51-.09,.7-.28c.39-.38,.39-.99,0-1.37l-2.55-2.49c.49-.26,1.05-.41,1.63-.41,.91,0,1.76,.34,2.4,.97l4.53,4.41c.69,.67,1.07,1.57,1.07,2.51v2.76c0,1.56,.62,3.03,1.75,4.13l.31,.3-1.44,1.41-8.72,8.51-.49-.47h-.02l-.09-.1c-1.03-1-2.4-1.61-3.85-1.7-.88-.06-1.72-.42-2.34-1.04l-3.27-3.16c-.39-.38-1.02-.38-1.41,0-.39,.38-.39,.99,0,1.37l3.26,3.16c.97,.94,2.25,1.51,3.62,1.6,.97,.06,1.88,.46,2.57,1.13l.05,.05s.05,.06,.08,.08l.46,.45-.05,.05c-.82,.8-.82,2.1,0,2.89l4.67,4.55c.4,.39,.92,.6,1.49,.6s1.09-.21,1.49-.6l13.14-12.81c.82-.8,.82-2.1,0-2.89Z"/><path class="cls-1" d="M36.63,18.07c-.58,0-1.06,.46-1.06,1.03s.47,1.03,1.06,1.03,1.06-.46,1.06-1.03-.47-1.03-1.06-1.03"/><path class="cls-3" d="M36.63,18.07c-.58,0-1.06,.46-1.06,1.03s.47,1.03,1.06,1.03,1.06-.46,1.06-1.03-.47-1.03-1.06-1.03Z"/><path class="cls-2" d="M71.31,62.19c-.58,0-1.06,.46-1.06,1.03s.48,1.03,1.06,1.03,1.06-.46,1.06-1.03-.48-1.03-1.06-1.03"/><path class="cls-3" d="M71.31,62.19c-.58,0-1.06,.46-1.06,1.03s.48,1.03,1.06,1.03,1.06-.46,1.06-1.03-.48-1.03-1.06-1.03Z"/><path class="cls-2" d="M26.44,72.06c0-.57-.48-1.03-1.06-1.03s-1.06,.46-1.06,1.03,.48,1.03,1.06,1.03,1.06-.46,1.06-1.03"/><path class="cls-3" d="M26.44,72.06c0-.57-.48-1.03-1.06-1.03s-1.06,.46-1.06,1.03,.48,1.03,1.06,1.03,1.06-.46,1.06-1.03Z"/></svg>