<?xml version="1.0" encoding="UTF-8"?><svg id="Layer_1" xmlns="http://www.w3.org/2000/svg" viewBox="0 0 90.38 94.21"><defs><style>.cls-1{fill:#AF9800;}</style></defs><path class="cls-1" d="M71.41,39.69l3.28,2.5-1.08,1.48-3.44-2.63,1.25-1.35Zm2.9-3.12c.65-.7,1.76-.79,2.53-.21,.77,.58,.93,1.64,.36,2.41l-1.28,1.75-3.09-2.35,1.48-1.6Zm-26.11,36.1l1.76-2.13c.37-.44,.29-1.08-.17-1.43-.46-.35-1.13-.28-1.49,.17l-1.76,2.14,.36-3.22c1.27-.17,2.43-.71,3.51-1.64l1.85,1.41c-.69,1.22-.98,2.43-.87,3.66l-3.18,1.07Zm30.12-28.12l-1.77-1.35,.46-.62,1.93-2.63c1.21-1.65,.87-3.93-.78-5.19-1.65-1.26-4.04-1.06-5.44,.45l-2.23,2.4h0l-2.67,2.88h0l-8.95,9.65c-2.09,2.25-3.97,4.7-5.61,7.27-.31,.48-.15,1.11,.35,1.4,.17,.1,.36,.15,.55,.15,.36,0,.71-.17,.91-.49,1.57-2.47,3.38-4.82,5.38-6.98l8.28-8.93,3.64,2.77-7.17,9.78c-1.73,2.37-3.7,4.59-5.85,6.62l-5.21,4.92s-.11,.04-.16,0l-2.68-2.05s-.06-.1-.03-.15l1.18-1.85c.31-.48,.15-1.11-.35-1.4-.5-.29-1.15-.14-1.46,.34l-1.18,1.85c-.28,.45-.38,.97-.3,1.45-.96,.88-1.93,1.3-3.04,1.33-.66,.02-1.21,.51-1.28,1.13l-.74,6.67c-.12,1.04,.94,1.88,2.01,1.53l6.59-2.21c.62-.21,.99-.83,.86-1.45-.22-1.04,0-2.05,.66-3.14,.51-.04,1.02-.24,1.41-.61l5.21-4.92c2.24-2.11,4.29-4.44,6.09-6.9l7.75-10.56,.63-.86,1.67,1.28c.26,.2,.31,.57,.1,.83l-4.98,6.02c-.37,.44-.29,1.08,.17,1.43,.2,.15,.43,.22,.66,.22,.31,0,.62-.13,.83-.39l4.98-6.02c.94-1.14,.74-2.79-.44-3.7"/><path class="cls-1" d="M24.71,67.33c.21-.17,.46-.25,.76-.25,.37,0,.8,.13,1.28,.39,.26,.14,.87,.51,.85,.83-.04,.47-.92,1.45-3.28,2.69l-.03,.02c-.08-.15-.13-.3-.18-.43-.4-1.22-.13-2.68,.6-3.25m-4.59,6.56c.21,.53,.82,.8,1.37,.6,.06-.02,1.02-.37,2.26-.93,.69,.51,1.54,.82,2.48,.89,2.66,.18,3.93-.33,4.78-.66,.71-.28,.78-.31,1.68,.3,1.14,.77,2.75,1.03,4.11,1.03,.69,0,1.31-.07,1.77-.16,.57-.12,.94-.66,.81-1.22-.13-.55-.69-.9-1.26-.78-.91,.19-3.07,.23-4.2-.54-1.72-1.17-2.59-.96-3.71-.51-.74,.29-1.65,.66-3.82,.51-.1,0-.19-.02-.28-.03,2.34-1.33,3.53-2.62,3.63-3.91,.06-.76-.22-1.85-1.92-2.77-2.24-1.21-3.73-.49-4.42,.05-1.42,1.11-1.96,3.41-1.29,5.45,.08,.25,.18,.49,.29,.72-.94,.41-1.63,.66-1.64,.66-.55,.2-.83,.78-.62,1.31"/><path class="cls-1" d="M50.38,32.86H21.66c-.59,0-1.06,.46-1.06,1.02s.48,1.02,1.06,1.02h28.72c.59,0,1.06-.46,1.06-1.02s-.48-1.02-1.06-1.02"/><path class="cls-1" d="M50.38,38.84H21.66c-.59,0-1.06,.46-1.06,1.02s.48,1.02,1.06,1.02h28.72c.59,0,1.06-.46,1.06-1.02s-.48-1.02-1.06-1.02"/><path class="cls-1" d="M51.44,45.85c0-.56-.48-1.02-1.06-1.02H21.66c-.59,0-1.06,.46-1.06,1.02s.48,1.02,1.06,1.02h28.72c.59,0,1.06-.46,1.06-1.02"/><path class="cls-1" d="M21.66,52.86h12.2c.59,0,1.06-.46,1.06-1.02s-.48-1.02-1.06-1.02h-12.2c-.59,0-1.06,.46-1.06,1.02s.48,1.02,1.06,1.02"/><path class="cls-1" d="M66.7,24.93h-5.81c-2.02,0-3.67-1.58-3.67-3.52v-5.58l9.48,9.1Zm2.56,31.13c-.59,0-1.06,.46-1.06,1.02v19.37c0,1.94-1.64,3.52-3.67,3.52H20.05c-2.02,0-3.67-1.58-3.67-3.52V17.91c0-1.94,1.65-3.52,3.67-3.52H54.67c.14,0,.28,.01,.42,.04v6.99c0,3.07,2.6,5.56,5.79,5.56h7.27c.02,.13,.04,.27,.04,.4v7.86c0,.56,.48,1.02,1.06,1.02s1.06-.46,1.06-1.02v-7.86c0-1.19-.48-2.31-1.36-3.16l-11-10.57c-.88-.84-2.05-1.31-3.29-1.31H20.05c-3.19,0-5.79,2.5-5.79,5.57v58.55c0,3.07,2.6,5.56,5.79,5.56h44.48c3.19,0,5.79-2.5,5.79-5.56v-19.37c0-.56-.48-1.02-1.06-1.02"/></svg>