<?xml version="1.0" encoding="utf-8"?>
<!-- Generator: Adobe Illustrator 26.3.1, SVG Export Plug-In . SVG Version: 6.00 Build 0)  -->
<svg version="1.1" id="Layer_1" xmlns="http://www.w3.org/2000/svg" xmlns:xlink="http://www.w3.org/1999/xlink" x="0px" y="0px"
	 viewBox="0 0 1512.3 381.1" style="enable-background:new 0 0 1512.3 381.1;" xml:space="preserve">
<style type="text/css">
	.st0{fill:#323E48;}
	.st1{fill:#B09700;stroke:#B09700;stroke-width:5;stroke-miterlimit:10;}
	.st2{fill:#B09700;}
	.st3{fill:#5B6670;}
	.st4{fill:#FFFFFF;}
	.st5{font-family:'Dubai-Medium';}
	.st6{font-size:57.188px;}
</style>
<rect id="XMLID_00000010305950830800125440000009991486588785853617_" x="-2.8" y="-2" class="st0" width="1517.9" height="386"/>
<line id="XMLID_00000118378442182961714520000013598804330260357042_" class="st1" x1="66.6" y1="346.2" x2="1185.6" y2="346.2"/>
<g id="XMLID_00000178181154746745502450000006003881207879127476_">
	<g id="XMLID_00000035499140598723359270000013069681994655119748_">
		<path id="XMLID_00000154393031855354173090000011971565888195178384_" class="st2" d="M656,310.9v0.3h-5.1l-5.2-7.6H644v7.6h-4.6
			v-20.9h7c5.7,0,8.3,2.9,8.3,6.5c0,2.8-1.4,5.1-4.3,6.1L656,310.9z M644,300.1h2c2.4,0,4-0.8,4-3.2c0-2-1.4-3-3.5-3H644V300.1z"/>
		<path id="XMLID_00000142861946656606049050000011437740112116071324_" class="st2" d="M677.3,307.4v3.7h-14.1v-20.9h13.9v3.7h-9.4
			v4.7h8.1l-0.5,3.7h-7.6v5.1H677.3z"/>
		<path id="XMLID_00000112625553870597550850000011568763518937726337_" class="st2" d="M704.1,310.9v0.3h-4.9l-1.7-5h-7.7l-1.6,5
			h-4.8v-0.3l7.5-20.6h5.7L704.1,310.9z M696.3,302.5l-2.7-8l-2.6,8H696.3z"/>
		<path id="XMLID_00000171709666541123792030000007261155295379353785_" class="st2" d="M725.2,307.2v3.9h-14v-20.9h4.6v16.9H725.2z
			"/>
		<path id="XMLID_00000139977886928202603280000001337621543518459047_" class="st2" d="M758.1,307.4v3.7H744v-20.9h13.9v3.7h-9.4
			v4.7h8.1l-0.5,3.7h-7.6v5.1H758.1z"/>
		<path id="XMLID_00000010280456682845060350000003239714733348438951_" class="st2" d="M764.4,309.1l2.1-3.2
			c2.2,1.4,4.2,1.9,5.9,1.9c2.4,0,3.9-0.7,3.9-2.3c0-1.4-0.8-1.9-4.1-3.2l-0.7-0.3c-3.5-1.4-6.1-2.7-6.1-6.4c0-4.1,4.1-5.8,7.8-5.8
			c2.3,0,5,0.7,7.4,2.4l-2.1,3.2c-1.9-1.2-3.3-1.8-5.3-1.8c-2.2,0-3.1,0.8-3.1,1.9c0,1.1,0.7,1.7,3.9,2.9l0.7,0.3
			c3.2,1.2,6.3,2.4,6.3,6.6c0,4.3-3.7,6.4-8.3,6.4C769.1,311.6,766.4,310.6,764.4,309.1z"/>
		<path id="XMLID_00000127760462143904679990000001905457191189734019_" class="st2" d="M804.3,294.2h-6.5v17h-4.6v-17h-6.7v-3.9
			h17.7V294.2z"/>
		<path id="XMLID_00000070821189731937047980000003703644781985553312_" class="st2" d="M827.2,310.9v0.3h-4.9l-1.7-5h-7.7l-1.6,5
			h-4.8v-0.3l7.5-20.6h5.7L827.2,310.9z M819.4,302.5l-2.7-8l-2.6,8H819.4z"/>
		<path id="XMLID_00000146488944084582302060000018128272834283798173_" class="st2" d="M847.2,294.2h-6.5v17h-4.6v-17h-6.7v-3.9
			h17.7V294.2z"/>
		<path id="XMLID_00000114786205889930907660000015588234848768721825_" class="st2" d="M868.4,307.4v3.7h-14.1v-20.9h13.9v3.7h-9.4
			v4.7h8.1l-0.5,3.7h-7.6v5.1H868.4z"/>
	</g>
	<g id="XMLID_00000021826885535280820530000010050965021568679838_">
		<path id="XMLID_00000055689093673598932720000010341532134262123193_" class="st2" d="M923,287.1l-1.5,2.2l-3.2-2.2l-2.1,3
			l3.4,2.3l1.4-2.2l3.2,2.2l2.1-3.1L923,287.1z"/>
		<path id="XMLID_00000134969321226175961690000018261820798585511841_" class="st2" d="M990.7,298.3h-0.3l-3.3,2.6
			c1.1,2.1,2,4.3,1.8,5.5c-0.5,0.2-2,0.3-3.2,0.3h-56.1c0,0,0,0,0,0c-2.5,0-3.1-0.5-3.1-2.2v-9.7l-0.3-0.1l-3.8,1.5v1.5
			c-5.2,1.7-7.9,4.7-7.9,7.4c0,2.5,2.2,4.2,5.8,4.2c1.1,0,2-0.2,3.1-0.5c1.1,1.5,2.9,2.1,5.3,2.1H985c3.3,0,4.8-0.4,5.8-1.5
			c1.2-1.1,1.7-2.7,1.7-4.3C992.6,303.5,991.8,300.6,990.7,298.3z M922.5,305.1c-0.5,0.1-1,0.1-1.6,0.1c-1.2,0-2.6-0.5-2.9-1.3
			c0.4-1,2.3-1.9,4.5-2.5V305.1z"/>
		<path id="XMLID_00000113313163327646312150000004562562190069348009_" class="st2" d="M990.7,313.1l-1.5,2.2l-3.2-2.2l-2.1,3
			l3.3,2.3l1.5-2.2l3.2,2.2l2.1-3.1L990.7,313.1z"/>
		<path id="XMLID_00000121961673662267886750000005776194366244767629_" class="st2" d="M994.7,313.3l0.2-0.4c4.1-1.2,7-3.1,7-4.2
			c-0.1-1.1-1.2-3.6-2.4-5.6l3-3.3h0.3c1.5,2.7,2.2,5.8,2.2,7.8c0,1.6-0.5,3.2-1.2,4.2c-1.1,1.7-3.6,3.5-7.2,4.4L994.7,313.3z"/>
		<path id="XMLID_00000157992534527848647080000010676232816208573873_" class="st2" d="M1174.5,288.3l-3.8,1v14.6
			c0,1.1-0.1,1.9-0.2,2.4c-0.7,0.3-1.7,0.4-2.6,0.4h-2.7c-2.6,0-4.9-0.1-6.7-0.6c1.3-1.1,2.5-2.2,3.9-3.3l0.9-3.4l-0.1-0.4
			c-1.9-1.1-4.5-1.7-6.9-1.7c-2.4,0-4.9,0.5-6.6,1.4l-1.3,3.6l0.1,0.3c1.5,0.7,3,1.9,4.4,3.2c-1.8,0.6-3.9,0.9-6.4,0.9h-10.3
			c-0.4,0-0.9,0-1.3,0c0.8-1.1,1.2-2.4,1.2-3.9c0-2.4-2.1-5.5-4.9-5.5c-3,0-5.7,3.3-5.7,6.5c0,1,0.4,2,1.1,2.9h-110.3
			c-2.4,0-3.3-0.6-3.3-2.8v-15.4l-0.3-0.2l-3.8,1v14.9c0,4.7,2.2,6.6,6.5,6.6h109.5c2.1,0,4.1-0.3,5.8-1c1.5,0.6,3.2,1,5,1h9.9
			c4.6,0,7.5-1,9.8-2.4c2.2,1.5,5.2,2.4,8.9,2.4c0,0,0,0,0,0h2.6c4.9,0,7.8-1.4,7.8-7.1v-15.2L1174.5,288.3z M1130.8,305.8
			c-1.3-0.6-2.1-1.5-2.1-2.4c0-1.2,1.1-2.3,2.1-2.3c0.9,0,2,1.1,2,2.2C1132.8,304.3,1132,305.2,1130.8,305.8z M1155.6,304.4
			c-1.1-1.2-2.1-2.2-3.2-2.9c1-0.2,2-0.4,3.2-0.4c1,0,2.1,0.2,3.2,0.5C1157.7,302.7,1156.7,303.7,1155.6,304.4z"/>
		<path id="XMLID_00000134251104645571249910000008333978259252411286_" class="st2" d="M1132.4,289.1l-1.5,2.2l-3.2-2.2l-2.1,3.1
			l3.4,2.3l1.4-2.2l3.2,2.2l2.1-3.1L1132.4,289.1z"/>
		<path id="XMLID_00000029036641344860325550000003125977796174978441_" class="st2" d="M1178.7,310.8v-21.5l3.8-1l0.3,0.2
			l-0.1,21.7l-3.8,0.8L1178.7,310.8z"/>
	</g>
	<path id="XMLID_00000036252565193415810750000015707552398086119561_" class="st2" d="M697,253c-12.2-21.7-25.1-40.5-38.6-56.3V253
		h-19.1v-85.9H655c4.6,4.6,11,12.2,19.1,22.8c5.5,7.2,12.1,16.5,19.9,28v-50.7h19.2V253H697z"/>
	<path id="XMLID_00000156573059002987741340000005893394626867252383_" class="st2" d="M732.9,231.5c6.4,3.5,13.8,5.2,22.3,5.2
		c4.9,0,8.4-0.8,10.7-2.4c1.8-1.4,2.7-3.4,2.7-6.1c0-2.7-1.3-5-3.8-6.7c-2.4-1.7-6.7-3.6-13.1-5.8c-7.2-2.7-12.3-5.3-15.3-7.9
		c-4.9-4.3-7.3-9.7-7.3-16.5c0-7.5,2.8-13.6,8.3-18.1c5.4-4.4,12.7-6.6,22.1-6.6c9.3,0,17.4,1.9,24.3,5.7l-5.4,14.6
		c-5.7-3-11.6-4.5-17.8-4.5c-8.3,0-12.5,2.5-12.5,7.5c0,2.7,1.4,4.9,4.1,6.6c1.4,1,4.8,2.5,10.1,4.3c9.3,3.5,15.7,6.9,19.1,10.1
		c4.2,4,6.2,9.8,6.2,17.4c0,7.8-2.7,13.8-8,17.9c-5.6,4.3-13.7,6.4-24.4,6.4c-6.4,0-12.3-0.8-17.6-2.3c-4.2-1.2-7.5-2.5-9.9-4
		L732.9,231.5z"/>
	<path id="XMLID_00000123422078870315615830000001786623785721781669_" class="st2" d="M802.2,168.9c7.8-1.4,16.3-2.2,25.7-2.2
		c11.6,0,20.5,1.7,26.5,5.1c6.9,4,10.3,10.2,10.3,18.7c0,6.8-3.2,12.1-9.7,15.9c9.2,3.4,13.8,10.1,13.8,20
		c0,17.8-12.8,26.7-38.5,26.7c-10.9,0-20.3-0.8-28-2.5V168.9z M829.9,200.8c5.8,0,10-0.7,12.5-2.2c2.5-1.5,3.8-3.9,3.8-7.2
		c0-3.3-1.3-5.7-3.9-7.1c-2.5-1.4-6.3-2.1-11.5-2.1c-4.8,0-8.2,0.1-10.2,0.4v18.3H829.9z M820.7,237.1c3.3,0.3,6.6,0.5,9.9,0.5
		c12.7,0,19-3.8,19-11.5c0-7.2-5.6-10.8-16.9-10.8h-12V237.1z"/>
	<path id="XMLID_00000167362700970284900220000006087411608804838794_" class="st2" d="M1183.6,197.9V232c0,6.4-1.9,11.5-5.6,15.2
		c-2.2,2.2-5.2,3.8-9,4.7c-2.9,0.7-6.4,1.1-10.5,1.1h-18.5c-2.9,0-5.4-0.3-7.3-0.8c-2.1-0.6-4.2-1.6-6.5-3.2
		c-3.9,2.1-8.7,3.2-14.5,3.2c-5.9,0-11.9-1.9-17.8-5.7c-5.5,4.3-11.5,6.5-17.8,6.5H1066c-2.7,0-5.5-0.7-8.5-2.2c-2.3,1-4,1.5-5,1.7
		c-1.5,0.3-3.3,0.4-5.4,0.4h-18.4c-6.9,0-12.2-1.1-16-3.2c-3.8,2.1-9.1,3.2-16,3.2h-52.5c-4,0-7.5-0.4-10.4-1.1
		c-3.7-0.9-7-2.5-9.7-4.8c-3-2.5-5.2-6-6.5-10.4c-1.2-3.8-1.7-8-1.7-12.6c0-9,2.1-16.6,6.3-22.8l13.9,5.9c-3.3,5.8-5,11-5,15.4
		c0,4.4,1.2,7.6,3.7,9.5c2.1,1.7,5.6,2.6,10.4,2.6h55.1c2,0,3.1-1.3,3.4-4V204l18.1-6.2v33c0.3,2.8,1.4,4.1,3.4,4.1h21.9
		c2.2,0,3.5-1.5,3.8-4.6V204l17.5-6.2v38.9c3,0.7,5.6,0.9,7.7,0.6c2.9-0.2,5.2-1.4,6.7-3.6c1.4-2.3,2.2-6.3,2.2-11.9V204l17.7-6.2
		v24.9c0,4.7-0.5,8.7-1.4,12.2c2.9,1.6,5.6,2.4,8.1,2.4c3.4,0.1,5.9-1.1,7.5-3.5c1.5-2.2,2.2-6.2,2.2-11.9V204l17.6-6.2v30.7
		c0,1.8,0.1,3.2,0.4,4.1c0.5,1.5,1.5,2.3,3,2.3h22c1.5,0,2.5-0.8,3-2.3c0.3-0.9,0.4-2.2,0.4-4.1v-24.4L1183.6,197.9z"/>
	<path id="XMLID_00000160869816589736561170000008655863230649091503_" class="st2" d="M1164.7,183.1v10.4l18.9-6.5v-10.2
		L1164.7,183.1z"/>
	<path id="XMLID_00000003794472632479159820000006712318103766259854_" class="st2" d="M957.2,267.8v10.4l18.9-6.5v-10.2
		L957.2,267.8z"/>
</g>
<g id="XMLID_00000082354896859884214290000011728629055367082418_">
	<g id="XMLID_00000105426664745088497700000012662051285320656529_">
		<polygon id="XMLID_00000039834987351929491850000009663745585861945014_" class="st3" points="1478.2,55.1 1514.9,91.8 
			1514.9,155.7 1446.3,87.1 		"/>
		
			<rect id="XMLID_00000041989622701405628070000016724864778126446523_" x="1410.7" y="66.7" transform="matrix(0.7071 -0.7071 0.7071 0.7071 322.6602 1053.7317)" class="st3" width="45.2" height="141.4"/>
		<polygon id="XMLID_00000102513683068673519300000016154876717304907690_" class="st3" points="1451.7,219 1419.7,251 1319.8,151 
			1319.7,151 1346.9,123.8 1351.7,119 		"/>
		<polygon id="XMLID_00000177480608776422325530000003648892039940960695_" class="st3" points="1404.1,266.6 1372.1,298.6 
			1272.2,198.7 1272.1,198.6 1304.1,166.6 1304.1,166.7 		"/>
		<polygon id="XMLID_00000008841409657223548950000009278842310103355278_" class="st3" points="1325.1,282.9 1293.2,314.9 
			1224.6,246.3 1224.5,246.2 1256.5,214.2 1256.5,214.3 		"/>
		
			<rect id="XMLID_00000151525944418054597690000013466488958205984930_" x="1310" y="311.3" transform="matrix(0.7071 -0.7071 0.7071 0.7071 162.3718 1036.7385)" class="st3" width="45.2" height="22.1"/>
	</g>
	
		<rect id="XMLID_00000027576516404763454330000002456820848132327314_" x="1416.1" y="36.5" transform="matrix(0.7071 -0.7071 0.7071 0.7071 387.7353 1031.2843)" class="st3" width="45.2" height="22.1"/>
</g>
<text id="XMLID_00000032630031669974533810000011745153347055354559_" transform="matrix(1 0 0 1 66.6245 311.276)" class="st4 st5 st6">0509 222 474 </text>
</svg>
