<?xml version="1.0" encoding="utf-8"?>
<!-- Generator: Adobe Illustrator 26.3.1, SVG Export Plug-In . SVG Version: 6.00 Build 0)  -->
<svg version="1.1" id="Layer_1" xmlns="http://www.w3.org/2000/svg" xmlns:xlink="http://www.w3.org/1999/xlink" x="0px" y="0px"
	 viewBox="0 0 1512.3 381.1" style="enable-background:new 0 0 1512.3 381.1;" xml:space="preserve">
<style type="text/css">
	.st0{fill:#323E48;}
	.st1{fill:#B09700;stroke:#B09700;stroke-width:5;stroke-miterlimit:10;}
	.st2{fill:#B09700;}
	.st3{fill:#5B6670;}
	.st4{fill:#FFFFFF;}
	.st5{font-family:'Dubai-Bold';}
	.st6{font-size:65.6828px;}
</style>
<rect id="XMLID_00000163756101829396625760000009726946136357720725_" x="-2.8" y="-3" class="st4" width="1517.9" height="387"/>
<line id="XMLID_00000109015832136459049090000015211670639869689256_" class="st1" x1="65" y1="335.8" x2="1031.1" y2="335.8"/>
<text id="XMLID_00000053528104823495910850000014063176667925344689_" transform="matrix(1 0 0 1 62.0095 294.9622)" class="st0 st5 st6">0509 222 474 </text>
<g id="XMLID_00000027587013797611842790000009897984770001438091_">
	<g id="XMLID_00000026859347687023357800000017580287532037209772_">
		<g id="XMLID_00000029004083557595881320000010443252554006277544_">
			<g id="XMLID_00000175282699414416297240000015439342991213330364_">
				<polygon id="XMLID_00000024692204734734859760000006843700844014707592_" class="st0" points="1217.3,112.4 1227.1,122.2 
					1227.1,139.3 1208.8,121 				"/>
				
					<rect id="XMLID_00000061429996796863220330000001315315670074810529_" x="1199.3" y="115.5" transform="matrix(0.7071 -0.7071 0.7071 0.7071 257.9818 891.6497)" class="st0" width="12.1" height="37.8"/>
				<polygon id="XMLID_00000154395403056121075760000002968138445098109348_" class="st0" points="1210.2,156.2 1201.7,164.8 
					1175,138.1 1175,138 1182.2,130.8 1183.5,129.5 				"/>
				<polygon id="XMLID_00000117672374878750782010000018175807531496548992_" class="st0" points="1197.5,168.9 1189,177.5 
					1162.3,150.8 1162.2,150.8 1170.8,142.2 1170.8,142.2 				"/>
				<polygon id="XMLID_00000170265629712826686990000005167755656712972416_" class="st0" points="1176.4,173.3 1167.9,181.8 
					1149.5,163.5 1149.5,163.5 1158.1,154.9 1158.1,155 				"/>
				
					<rect id="XMLID_00000129193106953105354100000014346754447264233352_" x="1172.4" y="180.9" transform="matrix(0.7071 -0.7071 0.7071 0.7071 215.151 887.109)" class="st0" width="12.1" height="5.9"/>
			</g>
			
				<rect id="XMLID_00000090286947874930649000000009271370694926951321_" x="1200.7" y="107.5" transform="matrix(0.7071 -0.7071 0.7071 0.7071 275.3705 885.6516)" class="st0" width="12.1" height="5.9"/>
		</g>
		<g id="XMLID_00000163766427170507607060000006000762254321049770_">
			<g id="XMLID_00000145023993599340970100000002304646794914230675_">
				<polygon id="XMLID_00000117654042537497544410000014214984225185737635_" class="st3" points="1163.9,202.6 1154.1,212.4 
					1137,212.4 1155.3,194 				"/>
				
					<rect id="XMLID_00000071524921296660164080000018015286145985807795_" x="1123" y="184.5" transform="matrix(0.7071 -0.7071 0.7071 0.7071 199.6908 863.2553)" class="st3" width="37.8" height="12.1"/>
				<polygon id="XMLID_00000033353816316349968190000010526187081226599051_" class="st3" points="1120.1,195.5 1111.5,186.9 
					1138.2,160.3 1138.3,160.2 1145.5,167.5 1146.8,168.8 				"/>
				<polygon id="XMLID_00000134947819646229555150000014698132375983002529_" class="st3" points="1107.4,182.8 1098.8,174.2 
					1125.5,147.5 1125.5,147.5 1134.1,156 1134.1,156.1 				"/>
				<polygon id="XMLID_00000003817649344105238350000006044325754927530928_" class="st3" points="1103,161.7 1094.5,153.1 
					1112.8,134.8 1112.8,134.8 1121.4,143.3 1121.3,143.3 				"/>
				
					<rect id="XMLID_00000035522149749929213910000008779806217300887959_" x="1089.5" y="157.6" transform="matrix(0.7071 -0.7071 0.7071 0.7071 204.2316 820.4246)" class="st3" width="5.9" height="12.1"/>
			</g>
			
				<rect id="XMLID_00000076579378958377016630000006722949693845833121_" x="1163" y="185.9" transform="matrix(0.7071 -0.7071 0.7071 0.7071 205.7627 880.6746)" class="st3" width="5.9" height="12.1"/>
		</g>
		<g id="XMLID_00000129907287689218783980000016721320459503498156_">
			<g id="XMLID_00000053547616768110530960000006647777854222652081_">
				<polygon id="XMLID_00000176039685828268604270000001300548377816723119_" class="st0" points="1074,149.2 1064.2,139.4 
					1064.2,122.3 1082.5,140.7 				"/>
				
					<rect id="XMLID_00000117678530545165726970000007498892131671793046_" x="1079.9" y="108.3" transform="matrix(0.7071 -0.7071 0.7071 0.7071 228.1163 805.1706)" class="st0" width="12.1" height="37.8"/>
				<polygon id="XMLID_00000008836788016688832740000006492595571071676296_" class="st0" points="1081.1,105.4 1089.6,96.9 
					1116.3,123.6 1116.3,123.6 1109.1,130.9 1107.8,132.1 				"/>
				<polygon id="XMLID_00000040575958254633341150000014441478422650594177_" class="st0" points="1093.8,92.7 1102.3,84.2 
					1129,110.8 1129.1,110.9 1120.5,119.4 1120.5,119.4 				"/>
				<polygon id="XMLID_00000028308951310370898520000005776194850204667839_" class="st0" points="1114.9,88.3 1123.4,79.8 
					1141.8,98.1 1141.8,98.2 1133.2,106.7 1133.2,106.7 				"/>
				
					<rect id="XMLID_00000072969337660348024340000015491892366993812113_" x="1106.8" y="74.8" transform="matrix(0.7071 -0.7071 0.7071 0.7071 270.947 809.7113)" class="st0" width="12.1" height="5.9"/>
			</g>
			
				<rect id="XMLID_00000101803960627344194780000015874109795547608735_" x="1078.5" y="148.3" transform="matrix(0.7071 -0.7071 0.7071 0.7071 210.7275 811.1687)" class="st0" width="12.1" height="5.9"/>
		</g>
		<g id="XMLID_00000026843171451049427500000007331831753818997648_">
			<g id="XMLID_00000147177940099673393750000010499725196461102002_">
				<polygon id="XMLID_00000161633994735663035520000004556520815381709701_" class="st3" points="1127.1,59.1 1136.9,49.3 
					1154,49.3 1135.6,67.6 				"/>
				
					<rect id="XMLID_00000183217147119413791000000005704339017858592172_" x="1130.2" y="65" transform="matrix(0.7071 -0.7071 0.7071 0.7071 286.3106 833.3318)" class="st3" width="37.8" height="12.1"/>
				<polygon id="XMLID_00000041273329411102050940000004583890243703079553_" class="st3" points="1170.9,66.2 1179.4,74.7 
					1152.7,101.4 1152.7,101.4 1145.4,94.1 1144.2,92.9 				"/>
				<polygon id="XMLID_00000063598210202999547350000015824870676951475342_" class="st3" points="1183.6,78.9 1192.1,87.4 
					1165.5,114.1 1165.4,114.1 1156.9,105.6 1156.9,105.6 				"/>
				<polygon id="XMLID_00000000915313097741554690000008989982229464551355_" class="st3" points="1188,100 1196.5,108.5 
					1178.2,126.8 1178.1,126.9 1169.6,118.3 1169.6,118.3 				"/>
				
					<rect id="XMLID_00000032611409488062276720000006405457323066396555_" x="1195.5" y="91.9" transform="matrix(0.7071 -0.7071 0.7071 0.7071 281.7699 876.1625)" class="st3" width="5.9" height="12.1"/>
			</g>
			
				<rect id="XMLID_00000157277182048889669220000002686088792106174622_" x="1122.4" y="63.8" transform="matrix(0.7071 -0.7071 0.7071 0.7071 280.2357 816.1962)" class="st3" width="5.9" height="12.1"/>
		</g>
		
			<rect id="XMLID_00000086685422958909069950000005340111244978940570_" x="1131.8" y="117.3" transform="matrix(0.7071 -0.7071 0.7071 0.7071 242.8138 848.4393)" class="st2" width="27.6" height="27.6"/>
	</g>
	<g id="XMLID_00000166668026637253477040000012128866772880775834_">
		<path id="XMLID_00000041977812736960515690000016830805995370740669_" class="st2" d="M1076.1,336.4v0.2h-3.6l-3.7-5.4h-1.2v5.4
			h-3.2v-14.8h5c4,0,5.9,2,5.9,4.6c0,2-1,3.6-3.1,4.4L1076.1,336.4z M1067.5,328.7h1.4c1.7,0,2.9-0.6,2.9-2.3c0-1.4-1-2.1-2.5-2.1
			h-1.7V328.7z"/>
		<path id="XMLID_00000142172584205883052250000011173037622500886656_" class="st2" d="M1091.2,333.9v2.7h-10v-14.8h9.9v2.6h-6.7
			v3.3h5.7l-0.4,2.6h-5.4v3.6H1091.2z"/>
		<path id="XMLID_00000176765041559793693680000017064076330703784082_" class="st2" d="M1110.3,336.4v0.2h-3.5l-1.2-3.5h-5.5
			l-1.2,3.5h-3.4v-0.2l5.3-14.6h4L1110.3,336.4z M1104.7,330.4l-1.9-5.7l-1.9,5.7H1104.7z"/>
		<path id="XMLID_00000011723176941894566310000003167092578273526416_" class="st2" d="M1125.3,333.8v2.8h-10v-14.8h3.2v12H1125.3z
			"/>
		<path id="XMLID_00000029017455295595887600000012565646232012716961_" class="st2" d="M1148.6,333.9v2.7h-10v-14.8h9.9v2.6h-6.7
			v3.3h5.7l-0.4,2.6h-5.4v3.6H1148.6z"/>
		<path id="XMLID_00000145776573808844055880000007067694111601994931_" class="st2" d="M1153.1,335.1l1.5-2.3c1.6,1,3,1.3,4.2,1.3
			c1.7,0,2.8-0.5,2.8-1.6c0-1-0.6-1.4-2.9-2.3l-0.5-0.2c-2.5-1-4.3-1.9-4.3-4.5c0-2.9,2.9-4.1,5.5-4.1c1.6,0,3.5,0.5,5.2,1.7
			l-1.5,2.2c-1.4-0.8-2.4-1.3-3.8-1.3c-1.5,0-2.2,0.6-2.2,1.3c0,0.8,0.5,1.2,2.8,2l0.5,0.2c2.2,0.8,4.5,1.7,4.5,4.7
			c0,3.1-2.6,4.5-5.9,4.5C1156.4,336.9,1154.5,336.2,1153.1,335.1z"/>
		<path id="XMLID_00000119829467313775664610000017199061200684555428_" class="st2" d="M1181.4,324.5h-4.6v12.1h-3.2v-12.1h-4.7
			v-2.8h12.6V324.5z"/>
		<path id="XMLID_00000016032948344226591270000009435372918666532262_" class="st2" d="M1197.7,336.4v0.2h-3.5l-1.2-3.5h-5.5
			l-1.2,3.5h-3.4v-0.2l5.3-14.6h4L1197.7,336.4z M1192.2,330.4l-1.9-5.7l-1.9,5.7H1192.2z"/>
		<path id="XMLID_00000084492620406463992290000012343967591051816602_" class="st2" d="M1212,324.5h-4.6v12.1h-3.2v-12.1h-4.7v-2.8
			h12.6V324.5z"/>
		<path id="XMLID_00000040567172491664325090000001076596792780455347_" class="st2" d="M1227,333.9v2.7h-10v-14.8h9.9v2.6h-6.7v3.3
			h5.7l-0.4,2.6h-5.4v3.6H1227z"/>
	</g>
	<g id="XMLID_00000157297938769059324450000017798312571825329045_">
		<path id="XMLID_00000048475347598111059400000002022384569981521591_" class="st2" d="M1265.8,319.5l-1.1,1.5l-2.3-1.5l-1.5,2.2
			l2.4,1.7l1-1.6l2.3,1.6l1.5-2.2L1265.8,319.5z"/>
		<path id="XMLID_00000168804108702181866690000013739069582938039951_" class="st2" d="M1314,327.5h-0.2l-2.3,1.8
			c0.8,1.5,1.4,3.1,1.3,3.9c-0.4,0.1-1.4,0.2-2.2,0.2h-39.9c0,0,0,0,0,0c-1.8,0-2.2-0.4-2.2-1.6v-6.9l-0.2-0.1l-2.7,1v1.1
			c-3.7,1.2-5.6,3.3-5.6,5.2c0,1.8,1.6,3,4.2,3c0.7,0,1.4-0.1,2.2-0.4c0.8,1.1,2.1,1.5,3.7,1.5h40c2.3,0,3.4-0.3,4.2-1
			c0.8-0.8,1.2-1.9,1.2-3.1C1315.3,331.1,1314.7,329.1,1314,327.5z M1265.4,332.3c-0.4,0.1-0.7,0.1-1.1,0.1c-0.8,0-1.8-0.3-2.1-1
			c0.3-0.7,1.6-1.4,3.2-1.8V332.3z"/>
		<path id="XMLID_00000087376659915295203310000003240733340306527158_" class="st2" d="M1313.9,338l-1,1.6l-2.3-1.6l-1.5,2.2
			l2.4,1.7l1.1-1.6l2.3,1.6l1.5-2.2L1313.9,338z"/>
		<path id="XMLID_00000088133624905066437130000013207616147488230805_" class="st2" d="M1316.8,338.2l0.2-0.3c2.9-0.9,5-2.2,5-3
			c-0.1-0.8-0.9-2.6-1.7-4l2.1-2.3h0.2c1,1.9,1.6,4.1,1.6,5.5c0,1.2-0.4,2.3-0.8,3c-0.8,1.2-2.5,2.5-5.1,3.1L1316.8,338.2z"/>
		<path id="XMLID_00000056395417298426267230000012852717159882704052_" class="st2" d="M1444.5,320.4l-2.7,0.7v10.4
			c0,0.8-0.1,1.3-0.2,1.7c-0.5,0.2-1.2,0.3-1.9,0.3h-1.9c-1.9,0-3.5-0.1-4.8-0.4c0.9-0.8,1.8-1.6,2.8-2.4l0.6-2.4l-0.1-0.3
			c-1.4-0.8-3.2-1.2-4.9-1.2s-3.4,0.4-4.7,1l-0.9,2.5l0.1,0.2c1.1,0.5,2.1,1.4,3.1,2.3c-1.3,0.5-2.8,0.6-4.5,0.6h-7.3
			c-0.3,0-0.6,0-0.9,0c0.6-0.8,0.9-1.7,0.9-2.8c0-1.7-1.5-3.9-3.5-3.9c-2.1,0-4.1,2.3-4.1,4.6c0,0.7,0.3,1.5,0.7,2.1h-78.4
			c-1.7,0-2.3-0.5-2.3-2v-10.9l-0.2-0.1l-2.7,0.7v10.6c0,3.3,1.5,4.7,4.6,4.7h77.8c1.5,0,2.9-0.2,4.1-0.7c1.1,0.5,2.3,0.7,3.5,0.7h7
			c3.3,0,5.3-0.7,7-1.7c1.6,1.1,3.7,1.7,6.3,1.7c0,0,0,0,0,0h1.9c3.5,0,5.6-1,5.6-5v-10.8L1444.5,320.4z M1413.5,332.8
			c-1-0.4-1.5-1-1.5-1.7c0-0.8,0.8-1.6,1.5-1.6c0.6,0,1.4,0.8,1.4,1.6C1414.9,331.7,1414.4,332.4,1413.5,332.8z M1431.1,331.8
			c-0.8-0.8-1.5-1.6-2.3-2.1c0.7-0.2,1.5-0.3,2.2-0.3c0.7,0,1.5,0.1,2.3,0.4C1432.6,330.6,1431.9,331.3,1431.1,331.8z"/>
		<path id="XMLID_00000114075929185076288790000004454344939554258062_" class="st2" d="M1414.6,321l-1.1,1.5l-2.3-1.5l-1.5,2.2
			l2.4,1.7l1-1.6l2.3,1.6l1.5-2.2L1414.6,321z"/>
		<path id="XMLID_00000129926922421496987960000005792681141351669153_" class="st2" d="M1447.6,336.4v-15.3l2.7-0.7l0.2,0.1
			l-0.1,15.4l-2.7,0.6L1447.6,336.4z"/>
	</g>
	<path id="XMLID_00000041284381086395789290000007404031797627313061_" class="st0" d="M1105.2,295.3c-8.7-15.4-17.8-28.8-27.5-40
		v40h-13.5v-61.1h11.2c3.3,3.3,7.8,8.7,13.6,16.2c3.9,5.1,8.6,11.7,14.1,19.9v-36.1h13.6v61.1H1105.2z"/>
	<path id="XMLID_00000167370712892822003110000006551743425126722484_" class="st0" d="M1130.7,280c4.5,2.5,9.8,3.7,15.9,3.7
		c3.5,0,6-0.6,7.6-1.7c1.3-1,1.9-2.4,1.9-4.3c0-1.9-0.9-3.5-2.7-4.8c-1.7-1.2-4.8-2.6-9.3-4.1c-5.2-1.9-8.8-3.8-10.9-5.6
		c-3.5-3-5.2-6.9-5.2-11.7c0-5.4,2-9.6,5.9-12.9c3.8-3.1,9-4.7,15.7-4.7c6.6,0,12.4,1.3,17.3,4l-3.8,10.4c-4.1-2.1-8.3-3.2-12.7-3.2
		c-5.9,0-8.9,1.8-8.9,5.3c0,1.9,1,3.5,2.9,4.7c1,0.7,3.4,1.8,7.2,3.1c6.6,2.5,11.1,4.9,13.5,7.2c3,2.8,4.4,7,4.4,12.4
		c0,5.6-1.9,9.8-5.7,12.7c-3.9,3-9.7,4.5-17.4,4.5c-4.6,0-8.7-0.5-12.5-1.6c-3-0.9-5.3-1.8-7.1-2.8L1130.7,280z"/>
	<path id="XMLID_00000152982807886538931940000000603074937434383780_" class="st0" d="M1180,235.5c5.5-1,11.6-1.5,18.2-1.5
		c8.3,0,14.5,1.2,18.8,3.6c4.9,2.8,7.3,7.2,7.3,13.3c0,4.8-2.3,8.6-6.9,11.3c6.6,2.4,9.8,7.2,9.8,14.2c0,12.6-9.1,19-27.3,19
		c-7.8,0-14.4-0.6-19.9-1.8V235.5z M1199.7,258.1c4.1,0,7.1-0.5,8.9-1.6c1.8-1.1,2.7-2.8,2.7-5.2c0-2.3-0.9-4-2.8-5
		c-1.8-1-4.5-1.5-8.1-1.5c-3.4,0-5.9,0.1-7.3,0.3v13H1199.7z M1193.1,283.9c2.3,0.2,4.7,0.4,7,0.4c9,0,13.5-2.7,13.5-8.2
		c0-5.1-4-7.7-12-7.7h-8.5V283.9z"/>
	<path id="XMLID_00000001650203035674849160000012855283147585841809_" class="st0" d="M1451.1,256.1v24.3c0,4.6-1.3,8.2-4,10.8
		c-1.5,1.5-3.7,2.7-6.4,3.4c-2,0.5-4.5,0.8-7.5,0.8h-13.1c-2.1,0-3.8-0.2-5.2-0.6c-1.5-0.4-3-1.2-4.6-2.3c-2.8,1.5-6.2,2.3-10.3,2.3
		c-4.2,0-8.4-1.3-12.6-4c-3.9,3.1-8.1,4.6-12.7,4.6h-7.3c-1.9,0-3.9-0.5-6-1.5c-1.6,0.7-2.8,1.1-3.6,1.2c-1.1,0.2-2.3,0.3-3.8,0.3
		h-13.1c-4.9,0-8.7-0.7-11.4-2.3c-2.7,1.5-6.5,2.3-11.4,2.3h-37.3c-2.9,0-5.3-0.3-7.4-0.8c-2.6-0.7-4.9-1.8-6.9-3.4
		c-2.1-1.8-3.7-4.2-4.6-7.4c-0.8-2.7-1.2-5.7-1.2-9c0-6.4,1.5-11.8,4.5-16.2l9.9,4.2c-2.4,4.2-3.6,7.8-3.6,11c0,3.1,0.9,5.4,2.6,6.7
		c1.5,1.2,4,1.9,7.4,1.9h39.2c1.4,0,2.2-0.9,2.4-2.8v-19.1l12.9-4.4v23.4c0.2,2,1,2.9,2.4,2.9h15.6c1.6,0,2.5-1.1,2.7-3.2v-18.7
		l12.5-4.4v27.6c2.2,0.5,4,0.6,5.5,0.5c2.1-0.2,3.7-1,4.7-2.5c1-1.6,1.5-4.5,1.5-8.5v-12.6l12.6-4.4v17.7c0,3.3-0.3,6.2-1,8.6
		c2.1,1.1,4,1.7,5.8,1.7c2.4,0.1,4.2-0.7,5.3-2.5c1.1-1.6,1.6-4.4,1.6-8.5v-12.6l12.5-4.4v21.8c0,1.3,0.1,2.3,0.3,2.9
		c0.4,1.1,1.1,1.6,2.2,1.6h15.7c1.1,0,1.8-0.5,2.2-1.6c0.2-0.6,0.3-1.6,0.3-2.9v-17.4L1451.1,256.1z"/>
	<path id="XMLID_00000124139678196758240820000002913621555329343382_" class="st0" d="M1437.6,245.6v7.4l13.5-4.6v-7.2
		L1437.6,245.6z"/>
	<path id="XMLID_00000129169013842914204330000004735807244713584792_" class="st0" d="M1290.1,305.8v7.4l13.5-4.6v-7.2
		L1290.1,305.8z"/>
</g>
</svg>
