<?xml version="1.0" encoding="utf-8"?>
<!-- Generator: Adobe Illustrator 26.3.1, SVG Export Plug-In . SVG Version: 6.00 Build 0)  -->
<svg version="1.1" id="Layer_1" xmlns="http://www.w3.org/2000/svg" xmlns:xlink="http://www.w3.org/1999/xlink" x="0px" y="0px"
	 viewBox="0 0 588.3 514.7" style="enable-background:new 0 0 588.3 514.7;" xml:space="preserve">
<style type="text/css">
	.st0{fill:gainsboro;}
</style>
<path id="XMLID_00000127015286864303700500000002000958968118410901_" class="st0" d="M424.6,83.4h18.1V56.8h72.7v117.6H443v-26.6
	h-17.3c-1.2,4.9-0.9,11.3-4,14.5c-3.1,3.2-9.4,3.2-15,4.9v262.7h53.9v72.7H260.8v-72.3h54v-264c-11.4-1.7-17.4-7.8-18.2-18.4H87.6
	c-0.1,1.8-0.3,3.6-0.3,5.5c0,43.7,0,87.3-0.1,131c0,3.7,1.1,6.3,3.7,8.9c7.4,7.1,14.8,14.2,21.7,21.8c3.9,4.3,8,6.6,13.8,5.7
	c1.8-0.3,3.7,0,6,0v72.6H23.9v-71.9c0.3-0.2,0.6-0.6,0.9-0.5c10.4,2,17.4-3.2,23.8-10.6c5.5-6.3,11.8-11.8,17.6-17.8
	c1.4-1.5,2.8-3.8,2.8-5.7c0.1-45.8,0.1-91.5,0.1-137.3c0-0.4-0.2-0.7-0.4-1.7H10.9c2-2.3,3.2-3.7,4.4-4.9
	c18.4-18.4,36.8-36.7,55.1-55.3c2.8-2.8,5.5-3.9,9.4-3.9c72.2,0.1,144.3,0.1,216.5,0.2c4.1,0,7-1,9.9-4
	c15.4-15.7,30.9-31.4,46.7-46.8c2.2-2.1,5.8-3.8,8.9-3.8c17.1-0.4,34.2-0.2,51.3-0.2c8.2,0,11.4,3.2,11.4,11.4
	C424.7,54.6,424.6,68.9,424.6,83.4L424.6,83.4z M442.6,448.7H279.2v35.8h163.4V448.7z M369.9,47.5v6.4c0,21.6,0,43.3,0,64.9
	c0,7.2-3.1,10.4-10.3,10.4c-12.9,0-25.8,0-38.7,0c-1.8,0-3.6,0-5.3,0v17.9H406V47.5L369.9,47.5L369.9,47.5z M497.2,156.4V75h-35.7
	v81.4L497.2,156.4L497.2,156.4z M42,375h72.2v-35.8H42V375z M315.9,110.7h35.4V60.4c-9.8,9.9-18.5,19.5-28.1,28
	C316.1,94.6,313.5,101.4,315.9,110.7L315.9,110.7z M382.7,248.4c-7.6-7.7-15.2-15.3-21.8-21.9c-7.1,7.1-14.7,14.7-21.4,21.4
	c7.1,7.1,14.6,14.7,21.8,21.9C368.4,262.7,375.9,255.2,382.7,248.4L382.7,248.4z M361.4,298.8c-7.7,7.6-15.3,15.2-22,21.9
	c7.1,7.2,14.7,14.8,21.4,21.5c7.1-7.1,14.7-14.7,22-21.9C375.8,313.2,368.3,305.7,361.4,298.8z M361.2,371.6
	c-7.5,7.6-15.1,15.1-22.1,22.1c7.1,7.1,14.7,14.7,21.7,21.7c7.1-7.1,14.7-14.7,22.1-22.1C375.9,386.2,368.4,378.7,361.2,371.6
	L361.2,371.6z M360.7,198.4c8.9-8.9,17.3-17.1,25.4-25.5c1.5-1.5,1.7-4.3,2.5-6.8h-55.9c0.9,2.6,1.1,5.1,2.4,6.5
	C343.4,181.2,351.9,189.5,360.7,198.4L360.7,198.4z M108.9,129c-8.8-8.8-17.7-17.6-25.6-25.4C74.9,112,66,121,57.9,129H108.9
	L108.9,129z M136.7,128c8.8-8.8,17.6-17.7,25.4-25.6h-50.9C120,111.2,128.8,120,136.7,128L136.7,128z M217.8,129.2
	c-8.7-8.8-17.5-17.7-25.3-25.6c-8.4,8.4-17.3,17.3-25.6,25.6H217.8L217.8,129.2z M272.9,102.5h-52c8.7,8.7,17.5,17.5,25.9,25.9
	C255.3,120,264.1,111.2,272.9,102.5L272.9,102.5z M442.6,102.3H425v26.7h17.7V102.3z M296.7,108.6c-6.7,6.7-13.9,13.8-20.4,20.4
	h20.4V108.6z M346.9,212c-4.6-4.7-8.9-9-13-13.1v25.6C338.5,220.1,342.9,215.9,346.9,212L346.9,212z M374.7,211
	c4.6,4.6,8.9,8.8,12.9,12.8v-25.2C383.2,202.9,378.8,207,374.7,211L374.7,211z M333.7,296.5c4.5-4,9.1-8.1,12.9-11.5
	c-4.5-4.5-8.8-8.8-12.9-12.9V296.5z M387.9,272.3c-4,4-8.4,8.3-12.4,12.3c3.7,3.7,8.1,8,12.4,12.2V272.3z M65.3,320.4h26.4
	c-4.7-4.8-9-9.1-13.1-13.2C74.1,311.6,69.8,315.9,65.3,320.4z M333.6,369.2c4.1-4.1,8.6-8.5,11.8-11.7c-3.6-4.1-7.6-8.6-11.8-13.3
	V369.2z M387.8,370.8v-26.1c-4.5,4.2-9,8.4-13.5,12.6C378.7,361.8,383,366,387.8,370.8z M345.6,430c-3.9-4.1-7.9-8.3-11.7-12.3V430
	H345.6z M374.3,429.8h13.3v-13.3C383,421,379.1,425,374.3,429.8z"/>
</svg>
