<?xml version="1.0" encoding="UTF-8"?><svg id="Layer_1" xmlns="http://www.w3.org/2000/svg"   viewBox="0 0 588.26 514.72">  <path  class="cls-1" d="M358.88,336.17c2.77,.53,5.27,1.02,8.13,1.57-2.62-7.06-1.47-13.38,2.94-19.03-7.63-10.64-5.27-23.31,8.14-29.63-16.67-13.2-25.28-30.29-24.32-51.57,.71-15.86,7.04-29.49,18.66-40.39,24.25-22.72,62.08-21.55,84.49,2.2,23.17,24.55,22.9,66.03-7.81,89.75,13.38,8.48,15.77,17.19,7.97,29.5,5.72,7.79,5.96,15.74,.1,23.67,7.4,14.41,5.18,22.19-8.19,29.59v13.16c1.73,1.04,3.9,2.05,5.72,3.49,5.9,4.66,8.12,12.44,5.81,19.53-2.28,6.99-8.85,12.23-16.27,12.29-20.46,.15-40.92,.22-61.37-.1-3.76-.06-7.49-2.1-12.25-3.53-4.3,4.08-10.95,3.75-17.59,3.72-16.59-.07-33.18-.1-49.77,.02-5.64,.04-10.95-.58-15.44-4.6-4.62,3.84-9.86,4.65-15.52,4.61-17.96-.15-35.93-.13-53.89,0-5.31,.04-10.13-.97-14.55-4.59-4.81,4.34-10.69,4.63-16.78,4.59-17.71-.12-35.43-.03-53.14-.05-14.06-.01-21.8-9.5-19.08-23.31,.07-.35,.04-.72,.06-1.04-13.69-7.63-16.49-17.31-8.57-29.4-9.51-17.31-2.25-29.25,19.23-30.27-15.96-13.4-24.34-30.03-23.35-50.45,1-20.54,10.41-36.73,27.73-47.89,26.53-17.1,62.15-10.03,80.61,15.53,19.38,26.82,13.94,67.75-18.75,87.26,5.74,5.87,7.61,12.69,5.04,19.87,22.6-.43,45.35-.28,68.08-.02,3.63,.04,7.23,2.16,11.64,3.57,1.27-.7,3.54-1.95,5.63-3.1v-12.34c-1.57-.3-3.41-.53-5.19-1.01-8.53-2.28-14.14-10.58-13.14-19.3,.99-8.57,8.15-15.73,16.77-15.82,20.7-.22,41.41-.18,62.12-.01,8.78,.07,19.52,8.76,16.13,23.51Zm6.72-95.33c.01,26.09,21.54,47.69,47.61,47.76,26.61,.07,48.21-21.39,48.2-47.91-.01-26.56-21.5-47.95-48.16-47.93-26.26,.02-47.66,21.62-47.65,48.08Zm-155.74,47.92c.04-26.59-21.38-48.04-48.01-48.07-26.29-.03-47.74,21.48-47.8,47.93-.06,26.26,21.58,47.93,47.84,47.9,26.43-.02,47.93-21.43,47.97-47.76Zm203.28,23.8c9.61,0,19.21,.02,28.82,0,4.71-.01,7.46-2.26,7.46-5.99,0-3.73-2.74-5.97-7.46-5.98-18.96-.02-37.93-.02-56.89,0-4.73,0-7.45,2.24-7.45,5.98,0,3.74,2.73,5.97,7.46,5.98,9.36,.03,18.71,0,28.07,0Zm-101.53,23.96c9.48,0,18.96,.02,28.44,0,4.75-.01,7.49-2.19,7.55-5.9,.06-3.74-2.7-6.06-7.37-6.06-18.96-.02-37.93-.02-56.89,0-4.77,0-7.48,2.17-7.54,5.89-.06,3.84,2.75,6.07,7.74,6.08,9.36,.02,18.71,0,28.07,0Zm101.82,0c9.48,0,18.96,.02,28.44,0,4.76-.01,7.49-2.19,7.55-5.9,.06-3.74-2.7-6.06-7.37-6.06-18.96-.02-37.93-.02-56.89,0-4.77,0-7.48,2.16-7.54,5.89-.06,3.84,2.75,6.07,7.74,6.08,9.36,.02,18.71,0,28.07,0Zm-263.44,11.98c-9.48,0-18.96-.02-28.45,0-4.73,.01-7.46,2.24-7.46,5.98,0,3.73,2.74,5.98,7.45,5.99,18.96,.02,37.93,.02,56.89,0,4.71,0,7.46-2.26,7.46-5.98,0-3.73-2.74-5.97-7.46-5.98-9.48-.03-18.96,0-28.45,0Zm180.05,0c-9.61,0-19.21-.02-28.82,0-4.73,.01-7.46,2.23-7.46,5.98,0,3.73,2.74,5.98,7.45,5.99,18.96,.02,37.93,.02,56.89,0,4.71,0,7.46-2.26,7.47-5.98,0-3.73-2.74-5.97-7.46-5.98-9.36-.03-18.71,0-28.07,0Zm83.47,0c-9.48,0-18.96-.02-28.45,0-4.73,.01-7.46,2.24-7.46,5.98,0,3.73,2.74,5.98,7.45,5.99,18.96,.02,37.93,.02,56.89,0,4.71,0,7.46-2.26,7.46-5.98,0-3.73-2.74-5.97-7.46-5.98-9.48-.03-18.96,0-28.45,0Zm-263.9,35.94c9.61,0,19.21,.02,28.82,0,4.71-.01,7.46-2.26,7.46-5.99,0-3.73-2.74-5.97-7.46-5.98-18.96-.02-37.93-.02-56.89,0-4.73,0-7.45,2.24-7.45,5.98,0,3.73,2.74,5.97,7.46,5.98,9.36,.03,18.71,0,28.07,0Zm84.56,0c9.36,0,18.71,.02,28.07,0,4.73-.01,7.47-2.23,7.5-5.95,.02-3.74-2.72-6.01-7.43-6.01-18.96-.02-37.93-.02-56.89,0-4.74,0-7.47,2.21-7.49,5.95s2.72,6.01,7.42,6.02c9.61,.03,19.21,0,28.82,0Zm83.26,0c9.48,0,18.96,.01,28.45,0,4.97,0,7.8-2.28,7.71-6.11-.08-3.71-2.81-5.85-7.59-5.86-18.84-.02-37.68-.01-56.52,0-4.98,0-7.79,2.26-7.71,6.11,.08,3.71,2.81,5.85,7.58,5.86,9.36,.02,18.71,0,28.07,0Zm84.13-11.98c-9.48,0-18.96-.02-28.44,0-4.74,.01-7.47,2.21-7.49,5.95-.02,3.74,2.72,6.01,7.42,6.02,18.96,.02,37.93,.02,56.89,0,4.73,0,7.47-2.23,7.5-5.95,.02-3.74-2.72-6-7.43-6.01-9.48-.03-18.96,0-28.44,0Zm-239.26,35.94c9.36,0,18.71,.02,28.07,0,4.73-.01,7.47-2.23,7.5-5.95,.02-3.74-2.72-6.01-7.43-6.01-18.96-.02-37.93-.02-56.89,0-4.74,0-7.47,2.21-7.49,5.95-.02,3.74,2.72,6.01,7.42,6.02,9.61,.03,19.21,0,28.82,0Zm83.89-11.98c-9.61,0-19.21-.02-28.82,0-4.73,.01-7.46,2.23-7.46,5.97,0,3.74,2.73,5.99,7.45,5.99,18.96,.02,37.93,.02,56.89,0,4.71,0,7.47-2.26,7.47-5.98,0-3.73-2.74-5.97-7.46-5.98-9.36-.03-18.71,0-28.07,0Zm83.19,11.98c9.48,0,18.96,.01,28.45,0,4.99,0,7.81-2.25,7.75-6.08-.06-3.72-2.79-5.89-7.55-5.89-18.96-.02-37.93-.02-56.89,0-4.68,0-7.43,2.32-7.37,6.07,.06,3.73,2.78,5.89,7.54,5.9,9.36,.02,18.71,0,28.07,0Zm83.76,0c9.61,0,19.21,.02,28.82,0,4.71-.01,7.46-2.26,7.46-5.99,0-3.73-2.74-5.97-7.46-5.98-18.96-.02-37.93-.02-56.89,0-4.73,0-7.46,2.24-7.45,5.98,0,3.74,2.73,5.97,7.46,5.98,9.36,.03,18.71,0,28.07,0Z"/><path class="cls-1" class="cls-1" d="M341.36,300.45h-11.54v-11.63h-53.81v-12.04h53.34v-12.04h-53.4v-11.9h53.45v-12.04h-53.38v-12.04h53.41v-23.2c-27.91,3.5-55.59,6.97-83.64,10.49v132.27h-11.81c-.06-1.18-.16-2.37-.16-3.57,0-43.92,0-87.85,0-131.77,0-6.09,1.33-7.6,7.46-8.38,30.78-3.91,61.57-7.81,92.36-11.68,4.99-.63,7.94,1.68,7.95,6.46,.04,33.32,.01,66.63,0,99.95,0,.24-.1,.48-.23,1.12Z"/><path class="cls-1" d="M197.89,108.77c0-5.51,0-10.61,0-15.71,.01-6.18,1.89-8.08,7.96-8.12,1.21,0,2.43,0,3.91,0v-23.68h12.03v23.5h11.9v-11.58h11.9v11.76c2.09,0,3.78-.04,5.47,0,4.41,.13,6.63,2.31,6.69,6.76,.08,5.59,.02,11.18,.02,17.19,1.87,0,3.44-.03,5.02,0,4.67,.11,6.89,2.24,6.94,6.89,.07,5.58,.02,11.16,.02,17.08,2.22,0,4.06-.09,5.89,.02,3.58,.21,6,2.34,6.02,5.87,.1,17.83,.04,35.65,.04,53.74h-11.8v-47.35h-83.88v71.35h-12.1v-4.17c0-23.21,0-46.41,0-69.62,0-8.56,1.15-9.74,9.6-9.86,.62,0,1.23-.06,2.38-.12,0-4.84,0-9.66,0-14.47,0-7.91,1.34-9.25,9.35-9.37,.73-.01,1.46-.07,2.63-.12Zm.17,23.82h59.42v-11.52h-59.42v11.52Zm47.6-35.4h-35.6v11.49h35.6v-11.49Z"/><path class="cls-1" d="M311.82,186.59h-12.11v-4.2c0-25.2,0-50.41,0-75.61,0-8.56,1.15-9.74,9.6-9.86,.62,0,1.23-.06,2.38-.12,0-5.34-.01-10.66,0-15.97,.02-5.44,1.45-7.16,6.71-7.98,25-3.89,50-7.77,75-11.65,5.22-.81,8.08,1.62,8.11,7.01,.05,9.45,.01,18.9,.01,28.72,2.06,0,3.77-.05,5.48,.01,4.03,.16,6.44,2.29,6.46,6.22,.07,21.7,.03,43.4,.03,65.38h-11.92v-59.44h-89.75v77.51Zm77.57-112.6c-22.02,3.4-43.81,6.76-65.46,10.1v12.55h65.46v-22.65Z"/><path class="cls-1"  d="M365.4,132.7h-11.54v-11.6h11.54v11.6Z"/><path  class="cls-1" d="M335.5,151.12v11.47h-11.65v-11.47h11.65Z"/><path d="M209.71,157.01v11.54h-11.6v-11.54h11.6Z"/><path class="cls-1" d="M377.72,168.52v-11.49h11.65v11.49h-11.65Z"/><path class="cls-1" d="M257.52,174.62h-11.53v-11.52h11.53v11.52Z"/><path class="cls-1" d="M353.68,192.53v-11.45h11.65v11.45h-11.65Z"/><path class="cls-1" d="M215.68,193.01v11.54h-11.52v-11.54h11.52Z"/><path class="cls-1"  d="M419.49,276.47h-11.98c0-1.23-.14-2.33,.03-3.38,.37-2.36-.73-3.43-2.77-4.5-6.16-3.23-9.09-8.55-9.24-15.71h11.62c1.34,4.71,3.18,6.46,7.17,5.61,1.84-.39,4.31-2.18,4.72-3.78,.41-1.59-.9-4.5-2.36-5.52-3.34-2.32-7.25-3.81-10.92-5.67-6.29-3.19-10.04-8.21-10.15-15.36-.11-7.29,3.46-12.49,9.87-15.92,.93-.5,1.65-1.87,1.95-2.98,.33-1.27,.08-2.69,.08-4.28h11.98c0,1.16,.14,2.26-.03,3.31-.38,2.37,.74,3.43,2.78,4.49,6.2,3.21,8.99,8.61,9.28,15.71h-11.69c-1.35-4.74-3.15-6.46-7.17-5.62-1.84,.39-4.3,2.17-4.71,3.78-.4,1.59,.9,4.5,2.37,5.51,3.34,2.32,7.25,3.81,10.91,5.67,6.44,3.26,10.18,8.42,10.15,15.73-.03,7.12-3.57,12.22-9.86,15.55-.94,.5-1.66,1.87-1.95,2.98-.33,1.27-.08,2.69-.08,4.37Z"/><path class="cls-1" d="M168.09,252.88c-1.57,5.07,1.49,7.15,5.13,9.53,4.75,3.11,6.64,8.13,6.71,14.03h-11.38c-1.96-4.95-3.59-6.51-7.49-5.63-1.83,.41-4.27,2.23-4.66,3.84-.38,1.6,.96,4.46,2.44,5.48,3.35,2.31,7.25,3.81,10.91,5.67,6.31,3.2,10.01,8.26,10.09,15.39,.08,7.27-3.47,12.49-9.93,15.88-.92,.49-1.6,1.9-1.89,3.02-.32,1.27-.07,2.68-.07,4.24h-12.12c1.54-5.04-1.47-7.15-5.13-9.53-4.76-3.1-6.67-8.11-6.71-14.02h11.63c.64,3.43,2.31,5.98,6.52,5.83,2.85-.1,4.88-1.23,5.61-3.99,.69-2.64-.55-4.62-2.91-5.85-3.43-1.78-6.88-3.5-10.34-5.2-6.48-3.19-10.33-8.25-10.42-15.56-.09-7.29,3.5-12.48,9.94-15.88,.92-.49,1.6-1.9,1.88-3.02,.32-1.27,.07-2.68,.07-4.24h12.13Z"/></svg>