<?xml version="1.0" encoding="utf-8"?>
<!-- Generator: Adobe Illustrator 26.3.1, SVG Export Plug-In . SVG Version: 6.00 Build 0)  -->
<svg version="1.1" id="Layer_1" xmlns="http://www.w3.org/2000/svg" xmlns:xlink="http://www.w3.org/1999/xlink" x="0px" y="0px"
	 viewBox="0 0 588.3 514.7" style="enable-background:new 0 0 588.3 514.7;" xml:space="preserve">
<style type="text/css">
	.st0{fill:gainsboro;}
</style>
<path id="XMLID_00000110465157961574582570000004892127701056840836_" class="st0" d="M77.8,410.5V144.3c-12-3.4-15.1-7.6-15.1-20.2
	c0-3.3,0-6.6,0-9.8c0.2-9.9,6.4-16.2,16.3-16.2c33.3,0,66.6,0,99.9,0c1.8,0,3.5,0,5.6,0V83.2c-0.9-0.3-2-0.6-3.1-1
	c-7-2-11.3-6.8-11.7-14.1c-0.3-5.5-0.3-11.1,0-16.6c0.5-8.8,6.7-14.6,15.5-14.6c81.2,0,162.4,0,243.6,0c8.9,0,15.2,6.3,15.4,15.1
	c0.1,3.9,0,7.8,0,11.6c0,12-3.3,16.3-15.3,19.3v5.2c0,50.2,0,100.3,0,150.5c0,1.5,0.1,3-0.1,4.5c-0.3,4.2-3.2,7-7.2,7.1
	c-4,0.2-7.2-2.4-7.8-6.5c-0.3-1.6-0.2-3.3-0.2-4.9c0-50.2,0-100.3,0-150.5V83H200.4v15h5.4c37.6,0,75.2,0,112.8,0
	c13,0,18.1,4.7,19.2,18.9c4.1-10.3,11.9-11.8,20.7-11.4c5.2,0.3,10.4,0,15.7,0.1c10.4,0.1,16.5,6.1,16.7,16.3c0.1,7,0.2,14,0,21
	c-0.3,10-6.5,15.9-16.5,16c-7,0-14,0.1-21,0c-9.4-0.1-15.7-6.3-15.8-15.7c0-3.2,0-6.5-0.3-10c-2.9,6.4-7.9,10-14.8,10.7v205.8
	c4.4,0,8.7,0,13,0c7.5,0,14.9-0.1,22.4,0c5.2,0.1,8.6,3.3,8.4,7.8c-0.1,4.4-3.4,7.3-8.4,7.3c-11.6,0.1-23.2,0-35.2,0v45.8
	c2.3,0,4.7-0.1,7,0c4.6,0.4,7.8,3.6,7.8,7.7c0,4.1-3.2,7.2-7.9,7.5c-1.3,0.1-2.7,0-4,0c-83.6,0-167.2,0-250.8,0
	c-1.6,0-3.3,0.1-4.9-0.1c-3.9-0.4-6.7-3.3-6.9-7c-0.3-3.6,2.2-7,6.1-7.7C71.7,410.7,74.6,410.8,77.8,410.5L77.8,410.5z M93.6,143.9
	v266.6h213.2V143.9L93.6,143.9L93.6,143.9z M78.3,128.1h243.8v-14.6H78.3V128.1z M185.1,67.2h243.6V52.6H185.1L185.1,67.2
	L185.1,67.2z M353.1,121.1v22.3h22.2v-22.3H353.1z"/>
<path id="XMLID_00000140007770726544290390000015792370674647442351_" class="st0" d="M413.3,380.2c-29.3-7.9-45.4-27.4-51.6-55.4
	c-6.7-30.2,11.2-57.6,41.4-64.4c14.1-3.1,28.1-2.8,42,1.6c25.5,8.1,40.7,31.3,36.8,57.7c-4,27.3-17.8,47.7-44.3,58
	c-2.2,0.9-4.5,1.4-7,2.7c2.9,0.5,5.7,1,8.6,1.6c46,8.3,80.2,48.1,81.3,94.7c0.2,8.1-2.1,10.5-10.1,10.5c-16.7,0-33.4,0-50.6,0
	c-1,6.9-5.9,7.8-11.8,7.7c-17.8-0.2-35.5-0.2-53.3,0c-5.9,0.1-10.5-1-11.6-7.8c-16.7,0-33.1,0-49.5,0c-9.3,0-11.7-2.1-11.2-11.3
	c2.1-41.6,23.6-70,60.5-87.2c8.5-3.9,18.2-5.2,27.4-7.7C411.1,380.7,411.9,380.5,413.3,380.2L413.3,380.2z M423.5,272.9
	c-5.6,0.6-9.8,0.9-13.8,1.6c-20.6,3.8-34.1,18.6-33.8,37.9c0.3,19.1,8.6,34.6,24.2,45.6c14.3,10.1,31,9.4,44.9-1.3
	c12.4-9.6,19.7-22.3,21.8-37.7c2.8-20.1-7-35.9-26.2-42.4C434.6,274.6,428.4,273.9,423.5,272.9L423.5,272.9z M391.1,401.9
	c-25.8,6.3-53.3,42.6-52.6,69.6c0.5,0.1,1.1,0.3,1.6,0.3c14.3,0,28.6,0,43,0.1c3.1,0,3.3-1.8,3.6-3.9c3.1-17.4,6.3-34.9,9.4-52.3
	c0.2-1.1,0.3-2.4-0.1-3.4C394.5,408.8,392.7,405.4,391.1,401.9L391.1,401.9z M456.9,471.5h47.9c-3.1-37.5-31.6-63.5-53.2-69.6
	c-1.2,2.8-2.6,5.6-3.6,8.6c-0.6,1.9-1.4,4-1.1,5.8C450.1,434.6,453.5,452.9,456.9,471.5L456.9,471.5z M410,425.1
	c-3.2,17.4-6.5,35.7-9.8,54.3h42.6c-3.4-18.6-6.7-36.9-9.9-54.3H410z M406.6,396.7c1.7,9,8,14.3,15.7,13.9c7.4-0.4,13.3-6,13.9-13.9
	H406.6z"/>
<path id="XMLID_00000171696454675439917080000011842381956113702810_" class="st0" d="M337.6,201.1c0-3.9-0.1-7.8,0-11.6
	c0.2-8.4,6.2-14.8,14.6-15.1c8-0.3,16.1-0.3,24.1,0c7.9,0.3,13.9,6,14.4,13.8c0.5,8.5,0.5,17,0,25.5c-0.4,8.2-6.7,13.8-15.1,14.1
	c-7.6,0.2-15.2,0.2-22.8,0c-9.1-0.3-15.1-6.8-15.2-15.9C337.5,208.2,337.6,204.6,337.6,201.1L337.6,201.1z M375.4,212.5v-22.7h-22.3
	v22.5c1.4,0.1,2.4,0.1,3.4,0.1C362.7,212.5,368.7,212.5,375.4,212.5L375.4,212.5z"/>
<path id="XMLID_00000124877406689287473210000011148982928364186802_" class="st0" d="M352.8,257.3c0,8.3-0.1,15.1,0.1,21.9
	c0,1.1,1.1,2.3,1.9,3.2c2.5,3,3,6.2,0.7,9.4c-2.4,3.4-5.8,4.2-9.5,2.5c-5-2.4-8.4-6.4-8.5-12.2c-0.2-8.3-0.2-16.7,0-25.1
	c0.2-7.9,6.4-14,14.4-14.2c8.1-0.2,16.2-0.5,24.1,0.2c3.6,0.3,7.5,2.6,10.4,4.9c2.5,1.9,2.3,5.4,0.5,8.2c-1.9,2.9-4.6,3.9-8.1,3.5
	C370.5,259,361.9,258.2,352.8,257.3L352.8,257.3z"/>
<path id="XMLID_00000002342102148621093840000006001972120901537981_" class="st0" d="M154.4,288.7c-4.9,0-9.8,0.1-14.8,0
	c-8.9-0.2-15.4-6.1-15.7-15c-0.3-7.7-0.3-15.5,0-23.2c0.3-8.9,6.6-15,15.5-15.2c10-0.2,20-0.2,30,0c9,0.2,15.2,6.2,15.5,15.2
	c0.3,7.7,0.3,15.5,0,23.2c-0.3,9-6.7,14.8-15.7,15C164.2,288.8,159.3,288.7,154.4,288.7L154.4,288.7z M139.3,273.2h29.9v-22.4h-29.9
	V273.2z"/>
<path id="XMLID_00000001635710591778318820000000378899510022332811_" class="st0" d="M154.5,304c5.1,0,10.1-0.1,15.2,0
	c8.3,0.2,14.6,5.9,15,14.1c0.4,8.3,0.4,16.7,0,25c-0.4,8.1-6.4,13.9-14.6,14.1c-10.4,0.3-20.9,0.3-31.3,0c-8.7-0.2-14.7-6.4-15-15.2
	c-0.3-7.6-0.3-15.2,0-22.8c0.3-9.2,6.7-15.2,15.9-15.3C144.6,304,149.5,304,154.5,304L154.5,304z M139.1,319.5
	c0,7-0.1,13.6,0.1,20.3c0,0.8,1.5,2.3,2.3,2.4c9.2,0.2,18.4,0.1,27.9,0.1v-22.7H139.1L139.1,319.5z"/>
<path id="XMLID_00000083081533345731401250000012388068935685270440_" class="st0" d="M154.5,220c-4.9,0-9.8,0.1-14.8,0
	c-9.2-0.2-15.6-6.1-15.9-15.2c-0.3-7.6-0.3-15.2,0-22.8c0.3-9,6.4-15,15.4-15.2c10.1-0.2,20.3-0.2,30.4,0c8.8,0.2,14.8,6.1,15.1,15
	c0.3,7.7,0.3,15.5,0,23.2c-0.3,9-6.5,14.8-15.6,15C164.3,220.1,159.4,220,154.5,220L154.5,220z M139.4,204.3h29.9v-22.1h-29.9V204.3
	z"/>
<path id="XMLID_00000141438034931794538010000008335039941098984352_" class="st0" d="M245.9,288.7c-4.9,0-9.8,0.1-14.8,0
	c-9-0.2-15.3-6.2-15.6-15.1c-0.2-7.7-0.2-15.5,0-23.2c0.2-8.7,6.3-14.9,15.1-15.1c10.1-0.2,20.3-0.2,30.4,0
	c8.9,0.2,15.2,6.4,15.5,15.3c0.3,7.6,0.2,15.2,0,22.8c-0.3,9.1-6.7,15.2-15.8,15.3C255.7,288.8,250.8,288.7,245.9,288.7L245.9,288.7
	z M261.1,250.8h-30v22.4h30V250.8L261.1,250.8z"/>
<path id="XMLID_00000124845499546004259660000001472671919953797524_" class="st0" d="M246,304c4.9,0,9.8-0.1,14.8,0
	c8.9,0.1,15.4,6.1,15.7,15c0.3,7.7,0.3,15.5,0,23.2c-0.3,8.7-6.4,14.9-15.1,15.1c-10.3,0.3-20.6,0.3-30.9,0
	c-8.8-0.2-14.7-6.4-15-15.2c-0.2-7.6-0.2-15.2,0-22.8c0.2-9.2,6.5-15.2,15.7-15.4C236.2,304,241.1,304,246,304L246,304z M231,319.4
	v22.5h30v-22.5H231z"/>
<path id="XMLID_00000153676503475901089030000014780155148861040311_" class="st0" d="M245.9,220c-5.1,0-10.1,0.1-15.2,0
	c-8.7-0.2-14.9-6.2-15.1-14.9c-0.2-7.9-0.2-15.8,0-23.7c0.3-8.3,6.2-14.3,14.6-14.5c10.4-0.3,20.9-0.3,31.3,0
	c8.7,0.2,14.8,6.4,15.1,15.1c0.3,7.6,0.2,15.2,0,22.8c-0.3,9.1-6.6,15.1-15.8,15.3C255.8,220.1,250.8,220,245.9,220L245.9,220z
	 M231.1,182.2v22.1H261v-22.1H231.1z"/>
</svg>
