<?xml version="1.0" encoding="utf-8"?>
<!-- Generator: Adobe Illustrator 26.3.1, SVG Export Plug-In . SVG Version: 6.00 Build 0)  -->
<svg version="1.1" id="Layer_1" xmlns="http://www.w3.org/2000/svg" xmlns:xlink="http://www.w3.org/1999/xlink" x="0px" y="0px"
	 viewBox="0 0 588.3 514.7" style="enable-background:new 0 0 588.3 514.7;" xml:space="preserve">
<style type="text/css">
	.st0{fill:gainsboro;}
</style>
<path id="XMLID_00000010300330851757981060000000584316090140424335_" class="st0" d="M120.3,402.6c11,15.3,16.7,32.4,17.5,51.6
	h389.1v16.4h-5.5c-138.3,0-276.6,0-414.8,0c-15.2,0-26.7-6.9-31.4-19.4c-5.2-13.7-1.7-25.4,8.7-35.5c13.6-13.2,26.5-27.1,40.6-39.7
	c20.3-18.1,44.8-26.8,71.9-27c32.5-0.3,64.9-0.1,97.4-0.1c1.9,0,3.7,0,5.9,0c0.1-1.4,0.4-2.7,0.4-4c0-22.5,0-45,0.1-67.4
	c0-2.6-0.3-4.3-3.1-5.4c-35.7-13.3-71.5-26.7-107.2-40c-0.9-0.3-1.9-0.5-3.3-0.9v101.3h-16.2V327c0-16.6,0-33.1,0-49.7
	c0-2.6-0.4-4.3-3.2-5.3c-35.6-13.2-71.1-26.6-106.7-39.9c-1.1-0.4-2.2-0.6-3.6-1v255.4h470.1v16.2H40.6V207.4
	c13.4,5,26.4,9.8,40,14.9c0.1-1.8,0.3-3.3,0.3-4.7c0-8.3,0.4-16.6-0.1-24.9c-1-20.6,0.9-40.7,7.1-60.5c1.1-3.6,1-7.7,1-11.5
	c0.1-10.3,0-20.6,0-31.3h48.7c0,4.5,0.3,9,0,13.5c-1.2,17.8,1.5,34.9,6.5,51.9c1.2,4,1.6,8.3,1.6,12.5c0.1,24.3,0.3,48.7-0.1,73
	c-0.1,5.2,1.5,7.5,6.3,8.8c5.9,1.7,11.7,4.2,18,6.5v-48.5c11.1,4.1,21.5,8,32.6,12c0-10.6,0.4-20.5-0.1-30.4
	c-0.9-18.8,1.3-37,6.8-54.9c1.3-4.4,1.3-9.3,1.4-14c0.2-10.1,0.1-20.2,0.1-30.6h48.7c0,2.2,0.1,4.5,0,6.8
	c-1.2,20.9,0.7,41.5,7.2,61.5c0.8,2.4,0.9,5,0.9,7.5c0.1,24.5,0.1,49-0.1,73.5c0,3.7,0.9,5.6,4.6,6.9c12.7,4.4,25.2,9.6,38,14
	c4.6,1.6,6.4,3.6,6.3,8.8c-0.3,26.5-0.2,53.1-0.2,80h15.9V154.3h-15.5V138h88.6v-32.4H284.1V89.2h5.6c19.9,0,39.9,0.1,59.8-0.1
	c2.2,0,5-1.1,6.5-2.7c15.7-15.4,31.2-30.9,46.6-46.6c1.5-1.6,2.6-4.3,2.7-6.5c0.5-10.4,7-17,17.4-17.1c5.1-0.1,10.1-0.1,15.2,0
	c9.1,0.2,16,7,16.1,16.1c0,3.5,1.1,5.9,3.6,8.4c15.2,15,30.2,30,45.2,45.2c2.5,2.5,4.9,3.6,8.4,3.4c5.1-0.3,10.1-0.1,15.6-0.1v16.1
	h-72.3v32.4h72.4v16.3h-15.5v194.8H527V365h-6.3c-105.8,0-211.7,0.3-317.5-0.2C169.6,364.7,142.4,376.8,120.3,402.6L120.3,402.6z
	 M349.1,154.3v96.8h145.4v-96.8L349.1,154.3L349.1,154.3z M349,348.5h145.4V268H349V348.5z M97.2,170.5c0,18.8,0,37.1,0.1,55.5
	c0,1,0.9,2.7,1.7,3c10,3.9,20.1,7.6,30.4,11.5v-70H97.2L97.2,170.5z M251.1,237.5v-66.9h-32.2c0,17.8,0,35.4,0.1,52.9
	c0,0.9,0.9,2.3,1.7,2.6C230.7,229.9,240.7,233.7,251.1,237.5z M422.2,32.5v56.3h15.4V32.5H422.2z M121.4,454.1
	c-0.6-14.7-4.6-27.7-12.6-39.4c-5.9,5.6-12.1,10.4-16.9,16.3c-6.8,8.4-1.3,21.5,9.6,22.9C107.9,454.8,114.6,454.1,121.4,454.1z
	 M437.7,137.6v-31.9h-15.6v31.9H437.7z M405.4,62.2c-9,8.9-18.1,17.9-26.8,26.6h26.8C405.4,88.8,405.4,62.2,405.4,62.2z M481.3,89
	c-9-8.9-18-18-26.7-26.7V89H481.3z M249,153.9c-1.5-5.8-2.8-10.9-4-15.8h-19.9c-1.3,5.3-2.5,10.4-3.8,15.8H249z M103.5,138
	c-1.3,5.4-2.5,10.5-3.8,15.8h27.6l-4-15.8H103.5L103.5,138z M227.3,105.6v15.6H243v-15.6H227.3z M121.2,121.4v-15.7h-15.6v15.7
	H121.2z"/>
<path id="XMLID_00000116955576878466684720000014745399532914085258_" class="st0" d="M105.3,72.7H89.5c0-11.1-1.1-22.3,0.3-33.2
	c1.8-14.6,15.2-24.3,29.7-23.3c14.3,1,25.4,12.5,26.3,27.4c0.6,9.7,8.2,15.4,16.4,12.3c5.5-2.2,7.7-6.5,8-12.3
	c0.9-15.7,13.1-27.4,28.3-27.4c15.4,0,27.4,11.7,28.4,27.8c0.6,9.6,9.2,15.4,17.3,11.5c5.1-2.5,6.9-6.9,7.2-12.4
	c0.7-13,9.5-23.3,22.2-26.2c12.1-2.8,24.7,2.5,30.6,13.6c2.1,4,3.3,8.9,3.8,13.4c1,8.1,5.3,12.6,13.4,12.8
	c6.1,0.1,12.2,0.1,18.2,0.2c0.1,0,0.3,0.2,0.7,0.5v16.2c-9.6-0.7-19.5-0.3-28.9-2.3c-11.3-2.5-18.7-13.4-19.5-25.1
	c-0.6-8.7-5.2-13.8-12.4-13.7c-7,0.1-11.5,5.1-12,13.5c-1,15.3-13.2,26.9-28.2,27C224,73,211.8,61.2,210.8,45.7
	c-0.5-8.2-5.3-13.3-12.3-13.3c-7,0.1-11.6,5.1-12.1,13.5c-1,15.3-13.1,27-28.2,27.1c-15.3,0.1-27.6-11.6-28.6-27.2
	c-0.5-8.4-5.6-13.7-12.7-13.3c-7,0.3-11.6,5.7-11.6,13.9C105.2,54.9,105.3,63.5,105.3,72.7L105.3,72.7z"/>
<path id="XMLID_00000013903264898555737980000011032674267613675688_" class="st0" d="M189.4,438.1c-6.7,0-13.5,0.1-20.3,0
	c-14-0.2-21.3-13.1-14.3-25.3c4.5-7.8,9.1-15.4,13.8-23c3.4-5.7,8.5-8.5,15.1-8.5c8.8,0,17.6-0.1,26.3,0c10,0.1,16.8,6.9,16.9,16.9
	c0.1,7.6,0.1,15.2,0,22.8c-0.1,10.3-6.9,16.9-17.3,17C202.9,438.1,196.2,438.1,189.4,438.1L189.4,438.1z M168.5,421.6h41.9v-24
	c-8.6,0-16.9,0-25.1,0.1c-1,0-2.5,0.4-3,1.2C177.7,406.1,173.2,413.6,168.5,421.6z"/>
<path id="XMLID_00000085220689183641035300000002376119067656772031_" class="st0" d="M397.4,409.6c0-4.2-0.1-8.5,0-12.7
	c0.4-8.6,7-15.3,15.6-15.6c5.7-0.2,11.5-0.2,17.2,0c8.8,0.3,15.5,7.1,15.7,16c0.2,8.3,0.2,16.6,0,24.8c-0.2,8.9-7,15.6-15.9,15.9
	c-5.7,0.2-11.5,0.2-17.2,0c-8.6-0.4-15.2-7.1-15.5-15.7C397.3,418.1,397.4,413.9,397.4,409.6L397.4,409.6z M429.6,421.6v-23.8H414
	v23.8H429.6z"/>
<path id="XMLID_00000055679025959592399400000002120118969965875334_" class="st0" d="M324.4,409.8c0-4.1-0.1-8.1,0-12.2
	c0.2-9.2,7-16,16-16.3c5.6-0.2,11.2-0.2,16.7,0c8.8,0.3,15.6,7,15.9,15.9c0.2,8.3,0.2,16.6,0,24.8c-0.2,9.1-7,15.8-16.2,16
	c-5.4,0.1-10.8,0.1-16.2,0c-9.1-0.3-15.9-7-16.2-16.1C324.3,417.9,324.4,413.8,324.4,409.8L324.4,409.8z M340.8,421.4h15.8v-23.6
	h-15.8V421.4z"/>
<path id="XMLID_00000114058308150164467210000016671024933219967887_" class="st0" d="M251.4,409.8c0-4.2-0.1-8.5,0-12.7
	c0.3-8.8,7.1-15.6,15.9-15.8c5.6-0.2,11.2-0.2,16.7,0c8.9,0.3,15.7,7,15.9,15.8c0.2,8.4,0.2,16.9,0,25.3c-0.3,8.6-7,15.2-15.6,15.6
	c-5.7,0.2-11.5,0.2-17.2,0c-8.8-0.3-15.4-7.2-15.7-16C251.2,417.9,251.3,413.9,251.4,409.8L251.4,409.8z M283.5,421.6v-23.8h-15.6
	v23.8H283.5z"/>
<path id="XMLID_00000167367925454821242130000007141471991312730261_" class="st0" d="M97,268v64.3H81.2V268H97z"/>
<path id="XMLID_00000019651285976148571270000004746657826082994832_" class="st0" d="M211.1,267.9h15.6v64.3h-15.6V267.9z"/>
<path id="XMLID_00000073701396210089462230000015912325841905219235_" class="st0" d="M510.8,381.6v15.6H479v-15.6H510.8z"/>
<path id="XMLID_00000032630311654946436940000013283839436276347811_" class="st0" d="M527,429.7h-31.8v-15.7H527V429.7z"/>
<path id="XMLID_00000113352415948886201620000003135674870140293547_" class="st0" d="M478.2,235h-15.6v-64.3h15.6V235L478.2,235z"
	/>
<path id="XMLID_00000132055724849658388250000011459780220975817364_" class="st0" d="M380.8,235h-15.6v-64.3h15.6V235z"/>
<path id="XMLID_00000085242340724972636470000000131892050424103051_" class="st0" d="M413.4,235h-15.6v-64.4h15.6V235z"/>
<path id="XMLID_00000090974591233676061180000009806134310801967025_" class="st0" d="M445.7,235h-15.6v-64.3h15.6V235L445.7,235z"
	/>
<path id="XMLID_00000142147554615478768170000008256229942423127427_" class="st0" d="M380.8,332.4h-15.6v-48.1h15.6V332.4z"/>
<path id="XMLID_00000137108171812447509760000006326758406331901329_" class="st0" d="M397.8,284.1h15.6v48.1h-15.6V284.1z"/>
<path id="XMLID_00000026848176794142103750000006483811062355073202_" class="st0" d="M446,284.2v48h-15.8v-48H446z"/>
<path id="XMLID_00000042712474590436701380000013562803795359816576_" class="st0" d="M478.2,332.4h-15.6v-48.1h15.6V332.4z"/>
</svg>
