<?xml version="1.0" encoding="utf-8"?>
<!-- Generator: Adobe Illustrator 26.3.1, SVG Export Plug-In . SVG Version: 6.00 Build 0)  -->
<svg version="1.1" id="Layer_1" xmlns="http://www.w3.org/2000/svg" xmlns:xlink="http://www.w3.org/1999/xlink" x="0px" y="0px"
	 viewBox="0 0 588.3 514.7" style="enable-background:new 0 0 588.3 514.7;" xml:space="preserve">
<style type="text/css">
	.st0{fill:gainsboro;}
</style>
<path id="XMLID_00000092436722814172160150000013217204526135789214_" class="st0" d="M154.1,122.9c-7.2-13.3-14.4-26.6-21.6-39.9
	c-2.9-5.2-3.1-10.4,0.6-15.2c3.6-4.7,8.6-5.8,14.2-4.3c5.8,1.5,11.6,3.2,17.4,5c2.5,0.8,4.2,0.5,6.1-1.5c3.5-3.9,7.3-7.5,11.1-11.2
	c6.6-6.4,14.7-5.8,20.4,1.5c2.3,2.9,4.4,5.9,7.1,9.4c3.5-3.6,6.7-7,9.9-10.2c7.3-7.3,15.4-6.6,21.7,1.6c2.5,3.3,5,6.6,7.7,10.3
	c4.5-2.2,8.7-4.3,13-6.4c6-2.9,11.3-2.3,15.5,1.5c4.2,3.9,5.3,9.1,2.8,15.3c-5.5,13.8-11.2,27.5-16.8,41.2c-1,2.5-1,4.3,0.5,6.8
	c3.5,5.6,6.6,11.5,9.5,17.5c1.3,2.7,2.7,3.5,5.6,3.5c8.5-0.2,17-0.1,26.2-0.1v-5.1c0-24.6,0-49.2,0-73.8c0-7.9,2.3-10.2,10.2-10.3
	c23.1,0,46.1,0,69.2,0c7.3,0,9.8,2.5,9.8,9.7c0,30.8,0,61.6,0,92.4v6.5c5.6-5.8,10.3-10.6,15-15.3c5.6-5.7,8.8-5.7,14.5-0.1
	c18.5,18.5,37,37,55.5,55.5c2.9,2.8,5.4,5.7,3.5,10.1c-1.9,4.4-5.6,4.8-9.7,4.6c-1.4-0.1-2.7,0-4.3,0v30.9c6.4-0.1,13-1.3,19.2-0.1
	c13.9,2.7,22.8,16.7,20.8,30.7c-4.2,29.6-11.5,58.2-27.1,84.2c-32.1,53.6-78.7,86.1-140.3,96.7c-11.2,1.9-22.8,2.6-34.2,2.7
	c-53.2,0.3-106.5,0.1-159.7,0.1h-5.9c0,5,0.1,9.7,0,14.3c-0.1,9.2-6.3,15.4-15.5,15.4c-14.4,0.1-28.8,0.1-43.2,0
	c-9.3,0-15.5-6.2-15.5-15.4c0-54,0-108,0-162c0-9.5,6.3-15.6,15.8-15.6c14.2-0.1,28.5-0.1,42.7,0c9.6,0,15.6,6.2,15.7,15.7
	c0.1,4.7,0,9.5,0,14.3c9.7-4.7,18.8-9.6,28.2-13.7c24.8-10.8,50.9-16.2,78-16.3c35.6-0.2,71.2,0,106.8-0.1c17.7,0,30.1,7.8,37,24.2
	c0.3,0.7,0.7,1.3,1.3,2.3c13.2-5.7,26.2-11.3,39.2-16.9c0.7-0.3,1.4-0.8,1.7-1.5c5-9.9,9.9-19.8,15.2-30.4c-2.5,0-4.3,0-6.1,0
	c-92.4,0-184.8,0-277.2,0c-22.2,0-39.7-13.2-45-33.7c-0.5-1.8-0.9-3.6-1.1-5.5c-2.9-38.5,2.8-75,25.1-107.5
	C147.5,130.8,150.7,127.2,154.1,122.9L154.1,122.9z M141.6,452.2c1.6,0,2.5,0,3.4,0c55.9,0,111.7,0.2,167.6-0.1
	c33.5-0.2,64.8-9.3,93.2-27.2c48-30.2,76.3-73.7,85.9-129.6c0.7-4.3,1.5-8.5,2.2-12.8c1.2-7-2.1-12.9-8.4-15.2
	c-6.4-2.3-12.9,0.2-16.3,6.9c-7.7,15-15,30.2-22.8,45.1c-1.5,2.9-4.5,5.6-7.4,7c-13.9,6.4-28.1,12.1-42.1,18.3
	c-1.5,0.7-3.3,2.4-3.7,4c-5.1,18.7-18.8,29.4-38.3,29.4c-37.3,0-74.6,0-111.9,0h-4.7v-14.9c2.1,0,3.9,0,5.8,0c37.3,0,74.6,0,111.9,0
	c13.2,0,23.1-9.6,23.2-22.1c0.1-12.7-9.9-22.4-23.3-22.4c-36.2,0-72.4-0.2-108.6,0.1c-37.1,0.3-71.2,11.1-102.3,31.3
	c-2.5,1.6-3.5,3.2-3.5,6.3c0.1,30.5,0.1,61,0.1,91.4V452.2z M258.6,147.7c-2.2-4-4.1-7.3-5.8-10.7c-1.5-3.1-3.6-4.3-7.3-4.2
	c-24.9,0.2-49.8,0.2-74.7,0c-4.4,0-7.2,1.5-9.7,4.8c-9.8,12.8-16.4,27.1-21.5,42.3c-6,18-5.6,36.5-5.5,55.1
	c0.1,19.1,12.6,31.6,31.7,31.6c22.6,0,45.2,0,67.7,0h4.6c0-2.6,0-4.4,0-6.3c0-34.3,0-68.7,0-103c0-7,2.5-9.5,9.4-9.6
	C251,147.6,254.3,147.7,258.6,147.7L258.6,147.7z M364.1,266.3v-44.3c-1.9,0-3.4-0.1-4.9,0c-4,0.2-7.4-0.8-9-4.9
	c-1.6-4,0.5-6.8,3.2-9.4c7.7-7.6,15.3-15.4,23-22.9c2.2-2.1,3-4.3,3-7.3c-0.1-33.1-0.1-66.2-0.1-99.3c0-1.5-0.1-3-0.2-4.4h-59v192.6
	L364.1,266.3L364.1,266.3z M126.4,481.7V318.9h-44v162.8H126.4z M304.7,266.3V162.9h-51.4v103.4H304.7z M228,117.9
	c6.2,0,11.5-0.1,16.9,0.1c2.4,0.1,3.5-0.8,4.4-3c2.9-7.3,5.9-14.6,8.9-21.9c2-4.9,4-9.9,6.4-15.9c-3.9,1.9-6.8,3.3-9.7,4.7
	c-7.1,3.3-12.8,2-17.6-4.1c-2.6-3.3-5.2-6.8-8-10.5c-3.7,3.8-7,7.3-10.4,10.6c-6.8,6.6-14.9,6-20.8-1.6c-2.2-2.9-4.4-5.8-6.9-9.1
	c-4,4.1-7.8,7.7-11.4,11.6c-4.8,5.3-10.4,6.8-17.2,4.5c-4.7-1.6-9.6-2.8-15.4-4.4c5.6,10.4,10.7,19.8,15.8,29.2
	c3.8,6.9,9.6,10.2,17.6,9.6c0.1,0,0.3-0.1,0.8-0.3c-2.3-4.8-4.5-9.6-6.9-14.7c4.7-2.2,8.9-4.2,13.3-6.3c3.1,6.5,6,12.5,8.9,18.4
	c0.6,1.1,1.6,2.8,2.5,2.9c3.7,0.3,7.6,0.8,11-0.2c1.8-0.6,2.9-4,4.2-6.2c1.2-2.1,2.2-4.4,3.3-6.6c2.1-4.1,4.2-8.1,6.3-12.3
	c4.7,2.4,8.8,4.4,13.1,6.6C234.2,105.2,231.3,111.2,228,117.9L228,117.9z M376.6,206.7h79.7c-13.3-13.3-26.7-26.8-39.8-39.9
	C403.3,179.9,389.9,193.3,376.6,206.7L376.6,206.7z M453.5,222.3h-73.8v44h14.5c0-9.7-0.1-19.1,0-28.5c0-5.5,2.8-8.3,8.3-8.4
	c9.4-0.1,18.9-0.1,28.3,0c4.9,0.1,7.7,2.9,7.9,7.8c0.1,1.8,0,3.7,0,5.6c0,7.8,0,15.7,0,23.4h14.7V222.3L453.5,222.3z M409.3,244.4
	v21.7h14.3v-21.7L409.3,244.4L409.3,244.4z"/>
<path id="XMLID_00000137818064764988288670000004381066837280587402_" class="st0" d="M439.4,118.2V130h-11.9v-11.8l-0.1,0.1h12.1
	L439.4,118.2L439.4,118.2z"/>
<path id="XMLID_00000163043637153394294770000006822904880794308782_" class="st0" d="M122.2,148.3v-11.8H134v11.8l0.1-0.1H122
	C122,148.2,122.1,148.3,122.2,148.3z"/>
<path id="XMLID_00000070089537904323836460000002708162975466221233_" class="st0" d="M469.2,136.5V148h-11.5v-11.5H469.2z"/>
<path id="XMLID_00000065758217724864012170000002088722911839597478_" class="st0" d="M122.1,160.1h-11.8v-11.9c3.9,0,7.8,0,11.8,0
	l-0.1-0.1v12.1L122.1,160.1L122.1,160.1z"/>
<path id="XMLID_00000164515420929272549690000009320498850177418391_" class="st0" d="M415.8,154.3h11.4v11.6h-11.4V154.3z"/>
<path id="XMLID_00000103971867482207688650000003009376109624681125_" class="st0" d="M134,160.1v11.8h-11.9c0-3.9,0-7.9,0-11.8
	l-0.1,0.1h12.1L134,160.1L134,160.1z"/>
<path id="XMLID_00000028287527662454690990000018062907571310185372_" class="st0" d="M134,148.3h11.8v11.9c-3.9,0-7.8,0-11.8,0
	l0.1,0.1v-12.1L134,148.3L134,148.3z"/>
<path id="XMLID_00000150797905801435224780000000755924971602821505_" class="st0" d="M121.9,196.3v11.5h-11.6v-11.5H121.9z"/>
<path id="XMLID_00000151524596007265274660000012926465051016876476_" d="M145.8,106.1h-11.5V94.6h11.5V106.1z"/>
<path id="XMLID_00000067204726891041896670000004063480416769892501_" d="M427.5,106.3V94.6h11.9v11.8l0.1-0.1h-12.1L427.5,106.3
	L427.5,106.3z"/>
<path id="XMLID_00000021103262788587848510000005706163662456770965_" class="st0" d="M427.5,118.2h-11.8v-11.9c3.9,0,7.8,0,11.8,0
	l-0.1-0.1v12.1C427.4,118.3,427.5,118.2,427.5,118.2z"/>
<path id="XMLID_00000179606046045680535040000002627412519655800197_" class="st0" d="M439.4,106.3h11.8v11.9c-3.9,0-7.8,0-11.8,0
	l0.1,0.1v-12.1C439.5,106.2,439.4,106.3,439.4,106.3z"/>
<path id="XMLID_00000036930664242834616890000000164325572390495105_" class="st0" d="M212,190.1v-5.8h11.7c0.1,1.8,0.2,3.6,0.3,4.6
	c3.9,1.4,8,1.8,10.5,4.1c1.8,1.6,1.3,5.7,1.9,9.1h-24.2v6c5.2,0,10.6,0,15.9,0c5.8,0,7.8,2,7.8,7.9c0,4.9,0,9.7,0,14.6
	c0,5.3-2.1,7.4-7.5,7.4c-1.4,0-2.7,0-4.3,0c-0.1,2-0.2,3.7-0.3,5.7h-11.7l-0.3-4.4c-3.9-1.4-8-1.9-10.5-4.1c-1.8-1.6-1.2-5.7-1.8-9
	h24.1v-6.1c-5.2,0-10.6,0-15.9,0c-5.8,0-7.8-2-7.8-7.9c0-4.9,0-9.7,0-14.6c0-5.4,2.1-7.4,7.5-7.4C208.8,190.1,210.1,190.1,212,190.1
	L212,190.1z"/>
<path id="XMLID_00000129918990895427090930000009487873579341782916_" class="st0" d="M325.9,207.9v-11.5h5.6v11.5H325.9z"/>
<path id="XMLID_00000092442592254736891680000000952887586182130573_" class="st0" d="M349.4,136.1h-5.5v-11.7h5.5V136.1z"/>
<path id="XMLID_00000125601643370839437520000014845427820127221694_" class="st0" d="M331.4,136.2H326v-11.6h5.4V136.2z"/>
<path id="XMLID_00000163756167198000128780000008935043470305809035_" class="st0" d="M349.4,160.1h-5.5v-11.6h5.5V160.1z"/>
<path id="XMLID_00000083769528902554765270000012937780357767429014_" class="st0" d="M349.5,196.3v11.5h-5.6v-11.5H349.5z"/>
<path id="XMLID_00000010269560626545369250000004351784724902244488_" class="st0" d="M331.5,160h-5.6v-11.6h5.6V160z"/>
<path id="XMLID_00000161629688751756322820000014118733959645605793_" class="st0" d="M331.5,172.4v11.5h-5.6v-11.5H331.5z"/>
<path id="XMLID_00000127764911338840200810000005002954469623888814_" class="st0" d="M343.8,183.9v-11.5h5.5v11.5H343.8z"/>
<path id="XMLID_00000085211297358738374370000007775249966753159100_" class="st0" d="M134.2,345.5v-17.5h11.6v17.5H134.2z"/>
<path id="XMLID_00000100350381720857739850000009393470944484900027_" class="st0" d="M277.6,207.9h-5.5v-11.6h5.5V207.9z"/>
<path id="XMLID_00000171685599476561954700000000682444740711709115_" class="st0" d="M295.6,196.3v11.5H290v-11.5H295.6z"/>
<path id="XMLID_00000040565731929814683790000001474847628715844763_" class="st0" d="M272,220.2h5.6v11.6H272V220.2z"/>
<path id="XMLID_00000051342128442365970770000007366459085106473391_" class="st0" d="M290,231.8v-11.6h5.5v11.6H290z"/>
<path id="XMLID_00000118358871574948209110000000676609845167156145_" class="st0" d="M295.5,255.9h-5.5v-11.6h5.5V255.9z"/>
<path id="XMLID_00000113349852139279138960000009217810661973249416_" class="st0" d="M277.5,255.8H272v-11.5h5.5V255.8z"/>
</svg>
